<svg width="208" height="111" viewBox="0 0 208 111" fill="none" xmlns="http://www.w3.org/2000/svg">
<g clip-path="url(#clip0_1301_16)">
<path d="M67.1991 110.12C55.7091 110.12 46.3691 100.77 46.3691 89.29C46.3691 77.81 55.7191 68.46 67.1991 68.46C69.7891 68.46 72.3191 68.93 74.7091 69.86C75.4091 70.13 75.7491 70.91 75.4791 71.61C75.2091 72.31 74.4291 72.65 73.7291 72.38C71.6491 71.57 69.4491 71.17 67.1891 71.17C57.1891 71.17 49.0591 79.3 49.0591 89.3C49.0591 99.3 57.1891 107.43 67.1891 107.43C77.1891 107.43 85.3191 99.3 85.3191 89.3C85.3191 84.84 83.6891 80.56 80.7291 77.24C80.2291 76.68 80.2791 75.83 80.8391 75.33C81.3991 74.83 82.2491 74.88 82.7491 75.44C86.1491 79.26 88.0291 84.18 88.0291 89.3C88.0291 100.79 78.6791 110.13 67.1991 110.13V110.12Z" fill="#8E602A"/>
<path d="M140.939 110.12C129.449 110.12 120.109 100.77 120.109 89.29C120.109 84.06 122.049 79.06 125.589 75.21C126.089 74.66 126.949 74.62 127.499 75.13C128.049 75.63 128.089 76.49 127.579 77.04C124.509 80.39 122.809 84.74 122.809 89.29C122.809 99.29 130.939 107.42 140.939 107.42C150.939 107.42 159.069 99.29 159.069 89.29C159.069 82.79 155.559 76.76 149.909 73.53C149.259 73.16 149.039 72.34 149.409 71.69C149.779 71.04 150.609 70.82 151.249 71.19C157.739 74.89 161.769 81.83 161.769 89.29C161.769 100.78 152.419 110.12 140.939 110.12Z" fill="#8E602A"/>
<path d="M104.169 90.6397C103.789 90.6397 103.409 90.4797 103.149 90.1697C100.899 87.5597 89.6187 74.4797 88.6787 72.7497C87.2987 70.1997 86.4487 63.8397 92.6287 60.4097C98.4087 57.2097 104.789 62.5697 105.059 62.7997C105.629 63.2797 105.689 64.1297 105.209 64.6997C104.729 65.2697 103.879 65.3397 103.309 64.8497C103.259 64.8097 98.0787 60.4797 93.9487 62.7697C88.3687 65.8597 91.0387 71.3997 91.0687 71.4597C91.7087 72.6197 100.079 82.4697 105.209 88.3997C105.699 88.9597 105.639 89.8197 105.069 90.2997C104.819 90.5197 104.499 90.6297 104.189 90.6297L104.169 90.6397Z" fill="#8E602A"/>
<path d="M104.17 90.6397C103.86 90.6397 103.54 90.5297 103.29 90.3097C102.73 89.8197 102.66 88.9697 103.15 88.4097C108.28 82.4797 116.65 72.6297 117.29 71.4597C117.32 71.4097 119.99 65.8697 114.41 62.7697C110.27 60.4797 105.1 64.7997 105.05 64.8497C104.48 65.3297 103.63 65.2597 103.15 64.6997C102.67 64.1297 102.73 63.2797 103.3 62.7997C103.57 62.5697 109.94 57.2097 115.73 60.4097C121.91 63.8297 121.05 70.1997 119.68 72.7497C118.74 74.4897 107.46 87.5697 105.21 90.1697C104.94 90.4797 104.57 90.6397 104.19 90.6397H104.17Z" fill="#8E602A"/>
<path d="M140.409 90.7701C139.949 90.7701 139.499 90.5401 139.249 90.1101L123.879 64.3401C123.499 63.7001 123.709 62.8701 124.349 62.4901C124.989 62.1101 125.819 62.3201 126.199 62.9601L141.569 88.7301C141.949 89.3701 141.739 90.2001 141.099 90.5801C140.879 90.7101 140.649 90.7701 140.409 90.7701Z" fill="#8E602A"/>
<path d="M125.17 64.8694C124.73 64.8694 124.3 64.6594 124.04 64.2694C123.63 63.6494 123.8 62.8094 124.42 62.3994L134 56.0394C137.15 54.3694 139.58 54.6894 141.57 56.9594C142.06 57.5194 142 58.3694 141.44 58.8694C140.88 59.3594 140.02 59.2994 139.53 58.7394C138.58 57.6494 137.55 57.2094 135.38 58.3594L125.92 64.6594C125.69 64.8094 125.43 64.8894 125.17 64.8894V64.8694Z" fill="#8E602A"/>
<path d="M140.669 90.6399C140.229 90.6399 139.799 90.4299 139.539 90.0299C139.129 89.4099 139.299 88.5699 139.929 88.1599L152.369 79.9699C154.029 78.3199 153.929 77.2099 153.209 75.9799C152.839 75.3399 153.059 74.5099 153.699 74.1299C154.339 73.7599 155.169 73.9799 155.549 74.6199C157.049 77.2099 156.599 79.6199 154.159 81.9899C154.099 82.0499 154.029 82.0999 153.959 82.1499L141.409 90.4099C141.179 90.5599 140.919 90.6299 140.669 90.6299V90.6399Z" fill="#8E602A"/>
<path d="M63.7283 93.0397C62.3583 93.0397 61.1183 92.4997 60.1283 91.7097C58.1483 90.1197 57.4683 86.3697 59.8383 83.0797C60.2783 82.4697 61.1183 82.3397 61.7183 82.7697C62.3283 83.2097 62.4583 84.0497 62.0283 84.6497C60.3983 86.9197 61.0983 89.0297 61.8183 89.5997C62.9383 90.4997 64.7283 91.0197 66.8983 88.4197C68.0183 87.0697 69.7483 84.5097 72.6583 79.8497C75.2183 75.7597 85.0483 59.6397 88.5483 53.8797H77.1283C73.9283 53.8797 72.1783 54.4197 72.0883 57.2997C72.0083 60.0397 74.6883 60.8597 74.9883 60.9397C75.7083 61.1397 76.1283 61.8797 75.9383 62.5897C75.7483 63.3097 75.0183 63.7297 74.2983 63.5497C72.5483 63.0897 69.2683 61.1797 69.3883 57.2097C69.5683 51.1797 75.0583 51.1797 77.1283 51.1797H90.9583C91.4483 51.1797 91.8983 51.4397 92.1383 51.8697C92.3783 52.2997 92.3683 52.8197 92.1183 53.2297C91.9783 53.4597 78.0783 76.2797 74.9583 81.2797C71.9383 86.1197 70.2083 88.6897 68.9883 90.1497C67.2383 92.2397 65.4083 93.0297 63.7483 93.0297L63.7283 93.0397Z" fill="#8E602A"/>
<path d="M132.718 77.9101C132.278 77.9101 131.848 77.7001 131.588 77.3001C131.178 76.6801 131.348 75.8401 131.978 75.4301L143.268 68.0101C143.888 67.6001 144.728 67.7701 145.138 68.4001C145.548 69.0201 145.378 69.8601 144.748 70.2701L133.458 77.6901C133.228 77.8401 132.968 77.9101 132.718 77.9101Z" fill="#8E602A"/>
<path d="M4.58985 68.1105C6.25985 68.8505 7.01985 70.7705 6.29985 72.4005C5.57985 74.0005 3.69985 74.7305 1.97985 73.9705C0.13985 73.1505 -0.38015 71.2205 0.28985 69.7205C0.96985 68.1905 2.80985 67.3205 4.59985 68.1205L4.58985 68.1105Z" fill="#8E602A"/>
<path d="M18.9495 56.7505C19.4795 57.0905 19.9695 57.4705 20.4295 57.8905C20.8895 58.3105 21.2295 58.8005 21.4595 59.3505C21.6895 59.9005 21.7595 60.5205 21.6795 61.2205C21.5895 61.9105 21.2695 62.7005 20.7095 63.5705C20.3895 64.0705 20.0595 64.4805 19.7095 64.8205C19.3595 65.1605 19.0095 65.4405 18.6495 65.6705C18.2895 65.9005 17.9295 66.0805 17.5695 66.2205C17.2095 66.3605 16.8595 66.4805 16.5195 66.5705L15.9595 65.1505C16.1895 65.0805 16.4795 64.9905 16.8195 64.9005C17.1595 64.8005 17.4995 64.6805 17.8495 64.5405C18.1995 64.3905 18.5295 64.2205 18.8395 64.0205C19.1495 63.8205 19.3995 63.5805 19.5895 63.2905C19.9895 62.6605 20.1295 62.0705 20.0095 61.5205C19.8795 60.9705 19.5295 60.5105 18.9595 60.1405L6.93945 52.4605L8.46945 50.0605L18.9495 56.7505Z" fill="#8E602A"/>
<path d="M15.7793 40.5904L17.6493 38.4404L30.7693 49.8804L28.8993 52.0304L15.7793 40.5904Z" fill="#8E602A"/>
<path d="M26.4297 29.3606L28.6497 27.5806L33.4697 33.6106L35.6097 22.0106L37.0597 20.8506L35.0297 31.8506L49.7097 33.0106L46.8797 35.2806L34.0097 34.2706L39.5297 41.1706L37.3097 42.9506L26.4297 29.3606Z" fill="#8E602A"/>
<path d="M50.8998 12.2002L66.1898 24.3002L63.6198 25.6402L58.6498 21.6902L52.1998 25.0502L52.5098 31.4302L51.2398 32.0902L50.2598 12.5302L50.8898 12.2002H50.8998ZM52.1298 23.8202L57.6698 20.9302L51.7598 16.2402L52.1298 23.8202Z" fill="#8E602A"/>
<path d="M64.959 6.41055L67.679 5.56055L72.559 21.0905L80.699 18.5305L81.039 19.6105L70.179 23.0205L64.969 6.41055H64.959Z" fill="#8E602A"/>
<path d="M90.7493 0.0703125L100.769 16.8003L97.8893 17.1403L94.6393 11.6803L87.4193 12.5403L85.4493 18.6203L84.0293 18.7903L90.0393 0.160312L90.7493 0.0803125V0.0703125ZM87.7893 11.3703L93.9893 10.6303L90.1193 4.15031L87.7893 11.3703Z" fill="#8E602A"/>
<path d="M122.739 9.15046C122.569 9.76046 122.379 10.2905 122.169 10.7605C121.959 11.2305 121.729 11.6705 121.469 12.0705C121.209 12.4805 120.919 12.8705 120.599 13.2405C120.279 13.6205 119.919 14.0105 119.509 14.4205C120.079 15.1705 120.629 15.7805 121.169 16.2505C121.699 16.7105 122.209 16.9805 122.699 17.0305C123.329 17.1105 123.889 17.0405 124.369 16.8405C124.849 16.6405 125.259 16.2305 125.609 15.6105L126.069 15.8505C125.889 16.4005 125.649 16.8805 125.349 17.2905C125.049 17.7005 124.699 18.0305 124.299 18.2805C123.899 18.5405 123.459 18.7105 122.979 18.8105C122.499 18.9105 121.979 18.9205 121.439 18.8605C120.749 18.7805 120.059 18.4905 119.369 18.0005C118.689 17.5105 118.029 16.8805 117.409 16.1205C116.499 16.6805 115.539 17.1105 114.509 17.4105C113.479 17.7105 112.399 17.7905 111.269 17.6505C110.469 17.5605 109.809 17.3805 109.269 17.1405C108.729 16.8905 108.309 16.5805 107.989 16.2105C107.669 15.8405 107.459 15.4105 107.349 14.9305C107.239 14.4505 107.219 13.9305 107.279 13.3805C107.369 12.5905 107.599 11.9005 107.969 11.3305C108.329 10.7505 108.779 10.2505 109.319 9.82046C109.849 9.39046 110.449 9.02046 111.099 8.72046C111.749 8.41046 112.419 8.14046 113.099 7.89046C112.839 7.08046 112.639 6.35046 112.509 5.68046C112.379 5.01046 112.339 4.46046 112.389 4.01046C112.459 3.44046 112.609 2.89046 112.859 2.37046C113.109 1.85046 113.439 1.41046 113.849 1.03046C114.269 0.660463 114.769 0.380463 115.349 0.190463C115.929 0.000463173 116.579 -0.0495368 117.309 0.0404632C117.849 0.100463 118.349 0.240463 118.809 0.460463C119.269 0.680463 119.659 0.960463 119.979 1.31046C120.299 1.66046 120.529 2.07046 120.689 2.54046C120.839 3.01046 120.889 3.53046 120.819 4.10046C120.749 4.66046 120.559 5.15046 120.249 5.54046C119.939 5.93046 119.549 6.28046 119.089 6.57046C118.629 6.86046 118.109 7.11046 117.539 7.32046C116.969 7.53046 116.389 7.74046 115.809 7.95046C116.149 8.86046 116.579 9.78046 117.099 10.7005C117.619 11.6205 118.189 12.5305 118.819 13.4305C119.769 12.5605 120.509 11.7305 121.019 10.9505C121.539 10.1705 121.899 9.49046 122.109 8.88046L122.719 9.14046L122.739 9.15046ZM113.459 8.80046C113.009 9.00046 112.579 9.23046 112.189 9.50046C111.789 9.76046 111.439 10.0505 111.139 10.3605C110.839 10.6705 110.589 11.0105 110.399 11.3805C110.209 11.7405 110.089 12.1405 110.039 12.5505C109.989 13.0205 110.009 13.4705 110.109 13.8905C110.209 14.3205 110.379 14.7005 110.609 15.0305C110.839 15.3605 111.149 15.6405 111.519 15.8605C111.889 16.0805 112.319 16.2205 112.819 16.2805C113.489 16.3605 114.139 16.2805 114.779 16.0505C115.419 15.8205 116.039 15.5105 116.649 15.1305C116.319 14.6605 116.009 14.1605 115.709 13.6405C115.419 13.1205 115.139 12.5905 114.879 12.0505C114.619 11.5105 114.369 10.9705 114.139 10.4205C113.909 9.87046 113.689 9.33046 113.479 8.80046H113.459ZM115.509 7.10046C115.979 6.92046 116.419 6.72046 116.829 6.52046C117.239 6.31046 117.599 6.08046 117.919 5.82046C118.239 5.56046 118.499 5.27046 118.699 4.93046C118.899 4.60046 119.029 4.22046 119.079 3.79046C119.129 3.37046 119.119 3.00046 119.049 2.66046C118.979 2.32046 118.869 2.03046 118.719 1.77046C118.569 1.52046 118.379 1.32046 118.149 1.17046C117.919 1.02046 117.669 0.930463 117.389 0.900463C117.079 0.860463 116.779 0.910463 116.499 1.05046C116.219 1.18046 115.969 1.37046 115.739 1.61046C115.519 1.85046 115.329 2.13046 115.189 2.44046C115.039 2.75046 114.949 3.07046 114.909 3.39046C114.849 3.91046 114.869 4.50046 114.979 5.14046C115.089 5.79046 115.269 6.44046 115.509 7.09046V7.10046Z" fill="#8E602A"/>
<path d="M150.561 9.14055L150.171 10.2005L141.791 7.10055L139.631 12.9405L145.241 15.0105L144.851 16.0705L139.241 14.0005L136.541 21.3105L144.911 24.4105L144.521 25.4705L133.471 21.3805L139.511 5.06055L150.561 9.15055V9.14055Z" fill="#8E602A"/>
<path d="M158.83 13.25L161.29 14.69L153.05 28.73L160.41 33.05L159.84 34.02L150.02 28.26L158.83 13.25Z" fill="#8E602A"/>
<path d="M173.479 22.5508L175.699 24.3408L165.459 36.9908L172.089 42.3608L171.379 43.2408L162.529 36.0808L173.479 22.5508Z" fill="#8E602A"/>
<path d="M187.11 34.5605L189.08 36.6205L176.49 48.6405L174.52 46.5805L187.11 34.5605Z" fill="#8E602A"/>
<path d="M203.469 55.3309L202.539 55.9709L197.469 48.6209L192.349 52.1509L195.739 57.0709L194.809 57.7109L191.419 52.7909L184.999 57.2109L190.069 64.5609L189.139 65.2009L182.459 55.5009L196.789 45.6309L203.469 55.3309Z" fill="#8E602A"/>
<path d="M205.99 72.9804C204.32 73.7304 202.39 73.0304 201.65 71.4104C200.93 69.8104 201.63 67.9104 203.35 67.1404C205.19 66.3104 206.97 67.2004 207.65 68.7004C208.34 70.2304 207.77 72.1704 205.99 72.9804Z" fill="#8E602A"/>
</g>
<defs>
<clipPath id="clip0_1301_16">
<rect width="207.94" height="110.12" fill="white"/>
</clipPath>
</defs>
</svg>
