<svg width="60" height="79" viewBox="0 0 60 79" fill="none" xmlns="http://www.w3.org/2000/svg">
<g clip-path="url(#clip0_1304_69)">
<path d="M31.6397 0.06C45.2797 0.93 56.8397 11.8 58.8897 25.28C61.3697 41.55 49.3397 59.16 38.9597 70.64C37.3097 72.47 32.7797 77.54 30.9197 78.63C29.2197 79.63 28.0297 78.4 26.8597 77.35C15.3697 67.06 0.849739 47.38 0.039739 31.58C-0.790261 15.52 11.4797 1.11 27.6297 0.06C28.8097 -0.02 30.4597 -0.02 31.6397 0.06ZM28.8297 13.2C15.7997 13.88 8.63974 28.82 16.4097 39.4C24.2297 50.05 40.9797 47.43 45.1997 34.97C48.9097 24.04 40.3497 12.6 28.8297 13.2Z" fill="#CF8029"/>
</g>
<defs>
<clipPath id="clip0_1304_69">
<rect width="59.22" height="79" fill="white"/>
</clipPath>
</defs>
</svg>
