<svg width="573" height="375" viewBox="0 0 573 375" fill="none" xmlns="http://www.w3.org/2000/svg">
<g clip-path="url(#clip0_1306_315)">
<path d="M246.398 110.121C234.908 110.121 225.568 100.771 225.568 89.2909C225.568 77.8109 234.918 68.4609 246.398 68.4609C248.988 68.4609 251.518 68.9309 253.908 69.8609C254.608 70.1309 254.948 70.9109 254.678 71.6109C254.408 72.3109 253.628 72.6509 252.928 72.3809C250.848 71.5709 248.648 71.1709 246.388 71.1709C236.388 71.1709 228.258 79.3009 228.258 89.3009C228.258 99.3009 236.388 107.431 246.388 107.431C256.388 107.431 264.518 99.3009 264.518 89.3009C264.518 84.8409 262.888 80.5609 259.928 77.2409C259.428 76.6809 259.478 75.8309 260.038 75.3309C260.598 74.8309 261.448 74.8809 261.948 75.4409C265.348 79.2609 267.228 84.1809 267.228 89.3009C267.228 100.791 257.878 110.131 246.398 110.131V110.121Z" fill="#8E602A"/>
<path d="M320.129 110.121C308.639 110.121 299.299 100.771 299.299 89.291C299.299 84.061 301.239 79.061 304.779 75.211C305.279 74.661 306.139 74.621 306.689 75.131C307.239 75.631 307.279 76.491 306.769 77.041C303.699 80.391 301.999 84.741 301.999 89.291C301.999 99.291 310.129 107.421 320.129 107.421C330.129 107.421 338.259 99.291 338.259 89.291C338.259 82.791 334.749 76.761 329.099 73.531C328.449 73.161 328.229 72.341 328.599 71.691C328.969 71.041 329.799 70.821 330.439 71.191C336.929 74.891 340.959 81.831 340.959 89.291C340.959 100.781 331.609 110.121 320.129 110.121Z" fill="#8E602A"/>
<path d="M283.368 90.6406C282.988 90.6406 282.608 90.4806 282.348 90.1706C280.098 87.5606 268.818 74.4807 267.878 72.7507C266.498 70.2007 265.648 63.8407 271.828 60.4107C277.608 57.2107 283.988 62.5706 284.258 62.8006C284.828 63.2806 284.888 64.1306 284.408 64.7006C283.928 65.2706 283.078 65.3406 282.508 64.8506C282.458 64.8106 277.278 60.4807 273.148 62.7707C267.568 65.8607 270.238 71.4006 270.268 71.4606C270.908 72.6206 279.278 82.4707 284.408 88.4007C284.898 88.9607 284.838 89.8207 284.268 90.3007C284.018 90.5207 283.698 90.6306 283.388 90.6306L283.368 90.6406Z" fill="#8E602A"/>
<path d="M283.369 90.6406C283.059 90.6406 282.739 90.5306 282.489 90.3106C281.929 89.8206 281.859 88.9707 282.349 88.4107C287.479 82.4807 295.849 72.6306 296.489 71.4606C296.519 71.4106 299.189 65.8707 293.609 62.7707C289.469 60.4807 284.299 64.8006 284.249 64.8506C283.679 65.3306 282.829 65.2606 282.349 64.7006C281.869 64.1306 281.929 63.2806 282.499 62.8006C282.769 62.5706 289.139 57.2107 294.929 60.4107C301.109 63.8307 300.249 70.2007 298.879 72.7507C297.939 74.4907 286.659 87.5706 284.409 90.1706C284.139 90.4806 283.769 90.6406 283.389 90.6406H283.369Z" fill="#8E602A"/>
<path d="M319.608 90.771C319.148 90.771 318.698 90.541 318.448 90.111L303.078 64.341C302.698 63.701 302.908 62.871 303.548 62.491C304.188 62.111 305.018 62.321 305.398 62.961L320.768 88.731C321.148 89.371 320.938 90.201 320.298 90.581C320.078 90.711 319.848 90.771 319.608 90.771Z" fill="#8E602A"/>
<path d="M304.369 64.8704C303.929 64.8704 303.499 64.6604 303.239 64.2704C302.829 63.6504 302.999 62.8104 303.619 62.4004L313.199 56.0404C316.349 54.3704 318.779 54.6904 320.769 56.9604C321.259 57.5204 321.199 58.3704 320.639 58.8704C320.079 59.3604 319.219 59.3004 318.729 58.7404C317.779 57.6504 316.749 57.2104 314.579 58.3604L305.119 64.6604C304.889 64.8104 304.629 64.8904 304.369 64.8904V64.8704Z" fill="#8E602A"/>
<path d="M319.859 90.6408C319.419 90.6408 318.989 90.4308 318.729 90.0308C318.319 89.4108 318.489 88.5708 319.119 88.1608L331.559 79.9708C333.219 78.3208 333.119 77.2108 332.399 75.9808C332.029 75.3408 332.249 74.5108 332.889 74.1308C333.529 73.7608 334.359 73.9808 334.739 74.6208C336.239 77.2108 335.789 79.6208 333.349 81.9908C333.289 82.0508 333.219 82.1008 333.149 82.1508L320.599 90.4108C320.369 90.5608 320.109 90.6308 319.859 90.6308V90.6408Z" fill="#8E602A"/>
<path d="M242.927 93.0407C241.557 93.0407 240.317 92.5007 239.327 91.7107C237.347 90.1207 236.667 86.3707 239.037 83.0807C239.477 82.4707 240.317 82.3407 240.917 82.7707C241.527 83.2107 241.657 84.0507 241.227 84.6507C239.597 86.9207 240.297 89.0307 241.017 89.6007C242.137 90.5007 243.927 91.0207 246.097 88.4207C247.217 87.0707 248.947 84.5107 251.857 79.8507C254.417 75.7607 264.247 59.6407 267.747 53.8807H256.327C253.127 53.8807 251.377 54.4207 251.287 57.3007C251.207 60.0407 253.887 60.8607 254.187 60.9407C254.907 61.1407 255.327 61.8807 255.137 62.5907C254.947 63.3107 254.217 63.7307 253.497 63.5507C251.747 63.0907 248.467 61.1807 248.587 57.2107C248.767 51.1807 254.257 51.1807 256.327 51.1807H270.157C270.647 51.1807 271.097 51.4407 271.337 51.8707C271.577 52.3007 271.567 52.8207 271.317 53.2307C271.177 53.4607 257.277 76.2807 254.157 81.2807C251.137 86.1207 249.407 88.6907 248.187 90.1507C246.437 92.2407 244.607 93.0307 242.947 93.0307L242.927 93.0407Z" fill="#8E602A"/>
<path d="M311.917 77.9111C311.477 77.9111 311.047 77.7011 310.787 77.3011C310.377 76.6811 310.547 75.8411 311.177 75.4311L322.467 68.0111C323.087 67.6011 323.927 67.7711 324.337 68.4011C324.747 69.0211 324.577 69.8611 323.947 70.2711L312.657 77.6911C312.427 77.8411 312.167 77.9111 311.917 77.9111Z" fill="#8E602A"/>
<path d="M183.779 68.1105C185.449 68.8505 186.209 70.7705 185.489 72.4005C184.769 74.0005 182.889 74.7305 181.169 73.9705C179.329 73.1505 178.809 71.2205 179.479 69.7205C180.159 68.1905 181.999 67.3205 183.789 68.1205L183.779 68.1105Z" fill="#8E602A"/>
<path d="M198.139 56.7505C198.669 57.0905 199.159 57.4705 199.619 57.8905C200.079 58.3105 200.419 58.8005 200.649 59.3505C200.879 59.9005 200.949 60.5205 200.869 61.2205C200.779 61.9105 200.459 62.7005 199.899 63.5705C199.579 64.0705 199.249 64.4805 198.899 64.8205C198.549 65.1605 198.199 65.4405 197.839 65.6705C197.479 65.9005 197.119 66.0805 196.759 66.2205C196.399 66.3605 196.049 66.4805 195.709 66.5705L195.149 65.1505C195.379 65.0805 195.669 64.9905 196.009 64.9005C196.349 64.8005 196.689 64.6805 197.039 64.5405C197.389 64.3905 197.719 64.2205 198.029 64.0205C198.339 63.8205 198.589 63.5805 198.779 63.2905C199.179 62.6605 199.319 62.0705 199.199 61.5205C199.069 60.9705 198.719 60.5105 198.149 60.1405L186.129 52.4605L187.659 50.0605L198.139 56.7505Z" fill="#8E602A"/>
<path d="M194.979 40.5904L196.849 38.4404L209.969 49.8804L208.099 52.0304L194.979 40.5904Z" fill="#8E602A"/>
<path d="M205.629 29.3606L207.849 27.5806L212.669 33.6106L214.809 22.0106L216.259 20.8506L214.229 31.8506L228.909 33.0106L226.079 35.2806L213.209 34.2706L218.729 41.1706L216.509 42.9506L205.629 29.3606Z" fill="#8E602A"/>
<path d="M230.089 12.2002L245.379 24.3002L242.809 25.6402L237.839 21.6902L231.389 25.0502L231.699 31.4302L230.429 32.0902L229.449 12.5302L230.079 12.2002H230.089ZM231.319 23.8202L236.859 20.9302L230.949 16.2402L231.319 23.8202Z" fill="#8E602A"/>
<path d="M244.16 6.41055L246.88 5.56055L251.76 21.0905L259.9 18.5305L260.24 19.6105L249.38 23.0205L244.17 6.41055H244.16Z" fill="#8E602A"/>
<path d="M269.949 0.0703125L279.969 16.8003L277.089 17.1403L273.839 11.6803L266.618 12.5403L264.648 18.6203L263.229 18.7903L269.238 0.160312L269.949 0.0803125V0.0703125ZM266.988 11.3703L273.189 10.6303L269.319 4.15031L266.988 11.3703Z" fill="#8E602A"/>
<path d="M301.939 9.15046C301.769 9.76046 301.579 10.2905 301.369 10.7605C301.159 11.2305 300.929 11.6705 300.669 12.0705C300.409 12.4805 300.119 12.8705 299.799 13.2405C299.479 13.6205 299.119 14.0105 298.709 14.4205C299.279 15.1705 299.829 15.7805 300.369 16.2505C300.899 16.7105 301.409 16.9805 301.899 17.0305C302.529 17.1105 303.089 17.0405 303.569 16.8405C304.049 16.6405 304.459 16.2305 304.809 15.6105L305.269 15.8505C305.089 16.4005 304.849 16.8805 304.549 17.2905C304.249 17.7005 303.899 18.0305 303.499 18.2805C303.099 18.5405 302.659 18.7105 302.179 18.8105C301.699 18.9105 301.179 18.9205 300.639 18.8605C299.949 18.7805 299.259 18.4905 298.569 18.0005C297.889 17.5105 297.229 16.8805 296.609 16.1205C295.699 16.6805 294.739 17.1105 293.709 17.4105C292.679 17.7105 291.599 17.7905 290.469 17.6505C289.669 17.5605 289.009 17.3805 288.469 17.1405C287.929 16.8905 287.509 16.5805 287.189 16.2105C286.869 15.8405 286.659 15.4105 286.549 14.9305C286.439 14.4505 286.419 13.9305 286.479 13.3805C286.569 12.5905 286.799 11.9005 287.169 11.3305C287.529 10.7505 287.979 10.2505 288.519 9.82046C289.049 9.39046 289.649 9.02046 290.299 8.72046C290.949 8.41046 291.619 8.14046 292.299 7.89046C292.039 7.08046 291.839 6.35046 291.709 5.68046C291.579 5.01046 291.539 4.46046 291.589 4.01046C291.659 3.44046 291.809 2.89046 292.059 2.37046C292.309 1.85046 292.639 1.41046 293.049 1.03046C293.469 0.660463 293.969 0.380463 294.549 0.190463C295.129 0.000463173 295.779 -0.0495368 296.509 0.0404632C297.049 0.100463 297.549 0.240463 298.009 0.460463C298.469 0.680463 298.859 0.960463 299.179 1.31046C299.499 1.66046 299.729 2.07046 299.889 2.54046C300.039 3.01046 300.089 3.53046 300.019 4.10046C299.949 4.66046 299.759 5.15046 299.449 5.54046C299.139 5.93046 298.749 6.28046 298.289 6.57046C297.829 6.86046 297.309 7.11046 296.739 7.32046C296.169 7.53046 295.589 7.74046 295.009 7.95046C295.349 8.86046 295.779 9.78046 296.299 10.7005C296.819 11.6205 297.389 12.5305 298.019 13.4305C298.969 12.5605 299.709 11.7305 300.219 10.9505C300.739 10.1705 301.099 9.49046 301.309 8.88046L301.919 9.14046L301.939 9.15046ZM292.659 8.80046C292.209 9.00046 291.779 9.23046 291.389 9.50046C290.989 9.76046 290.639 10.0505 290.339 10.3605C290.039 10.6705 289.789 11.0105 289.599 11.3805C289.409 11.7405 289.289 12.1405 289.239 12.5505C289.189 13.0205 289.209 13.4705 289.309 13.8905C289.409 14.3205 289.579 14.7005 289.809 15.0305C290.039 15.3605 290.349 15.6405 290.719 15.8605C291.089 16.0805 291.519 16.2205 292.019 16.2805C292.689 16.3605 293.339 16.2805 293.979 16.0505C294.619 15.8205 295.239 15.5105 295.849 15.1305C295.519 14.6605 295.209 14.1605 294.909 13.6405C294.619 13.1205 294.339 12.5905 294.079 12.0505C293.819 11.5105 293.569 10.9705 293.339 10.4205C293.109 9.87046 292.889 9.33046 292.679 8.80046H292.659ZM294.709 7.10046C295.179 6.92046 295.619 6.72046 296.029 6.52046C296.439 6.31046 296.799 6.08046 297.119 5.82046C297.439 5.56046 297.699 5.27046 297.899 4.93046C298.099 4.60046 298.229 4.22046 298.279 3.79046C298.329 3.37046 298.319 3.00046 298.249 2.66046C298.179 2.32046 298.069 2.03046 297.919 1.77046C297.769 1.52046 297.579 1.32046 297.349 1.17046C297.119 1.02046 296.869 0.930463 296.589 0.900463C296.279 0.860463 295.979 0.910463 295.699 1.05046C295.419 1.18046 295.169 1.37046 294.939 1.61046C294.719 1.85046 294.529 2.13046 294.389 2.44046C294.239 2.75046 294.149 3.07046 294.109 3.39046C294.049 3.91046 294.069 4.50046 294.179 5.14046C294.289 5.79046 294.469 6.44046 294.709 7.09046V7.10046Z" fill="#8E602A"/>
<path d="M329.75 9.14055L329.36 10.2005L320.98 7.10055L318.82 12.9405L324.43 15.0105L324.04 16.0705L318.43 14.0005L315.73 21.3105L324.1 24.4105L323.71 25.4705L312.66 21.3805L318.7 5.06055L329.75 9.15055V9.14055Z" fill="#8E602A"/>
<path d="M338.019 13.25L340.479 14.69L332.239 28.73L339.599 33.05L339.029 34.02L329.209 28.26L338.019 13.25Z" fill="#8E602A"/>
<path d="M352.669 22.5508L354.889 24.3408L344.649 36.9908L351.279 42.3608L350.569 43.2408L341.719 36.0808L352.669 22.5508Z" fill="#8E602A"/>
<path d="M366.299 34.5605L368.269 36.6205L355.679 48.6405L353.709 46.5805L366.299 34.5605Z" fill="#8E602A"/>
<path d="M382.67 55.3309L381.74 55.9709L376.67 48.6209L371.55 52.1509L374.94 57.0709L374.01 57.7109L370.62 52.7909L364.2 57.2109L369.27 64.5609L368.34 65.2009L361.66 55.5009L375.99 45.6309L382.67 55.3309Z" fill="#8E602A"/>
<path d="M385.189 72.9804C383.519 73.7304 381.589 73.0304 380.849 71.4104C380.129 69.8104 380.829 67.9104 382.549 67.1404C384.389 66.3104 386.169 67.2004 386.849 68.7004C387.539 70.2304 386.969 72.1704 385.189 72.9804Z" fill="#8E602A"/>
<path d="M0 158.45H11.41V226.31H0V158.45Z" fill="#AE6111"/>
<path d="M30.7695 158.45H37.1295L81.5995 208.03H82.0595V158.45H87.0495V227.91H84.4095L36.2695 172.72H35.8695V226.31H30.7695V158.45Z" fill="#AE6111"/>
<path d="M110.21 158.45L135.77 212.44L159.61 158.45H165L134.17 227.91H131.25L98.1797 158.45H110.22H110.21Z" fill="#AE6111"/>
<path d="M176.061 158.45H187.471V226.31H176.061V158.45Z" fill="#AE6111"/>
<path d="M260.82 158.45V162.81H236.23V226.31H224.83V162.81H200.24V158.45H260.82Z" fill="#AE6111"/>
<path d="M293.77 156.9L325.69 226.31H314.11L303.74 203.67H274.68L263.96 226.31H258.23L290.96 156.9H293.77ZM276.69 199.25H301.68L289.36 172.43L276.69 199.25Z" fill="#AE6111"/>
<path d="M383.75 158.45V162.81H359.16V226.31H347.75V162.81H323.16V158.45H383.74H383.75Z" fill="#AE6111"/>
<path d="M396.59 158.45H408V226.31H396.59V158.45Z" fill="#AE6111"/>
<path d="M461.86 227.91C458.34 227.91 454.98 227.48 451.77 226.62C448.56 225.76 445.57 224.55 442.8 222.98C440.03 221.41 437.51 219.54 435.23 217.36C432.96 215.18 431.03 212.76 429.44 210.08C427.85 207.41 426.62 204.54 425.74 201.48C424.86 198.42 424.42 195.25 424.42 191.97C424.42 188.69 424.86 185.61 425.74 182.63C426.62 179.65 427.85 176.86 429.44 174.26C431.02 171.66 432.96 169.29 435.23 167.15C437.5 165.01 440.02 163.19 442.8 161.68C445.57 160.17 448.56 159 451.77 158.16C454.98 157.32 458.34 156.9 461.86 156.9C467.13 156.9 472.04 157.82 476.59 159.65C481.14 161.48 485.08 163.99 488.43 167.16C491.77 170.33 494.41 174.05 496.34 178.31C498.27 182.57 499.23 187.13 499.23 191.98C499.23 195.27 498.79 198.44 497.91 201.49C497.03 204.55 495.8 207.41 494.21 210.09C492.62 212.77 490.7 215.19 488.45 217.37C486.2 219.55 483.68 221.42 480.91 222.99C478.14 224.56 475.15 225.77 471.94 226.63C468.73 227.49 465.37 227.92 461.85 227.92L461.86 227.91ZM461.86 224.53C465.72 224.53 469.14 223.72 472.12 222.09C475.1 220.47 477.61 218.2 479.66 215.3C481.7 212.4 483.25 208.96 484.3 204.98C485.35 201.01 485.88 196.67 485.88 191.97C485.88 187.27 485.35 183.04 484.3 179.16C483.25 175.28 481.7 171.94 479.66 169.13C477.62 166.32 475.1 164.13 472.12 162.57C469.14 161 465.72 160.22 461.86 160.22C458 160.22 454.4 161 451.4 162.57C448.4 164.14 445.89 166.32 443.86 169.13C441.83 171.94 440.32 175.28 439.3 179.16C438.29 183.04 437.78 187.31 437.78 191.97C437.78 196.63 438.29 201.01 439.3 204.98C440.31 208.95 441.83 212.39 443.86 215.3C445.88 218.2 448.4 220.47 451.4 222.09C454.4 223.71 457.89 224.53 461.86 224.53Z" fill="#AE6111"/>
<path d="M515.74 158.45H522.1L566.57 208.03H567.03V158.45H572.02V227.91H569.38L521.24 172.72H520.84V226.31H515.74V158.45Z" fill="#AE6111"/>
<path d="M90.4509 278.729V280.619H79.7709V308.209H74.8109V280.619H64.1309V278.729H90.4509Z" fill="#AE6111"/>
<path d="M111.711 308.91C110.181 308.91 108.721 308.72 107.331 308.35C105.941 307.98 104.641 307.45 103.431 306.77C102.231 306.09 101.131 305.28 100.141 304.33C99.1514 303.38 98.3114 302.33 97.6214 301.17C96.9314 300.01 96.4014 298.76 96.0114 297.43C95.6314 296.1 95.4414 294.72 95.4414 293.3C95.4414 291.88 95.6314 290.54 96.0114 289.24C96.3914 287.95 96.9314 286.73 97.6214 285.6C98.3114 284.47 99.1514 283.44 100.141 282.51C101.131 281.58 102.221 280.79 103.431 280.13C104.631 279.47 105.931 278.96 107.331 278.6C108.721 278.24 110.181 278.05 111.711 278.05C114.001 278.05 116.131 278.45 118.111 279.25C120.091 280.05 121.801 281.13 123.251 282.51C124.701 283.89 125.851 285.5 126.691 287.35C127.531 289.2 127.951 291.18 127.951 293.29C127.951 294.72 127.761 296.1 127.381 297.42C127.001 298.75 126.461 299.99 125.771 301.16C125.081 302.32 124.251 303.38 123.271 304.32C122.291 305.27 121.201 306.08 120.001 306.76C118.801 307.44 117.501 307.97 116.101 308.34C114.711 308.71 113.241 308.9 111.721 308.9L111.711 308.91ZM111.711 307.44C113.391 307.44 114.871 307.09 116.171 306.38C117.461 305.67 118.561 304.69 119.441 303.43C120.331 302.17 121.001 300.67 121.461 298.95C121.921 297.22 122.141 295.34 122.141 293.3C122.141 291.26 121.911 289.42 121.461 287.73C121.001 286.05 120.331 284.59 119.441 283.37C118.551 282.15 117.461 281.2 116.171 280.52C114.881 279.84 113.391 279.5 111.711 279.5C110.031 279.5 108.471 279.84 107.171 280.52C105.871 281.2 104.781 282.15 103.901 283.37C103.021 284.59 102.361 286.04 101.921 287.73C101.481 289.42 101.261 291.27 101.261 293.3C101.261 295.33 101.481 297.23 101.921 298.95C102.361 300.68 103.021 302.17 103.901 303.43C104.781 304.69 105.871 305.68 107.171 306.38C108.471 307.09 109.991 307.44 111.711 307.44Z" fill="#AE6111"/>
<path d="M166.222 299.77C166.222 300.85 166.122 301.91 165.932 302.95C165.742 303.99 165.352 304.92 164.752 305.75C164.152 306.58 163.302 307.25 162.202 307.75C161.102 308.25 159.642 308.51 157.832 308.51C156.802 308.51 155.882 308.41 155.072 308.22C154.262 308.03 153.512 307.78 152.842 307.47C152.172 307.16 151.562 306.82 151.022 306.44C150.482 306.06 149.982 305.68 149.512 305.29L151.082 303.2C151.402 303.47 151.792 303.79 152.252 304.18C152.712 304.57 153.222 304.95 153.762 305.31C154.302 305.68 154.862 305.99 155.452 306.26C156.042 306.53 156.622 306.66 157.212 306.66C158.502 306.66 159.502 306.32 160.212 305.63C160.922 304.94 161.272 304.02 161.272 302.88V278.72H166.232V299.76L166.222 299.77Z" fill="#AE6111"/>
<path d="M176.67 278.729H181.63V308.209H176.67V278.729Z" fill="#AE6111"/>
<path d="M192.08 278.729H197.04V291.779L212.53 278.729H215.77L201.03 291.129L219.73 308.209H213.43L197.04 293.239V308.209H192.08V278.729Z" fill="#AE6111"/>
<path d="M238.43 278.06L252.3 308.22H247.27L242.76 298.38H230.13L225.47 308.22H222.98L237.2 278.06H238.42H238.43ZM231.01 296.46H241.87L236.52 284.81L231.02 296.46H231.01Z" fill="#AE6111"/>
<path d="M259.191 278.729H264.151V306.319H278.971V308.209H259.201V278.729H259.191Z" fill="#AE6111"/>
<path d="M297.991 278.06L311.861 308.22H306.831L302.321 298.38H289.691L285.031 308.22H282.541L296.761 278.06H297.981H297.991ZM290.571 296.46H301.431L296.081 284.81L290.581 296.46H290.571Z" fill="#AE6111"/>
<path d="M358.221 292.33C358.041 293.38 357.811 294.31 357.551 295.14C357.281 295.97 356.971 296.75 356.601 297.49C356.231 298.23 355.811 298.95 355.331 299.64C354.851 300.34 354.311 301.07 353.711 301.83C354.861 302.98 355.931 303.88 356.951 304.56C357.961 305.23 358.891 305.57 359.741 305.57C360.841 305.57 361.781 305.35 362.581 304.92C363.381 304.49 364.021 303.72 364.501 302.63L365.321 302.93C365.121 303.89 364.811 304.74 364.371 305.48C363.941 306.22 363.401 306.84 362.761 307.35C362.121 307.86 361.401 308.24 360.591 308.51C359.781 308.78 358.911 308.91 357.961 308.91C356.731 308.91 355.481 308.56 354.201 307.86C352.921 307.16 351.661 306.24 350.411 305.1C348.951 306.23 347.371 307.15 345.671 307.85C343.971 308.56 342.121 308.91 340.131 308.91C338.741 308.91 337.551 308.75 336.571 308.44C335.591 308.12 334.791 307.68 334.171 307.12C333.551 306.56 333.101 305.88 332.811 305.1C332.531 304.32 332.391 303.46 332.391 302.51C332.391 301.15 332.641 299.94 333.151 298.9C333.661 297.85 334.321 296.92 335.151 296.1C335.981 295.28 336.931 294.54 338.001 293.9C339.071 293.25 340.171 292.65 341.301 292.08C340.691 290.79 340.201 289.59 339.841 288.48C339.481 287.38 339.301 286.45 339.301 285.7C339.301 284.74 339.461 283.8 339.791 282.87C340.111 281.95 340.601 281.13 341.231 280.42C341.871 279.71 342.671 279.13 343.621 278.7C344.571 278.27 345.691 278.05 346.971 278.05C347.921 278.05 348.811 278.19 349.651 278.47C350.491 278.75 351.221 279.15 351.841 279.68C352.461 280.2 352.951 280.84 353.311 281.6C353.671 282.36 353.851 283.21 353.851 284.18C353.851 285.15 353.621 286.01 353.171 286.73C352.711 287.45 352.111 288.1 351.361 288.68C350.611 289.26 349.771 289.79 348.831 290.26C347.891 290.73 346.941 291.19 345.981 291.64C346.761 293.1 347.691 294.56 348.781 296.02C349.871 297.48 351.041 298.89 352.301 300.25C353.791 298.59 354.901 297.06 355.621 295.66C356.341 294.26 356.821 293.03 357.051 291.99L358.201 292.31L358.221 292.33ZM342.081 293.58C341.331 294.01 340.641 294.49 340.011 295.01C339.381 295.53 338.831 296.09 338.371 296.68C337.911 297.27 337.541 297.89 337.291 298.54C337.031 299.19 336.901 299.86 336.901 300.56C336.901 301.37 337.031 302.13 337.291 302.83C337.551 303.53 337.921 304.13 338.401 304.65C338.881 305.16 339.471 305.57 340.161 305.86C340.851 306.15 341.631 306.3 342.491 306.3C343.671 306.3 344.791 306.04 345.851 305.53C346.911 305.02 347.921 304.38 348.861 303.61C347.521 302.15 346.291 300.55 345.171 298.8C344.061 297.06 343.031 295.32 342.081 293.6V293.58ZM345.291 290.32C346.051 289.92 346.771 289.51 347.431 289.09C348.091 288.67 348.681 288.21 349.171 287.71C349.671 287.21 350.061 286.66 350.341 286.07C350.621 285.47 350.761 284.81 350.761 284.08C350.761 283.35 350.671 282.73 350.491 282.16C350.311 281.6 350.051 281.12 349.731 280.73C349.411 280.34 349.031 280.04 348.611 279.83C348.191 279.62 347.731 279.52 347.231 279.52C346.701 279.52 346.201 279.67 345.741 279.96C345.281 280.25 344.881 280.62 344.541 281.07C344.211 281.52 343.951 282.02 343.761 282.58C343.571 283.14 343.471 283.68 343.471 284.21C343.471 285.11 343.631 286.09 343.961 287.16C344.281 288.23 344.731 289.29 345.291 290.34V290.32Z" fill="#AE6111"/>
<path d="M408.541 278.729V280.619H393.001V291.179H403.381V293.069H393.001V306.319H408.541V308.209H388.051V278.729H408.541Z" fill="#AE6111"/>
<path d="M417.102 278.729H422.062V306.319H436.882V308.209H417.112V278.729H417.102Z" fill="#AE6111"/>
<path d="M444.07 278.729H449.03V306.319H463.85V308.209H444.08V278.729H444.07Z" fill="#AE6111"/>
<path d="M471.041 278.729H476.001V308.209H471.041V278.729Z" fill="#AE6111"/>
<path d="M506.941 278.729V280.619H491.401V291.179H501.781V293.069H491.401V306.319H506.941V308.209H486.451V278.729H506.941Z" fill="#AE6111"/>
<path d="M168.13 344.359L176.9 366.769L184.64 346.549L192.66 366.869L201.23 344.359H203.67L192.31 374.089H190.82L183.55 355.709L176.55 374.089H174.86L163.16 344.359H168.14H168.13Z" fill="#AE6111"/>
<path d="M230.961 344.359V346.249H215.421V356.809H225.801V358.699H215.421V371.949H230.961V373.839H210.471V344.359H230.961Z" fill="#AE6111"/>
<path d="M239.521 344.359H249.311C252.351 344.359 254.951 344.639 257.131 345.209C259.301 345.769 261.121 346.679 262.581 347.919C264.261 349.329 265.511 350.949 266.351 352.789C267.191 354.619 267.611 356.639 267.611 358.829C267.611 360.909 267.231 362.859 266.481 364.679C265.721 366.509 264.631 368.099 263.181 369.459C261.741 370.819 259.951 371.889 257.831 372.669C255.701 373.449 253.271 373.839 250.531 373.839H239.521V344.359ZM244.481 371.679H249.711C251.391 371.679 252.961 371.409 254.431 370.859C255.901 370.309 257.181 369.499 258.271 368.419C259.361 367.339 260.221 366.009 260.851 364.419C261.481 362.829 261.801 360.999 261.801 358.929C261.801 357.119 261.501 355.459 260.901 353.939C260.301 352.419 259.471 351.109 258.411 350.019C257.351 348.919 256.081 348.069 254.601 347.469C253.121 346.859 251.511 346.559 249.771 346.559H244.491V371.689L244.481 371.679Z" fill="#AE6111"/>
<path d="M276.801 344.359H286.591C289.631 344.359 292.231 344.639 294.411 345.209C296.581 345.769 298.401 346.679 299.861 347.919C301.541 349.329 302.791 350.949 303.631 352.789C304.471 354.619 304.891 356.639 304.891 358.829C304.891 360.909 304.511 362.859 303.761 364.679C303.001 366.509 301.911 368.099 300.461 369.459C299.021 370.819 297.231 371.889 295.111 372.669C292.981 373.449 290.551 373.839 287.811 373.839H276.801V344.359ZM281.761 371.679H286.991C288.671 371.679 290.241 371.409 291.711 370.859C293.181 370.309 294.461 369.499 295.551 368.419C296.641 367.339 297.501 366.009 298.131 364.419C298.761 362.829 299.081 360.999 299.081 358.929C299.081 357.119 298.781 355.459 298.181 353.939C297.581 352.419 296.751 351.109 295.691 350.019C294.631 348.919 293.361 348.069 291.881 347.469C290.401 346.859 288.791 346.559 287.051 346.559H281.771V371.689L281.761 371.679Z" fill="#AE6111"/>
<path d="M314.07 344.359H319.03V373.839H314.07V344.359Z" fill="#AE6111"/>
<path d="M329.481 344.359H332.241L351.561 365.899H351.761V344.359H353.931V374.539H352.781L331.861 350.559H331.691V373.839H329.471V344.359H329.481Z" fill="#AE6111"/>
<path d="M381.201 345.799C379.421 345.799 377.781 346.119 376.281 346.749C374.781 347.379 373.481 348.289 372.401 349.459C371.311 350.639 370.471 352.059 369.861 353.729C369.251 355.399 368.951 357.259 368.951 359.319C368.951 361.379 369.281 363.259 369.951 364.919C370.611 366.579 371.521 367.999 372.661 369.179C373.811 370.359 375.151 371.259 376.691 371.889C378.231 372.519 379.891 372.839 381.671 372.839C382.961 372.839 384.141 372.659 385.181 372.299C386.231 371.939 387.161 371.439 387.991 370.789V360.459H382.411V358.689H392.941V371.659C392.081 372.129 391.211 372.539 390.331 372.889C389.451 373.249 388.501 373.549 387.491 373.789C386.481 374.029 385.361 374.209 384.151 374.339C382.941 374.459 381.561 374.529 380.021 374.529C377.581 374.529 375.331 374.129 373.261 373.319C371.191 372.519 369.411 371.419 367.911 370.049C366.411 368.669 365.241 367.059 364.401 365.209C363.561 363.359 363.141 361.399 363.141 359.319C363.141 357.239 363.541 355.259 364.351 353.369C365.151 351.479 366.291 349.809 367.751 348.379C369.211 346.939 370.951 345.799 372.981 344.959C375.011 344.109 377.241 343.689 379.681 343.689C381.241 343.689 382.681 343.899 384.011 344.319C385.341 344.739 386.551 345.299 387.631 345.999C388.711 346.699 389.681 347.499 390.531 348.419C391.381 349.329 392.111 350.289 392.721 351.279L390.581 352.719C389.351 350.329 387.971 348.579 386.451 347.469C384.921 346.359 383.171 345.799 381.201 345.799Z" fill="#AE6111"/>
<path d="M404.031 369.859C404.361 369.859 404.681 369.919 404.981 370.049C405.281 370.169 405.541 370.339 405.751 370.549C405.971 370.759 406.141 371.009 406.261 371.299C406.381 371.589 406.451 371.889 406.451 372.209C406.451 372.539 406.391 372.849 406.261 373.129C406.141 373.409 405.961 373.659 405.751 373.859C405.531 374.069 405.281 374.229 404.981 374.359C404.681 374.479 404.371 374.549 404.031 374.549C403.691 374.549 403.381 374.489 403.081 374.359C402.781 374.239 402.521 374.069 402.311 373.859C402.091 373.649 401.921 373.409 401.801 373.129C401.681 372.849 401.611 372.539 401.611 372.209C401.611 371.879 401.671 371.589 401.801 371.299C401.921 371.009 402.101 370.759 402.311 370.549C402.531 370.339 402.781 370.179 403.081 370.049C403.381 369.929 403.691 369.859 404.031 369.859Z" fill="#AE6111"/>
</g>
<defs>
<clipPath id="clip0_1306_315">
<rect width="572.02" height="374.54" fill="white"/>
</clipPath>
</defs>
</svg>
