<svg width="881" height="298" viewBox="0 0 881 298" fill="none" xmlns="http://www.w3.org/2000/svg">
<g clip-path="url(#clip0_1309_408)">
<path d="M411.84 94.7799C401.95 94.7799 393.91 86.7399 393.91 76.8499C393.91 66.9599 401.95 58.9199 411.84 58.9199C414.07 58.9199 416.24 59.3199 418.31 60.1199C418.91 60.3499 419.21 61.0199 418.97 61.6199C418.74 62.2199 418.07 62.5199 417.47 62.2799C415.68 61.5899 413.78 61.2299 411.84 61.2299C403.23 61.2299 396.23 68.2299 396.23 76.8399C396.23 85.4499 403.23 92.4499 411.84 92.4499C420.45 92.4499 427.45 85.4499 427.45 76.8399C427.45 73.0099 426.05 69.3199 423.5 66.4599C423.07 65.9799 423.12 65.2499 423.59 64.8199C424.07 64.3899 424.8 64.4399 425.23 64.9099C428.16 68.1999 429.77 72.4299 429.77 76.8399C429.77 86.7299 421.73 94.7699 411.84 94.7699V94.7799Z" fill="white"/>
<path d="M475.301 94.7795C465.411 94.7795 457.371 86.7395 457.371 76.8495C457.371 72.3495 459.041 68.0495 462.081 64.7295C462.511 64.2595 463.251 64.2295 463.721 64.6595C464.191 65.0895 464.221 65.8295 463.791 66.2995C461.141 69.1795 459.691 72.9295 459.691 76.8495C459.691 85.4595 466.691 92.4595 475.301 92.4595C483.911 92.4595 490.911 85.4595 490.911 76.8495C490.911 71.2595 487.891 66.0595 483.031 63.2895C482.471 62.9695 482.281 62.2595 482.601 61.6995C482.921 61.1395 483.631 60.9495 484.191 61.2695C489.771 64.4595 493.241 70.4295 493.241 76.8495C493.241 86.7395 485.201 94.7795 475.311 94.7795H475.301Z" fill="white"/>
<path d="M443.66 78.0198C443.33 78.0198 443.01 77.8798 442.78 77.6198C440.84 75.3798 431.13 64.1198 430.32 62.6198C429.13 60.4298 428.4 54.9498 433.72 51.9998C438.7 49.2498 444.18 53.8598 444.42 54.0498C444.91 54.4698 444.96 55.1998 444.55 55.6898C444.13 56.1798 443.4 56.2398 442.91 55.8198C442.87 55.7798 438.41 52.0598 434.85 54.0298C430.04 56.6898 432.35 61.4598 432.37 61.5098C432.92 62.5098 440.13 70.9898 444.54 76.0898C444.96 76.5798 444.91 77.3098 444.42 77.7298C444.2 77.9198 443.93 78.0098 443.66 78.0098V78.0198Z" fill="white"/>
<path d="M443.66 78.0192C443.39 78.0192 443.12 77.9292 442.9 77.7392C442.41 77.3192 442.36 76.5892 442.78 76.0992C447.19 70.9892 454.4 62.5192 454.95 61.5092C454.97 61.4592 457.28 56.6992 452.47 54.0292C448.91 52.0592 444.45 55.7792 444.41 55.8192C443.92 56.2392 443.19 56.1792 442.77 55.6892C442.35 55.1992 442.41 54.4692 442.9 54.0492C443.13 53.8492 448.62 49.2392 453.6 51.9992C458.92 54.9392 458.18 60.4292 457 62.6192C456.19 64.1192 446.48 75.3692 444.54 77.6192C444.31 77.8892 443.99 78.0192 443.66 78.0192Z" fill="white"/>
<path d="M474.85 78.1293C474.45 78.1293 474.07 77.9293 473.85 77.5593L460.62 55.3793C460.29 54.8293 460.47 54.1193 461.02 53.7893C461.57 53.4593 462.28 53.6393 462.61 54.1893L475.84 76.3693C476.17 76.9193 475.99 77.6293 475.44 77.9593C475.25 78.0693 475.05 78.1193 474.85 78.1193V78.1293Z" fill="white"/>
<path d="M461.731 55.8294C461.351 55.8294 460.981 55.6494 460.761 55.3094C460.401 54.7794 460.551 54.0494 461.091 53.6994L469.331 48.2194C472.041 46.7794 474.141 47.0594 475.841 49.0094C476.261 49.4894 476.211 50.2294 475.731 50.6494C475.251 51.0694 474.511 51.0194 474.091 50.5394C473.271 49.5994 472.391 49.2194 470.511 50.2094L462.371 55.6294C462.171 55.7594 461.951 55.8194 461.731 55.8194V55.8294Z" fill="white"/>
<path d="M475.069 78.0196C474.689 78.0196 474.319 77.8396 474.099 77.4996C473.749 76.9596 473.899 76.2396 474.429 75.8896L485.139 68.8396C486.569 67.4196 486.479 66.4696 485.859 65.4096C485.539 64.8496 485.729 64.1396 486.279 63.8196C486.829 63.4996 487.549 63.6896 487.869 64.2396C489.159 66.4696 488.769 68.5496 486.679 70.5796C486.629 70.6296 486.569 70.6796 486.509 70.7196L475.709 77.8296C475.509 77.9596 475.289 78.0196 475.069 78.0196Z" fill="white"/>
<path d="M408.849 80.0796C407.669 80.0796 406.599 79.6196 405.749 78.9396C404.039 77.5696 403.459 74.3396 405.499 71.5096C405.869 70.9896 406.599 70.8696 407.119 71.2396C407.639 71.6096 407.759 72.3396 407.389 72.8596C405.989 74.8096 406.589 76.6296 407.209 77.1196C408.169 77.8896 409.709 78.3396 411.579 76.1096C412.549 74.9496 414.029 72.7496 416.529 68.7296C418.729 65.2096 427.189 51.3296 430.209 46.3796H420.379C417.629 46.3796 416.119 46.8496 416.039 49.3196C415.969 51.6796 418.279 52.3796 418.539 52.4496C419.159 52.6196 419.519 53.2596 419.359 53.8696C419.189 54.4896 418.569 54.8496 417.949 54.6996C416.439 54.3096 413.619 52.6596 413.719 49.2496C413.879 44.0596 418.599 44.0596 420.379 44.0596H432.279C432.699 44.0596 433.089 44.2896 433.289 44.6496C433.499 45.0196 433.489 45.4596 433.269 45.8196C433.149 46.0196 421.179 65.6596 418.499 69.9596C415.899 74.1196 414.409 76.3296 413.359 77.5996C411.859 79.3996 410.279 80.0796 408.849 80.0796Z" fill="white"/>
<path d="M468.23 67.0596C467.85 67.0596 467.48 66.8796 467.26 66.5396C466.91 65.9996 467.06 65.2796 467.59 64.9296L477.31 58.5496C477.85 58.1996 478.57 58.3496 478.92 58.8796C479.27 59.4196 479.12 60.1396 478.59 60.4896L468.87 66.8696C468.67 66.9996 468.45 67.0596 468.23 67.0596Z" fill="white"/>
<path d="M357.941 58.6199C359.381 59.2599 360.031 60.9099 359.411 62.3099C358.791 63.6899 357.171 64.3199 355.691 63.6599C354.111 62.9499 353.661 61.2999 354.241 59.9999C354.831 58.6799 356.411 57.9299 357.951 58.6199H357.941Z" fill="white"/>
<path d="M370.301 48.8396C370.761 49.1296 371.181 49.4596 371.571 49.8196C371.961 50.1796 372.261 50.5996 372.461 51.0796C372.661 51.5496 372.721 52.0896 372.651 52.6896C372.581 53.2896 372.301 53.9596 371.821 54.7196C371.551 55.1496 371.261 55.4996 370.961 55.7896C370.661 56.0796 370.351 56.3196 370.051 56.5196C369.741 56.7096 369.431 56.8696 369.121 56.9896C368.811 57.1096 368.511 57.2096 368.221 57.2896L367.741 56.0696C367.941 56.0096 368.191 55.9296 368.481 55.8496C368.771 55.7696 369.071 55.6596 369.371 55.5396C369.671 55.4096 369.951 55.2696 370.221 55.0896C370.491 54.9196 370.701 54.7096 370.861 54.4596C371.211 53.9196 371.331 53.4096 371.221 52.9296C371.111 52.4596 370.811 52.0596 370.321 51.7396L359.971 45.1296L361.291 43.0596L370.311 48.8196L370.301 48.8396Z" fill="white"/>
<path d="M367.58 34.9398L369.19 33.0898L380.48 42.9298L378.87 44.7798L367.58 34.9398Z" fill="white"/>
<path d="M376.75 25.2692L378.66 23.7392L382.81 28.9292L384.65 18.9492L385.9 17.9492L384.16 27.4192L396.79 28.4192L394.35 30.3692L383.27 29.4992L388.02 35.4392L386.11 36.9692L376.75 25.2792V25.2692Z" fill="white"/>
<path d="M397.8 10.5L410.96 20.92L408.75 22.07L404.47 18.67L398.92 21.56L399.19 27.05L398.1 27.62L397.25 10.79L397.8 10.51V10.5ZM398.86 20.5L403.63 18.02L398.54 13.98L398.86 20.5Z" fill="white"/>
<path d="M409.91 5.52004L412.25 4.79004L416.45 18.16L423.46 15.96L423.75 16.89L414.4 19.82L409.91 5.53004V5.52004Z" fill="white"/>
<path d="M432.11 0.0595703L440.74 14.4596L438.26 14.7596L435.46 10.0596L429.25 10.7996L427.56 16.0296L426.34 16.1796L431.5 0.13957L432.11 0.0695703V0.0595703ZM429.56 9.77957L434.9 9.13957L431.57 3.55957L429.56 9.76957V9.77957Z" fill="white"/>
<path d="M459.641 7.8797C459.491 8.3997 459.331 8.8597 459.151 9.2697C458.971 9.6697 458.771 10.0497 458.551 10.3997C458.331 10.7497 458.081 11.0897 457.801 11.4097C457.521 11.7297 457.211 12.0697 456.871 12.4297C457.361 13.0797 457.841 13.5997 458.301 13.9997C458.761 14.3997 459.201 14.6197 459.621 14.6697C460.171 14.7297 460.641 14.6697 461.061 14.4997C461.471 14.3297 461.831 13.9697 462.131 13.4397L462.531 13.6497C462.381 14.1297 462.171 14.5397 461.911 14.8897C461.651 15.2397 461.351 15.5197 461.011 15.7397C460.671 15.9597 460.291 16.1097 459.871 16.1997C459.451 16.2797 459.011 16.2997 458.551 16.2397C457.951 16.1697 457.361 15.9197 456.771 15.4997C456.181 15.0797 455.621 14.5397 455.081 13.8797C454.301 14.3597 453.471 14.7297 452.591 14.9897C451.711 15.2497 450.781 15.3197 449.801 15.1997C449.121 15.1197 448.541 14.9697 448.081 14.7597C447.621 14.5497 447.251 14.2797 446.981 13.9597C446.711 13.6397 446.521 13.2697 446.431 12.8597C446.331 12.4497 446.321 11.9997 446.371 11.5197C446.451 10.8397 446.651 10.2497 446.961 9.7497C447.271 9.2497 447.661 8.8197 448.121 8.4497C448.581 8.0797 449.091 7.7597 449.661 7.4997C450.221 7.2397 450.801 6.9997 451.381 6.7897C451.151 6.0997 450.981 5.4597 450.871 4.8897C450.761 4.3197 450.721 3.8397 450.771 3.4597C450.831 2.9697 450.961 2.4997 451.171 2.0497C451.381 1.5997 451.671 1.2197 452.031 0.899695C452.391 0.579695 452.821 0.339695 453.321 0.179695C453.821 0.0196953 454.381 -0.0203047 455.011 0.0496953C455.471 0.109695 455.911 0.229695 456.301 0.409695C456.691 0.599695 457.031 0.839695 457.301 1.1397C457.571 1.4397 457.781 1.7997 457.911 2.1997C458.041 2.6097 458.081 3.0497 458.021 3.5397C457.961 4.0297 457.801 4.4397 457.531 4.7797C457.261 5.1197 456.931 5.4097 456.531 5.6597C456.131 5.9097 455.691 6.1297 455.201 6.3097C454.711 6.4897 454.211 6.6697 453.711 6.8497C454.001 7.6397 454.371 8.4197 454.821 9.2197C455.271 10.0097 455.761 10.7997 456.301 11.5697C457.121 10.8197 457.751 10.1097 458.201 9.4397C458.641 8.7697 458.961 8.1797 459.141 7.6597L459.671 7.8797H459.641ZM451.651 7.5797C451.261 7.7497 450.901 7.9497 450.561 8.1797C450.221 8.4097 449.921 8.6497 449.661 8.9197C449.401 9.1897 449.191 9.4797 449.021 9.7897C448.851 10.0997 448.751 10.4397 448.711 10.7997C448.661 11.1997 448.681 11.5897 448.771 11.9597C448.861 12.3297 449.001 12.6497 449.201 12.9397C449.401 13.2297 449.661 13.4597 449.981 13.6497C450.301 13.8397 450.671 13.9597 451.101 14.0097C451.671 14.0797 452.241 14.0097 452.791 13.8097C453.341 13.6097 453.881 13.3497 454.401 13.0197C454.121 12.6097 453.851 12.1897 453.591 11.7397C453.341 11.2897 453.101 10.8397 452.871 10.3797C452.641 9.9197 452.431 9.4497 452.231 8.9697C452.031 8.4997 451.841 8.0297 451.661 7.5797H451.651ZM453.421 6.1197C453.821 5.9597 454.201 5.7997 454.551 5.6197C454.901 5.4397 455.221 5.2397 455.491 5.0197C455.761 4.7997 455.991 4.5397 456.161 4.2597C456.331 3.9697 456.441 3.6497 456.491 3.2797C456.531 2.9197 456.531 2.5997 456.471 2.2997C456.411 2.0097 456.321 1.7497 456.181 1.5397C456.051 1.3197 455.881 1.1497 455.691 1.0197C455.491 0.889695 455.281 0.809695 455.041 0.779695C454.771 0.749695 454.511 0.789695 454.271 0.909695C454.031 1.0297 453.811 1.1897 453.621 1.3997C453.431 1.6097 453.271 1.8497 453.141 2.1197C453.011 2.3897 452.931 2.6597 452.901 2.9397C452.851 3.3897 452.871 3.8897 452.961 4.4497C453.051 5.0097 453.211 5.5697 453.421 6.1297V6.1197Z" fill="white"/>
<path d="M483.581 7.86984L483.241 8.77984L476.031 6.10984L474.171 11.1298L479.001 12.9198L478.661 13.8298L473.831 12.0398L471.501 18.3298L478.711 20.9998L478.371 21.9098L468.861 18.3898L474.061 4.33984L483.571 7.85984L483.581 7.86984Z" fill="white"/>
<path d="M490.701 11.3994L492.821 12.6394L485.731 24.7194L492.061 28.4394L491.571 29.2794L483.121 24.3194L490.701 11.3994Z" fill="white"/>
<path d="M503.311 19.3994L505.221 20.9394L496.411 31.8294L502.121 36.4494L501.511 37.2094L493.891 31.0494L503.311 19.3994Z" fill="white"/>
<path d="M515.041 29.75L516.731 31.52L505.891 41.87L504.201 40.1L515.031 29.75H515.041Z" fill="white"/>
<path d="M529.121 47.6195L528.321 48.1695L523.961 41.8395L519.551 44.8795L522.471 49.1195L521.671 49.6695L518.751 45.4295L513.221 49.2395L517.581 55.5695L516.781 56.1195L511.031 47.7695L523.371 39.2695L529.121 47.6195Z" fill="white"/>
<path d="M531.291 62.8198C529.861 63.4698 528.191 62.8598 527.561 61.4598C526.941 60.0798 527.551 58.4498 529.021 57.7898C530.601 57.0798 532.141 57.8398 532.721 59.1298C533.311 60.4398 532.831 62.1198 531.291 62.8098V62.8198Z" fill="white"/>
<path d="M0 143.459H24.06C27.22 143.459 30.13 143.809 32.79 144.519C35.45 145.229 37.73 146.229 39.63 147.519C41.53 148.819 43.01 150.359 44.07 152.159C45.13 153.959 45.66 155.949 45.66 158.139C45.66 159.749 45.49 161.209 45.16 162.499C44.82 163.789 44.23 164.989 43.39 166.079C42.55 167.169 41.43 168.209 40.04 169.179C38.64 170.159 36.89 171.149 34.77 172.159V172.359C36.89 172.699 38.81 173.269 40.52 174.069C42.24 174.879 43.71 175.909 44.93 177.169C46.16 178.429 47.1 179.889 47.76 181.529C48.42 183.179 48.74 185.009 48.74 187.029C48.74 189.279 48.24 191.389 47.25 193.359C46.26 195.329 44.85 197.029 43.04 198.479C41.23 199.929 39.03 201.069 36.46 201.909C33.89 202.749 31.02 203.169 27.86 203.169H0V143.439V143.459ZM10.04 170.349H22.8C24.82 170.349 26.61 170.059 28.17 169.489C29.73 168.919 31.05 168.129 32.13 167.119C33.21 166.109 34.02 164.919 34.58 163.539C35.13 162.159 35.41 160.659 35.41 159.049C35.41 157.299 35.08 155.709 34.43 154.279C33.77 152.849 32.75 151.629 31.35 150.619C29.95 149.609 28.18 148.829 26.03 148.269C23.88 147.719 21.3 147.439 18.31 147.439H10.04V170.339V170.349ZM10.04 198.799H20.89C23.82 198.799 26.35 198.519 28.48 197.969C30.62 197.419 32.38 196.629 33.78 195.619C35.18 194.609 36.21 193.409 36.88 192.009C37.55 190.609 37.89 189.059 37.89 187.339C37.89 185.459 37.59 183.709 36.98 182.089C36.37 180.479 35.39 179.069 34.03 177.879C32.67 176.689 30.88 175.749 28.68 175.059C26.48 174.369 23.78 174.019 20.58 174.019H10.04V198.789V198.799Z" fill="white"/>
<path d="M102.01 143.459V147.289H70.5302V168.679H91.5702V172.509H70.5302V199.349H102.01V203.179H60.4902V143.449H102.01V143.459Z" fill="white"/>
<path d="M162.75 143.46V147.29H141.11V203.19H131.07V147.29H109.43V143.46H162.75Z" fill="white"/>
<path d="M221.57 143.46V147.29H199.93V203.19H189.89V147.29H168.25V143.46H221.57Z" fill="white"/>
<path d="M274.389 143.459V147.289H242.909V168.679H263.949V172.509H242.909V199.349H274.389V203.179H232.869V143.449H274.389V143.459Z" fill="white"/>
<path d="M287.6 143.46H308.23C311.83 143.46 314.98 143.85 317.69 144.62C320.4 145.4 322.66 146.47 324.48 147.85C326.3 149.23 327.66 150.88 328.57 152.79C329.48 154.71 329.93 156.79 329.93 159.05C329.93 160.9 329.58 162.63 328.87 164.25C328.16 165.87 327.16 167.32 325.87 168.61C324.58 169.9 323.03 171.03 321.23 171.99C319.43 172.95 317.45 173.68 315.3 174.19L337.04 203.2H325.39L304.66 175.1H297.65V203.2H287.61V143.47L287.6 143.46ZM297.64 172.12H303.39C305.64 172.12 307.73 171.83 309.65 171.24C311.57 170.65 313.22 169.8 314.62 168.69C316.02 167.58 317.11 166.24 317.9 164.65C318.69 163.07 319.09 161.3 319.09 159.35C319.09 157.57 318.78 155.94 318.16 154.46C317.54 152.98 316.67 151.7 315.56 150.63C314.45 149.55 313.12 148.71 311.57 148.11C310.02 147.5 308.32 147.2 306.47 147.2H297.64V172.12Z" fill="white"/>
<path d="M415.791 143.46V147.29H394.151V203.19H384.111V147.29H362.471V143.46H415.791Z" fill="white"/>
<path d="M454.729 204.609C451.639 204.609 448.679 204.229 445.849 203.479C443.019 202.719 440.389 201.659 437.949 200.279C435.509 198.899 433.289 197.249 431.289 195.339C429.289 193.419 427.589 191.289 426.189 188.929C424.789 186.579 423.709 184.049 422.939 181.359C422.169 178.669 421.779 175.879 421.779 172.989C421.779 170.099 422.169 167.389 422.939 164.769C423.709 162.149 424.799 159.689 426.189 157.399C427.589 155.109 429.279 153.029 431.289 151.149C433.289 149.269 435.509 147.659 437.949 146.329C440.389 144.999 443.019 143.969 445.849 143.229C448.679 142.489 451.629 142.119 454.729 142.119C459.369 142.119 463.689 142.929 467.699 144.539C471.699 146.149 475.169 148.359 478.119 151.149C481.059 153.939 483.379 157.209 485.079 160.959C486.779 164.709 487.629 168.719 487.629 172.989C487.629 175.879 487.239 178.669 486.469 181.359C485.699 184.049 484.609 186.569 483.219 188.929C481.819 191.289 480.129 193.419 478.149 195.339C476.169 197.259 473.949 198.909 471.519 200.279C469.089 201.649 466.449 202.729 463.619 203.479C460.789 204.239 457.829 204.609 454.739 204.609H454.729ZM454.729 201.629C458.129 201.629 461.139 200.919 463.759 199.489C466.379 198.059 468.589 196.069 470.389 193.509C472.189 190.949 473.549 187.929 474.479 184.429C475.399 180.929 475.869 177.119 475.869 172.979C475.869 168.839 475.409 165.119 474.479 161.699C473.549 158.289 472.189 155.339 470.389 152.869C468.589 150.399 466.379 148.469 463.759 147.089C461.139 145.709 458.129 145.019 454.729 145.019C451.329 145.019 448.159 145.709 445.519 147.089C442.879 148.469 440.669 150.389 438.889 152.869C437.109 155.339 435.769 158.289 434.879 161.699C433.989 165.109 433.539 168.869 433.539 172.979C433.539 177.089 433.989 180.929 434.879 184.429C435.769 187.929 437.109 190.959 438.889 193.509C440.669 196.069 442.879 198.059 445.519 199.489C448.159 200.919 451.229 201.629 454.729 201.629Z" fill="white"/>
<path d="M536.16 146.389C532.56 146.389 529.24 147.029 526.2 148.309C523.16 149.589 520.53 151.419 518.33 153.809C516.13 156.199 514.41 159.079 513.18 162.459C511.95 165.839 511.34 169.619 511.34 173.789C511.34 177.959 512.01 181.779 513.36 185.139C514.7 188.499 516.54 191.379 518.86 193.769C521.18 196.159 523.91 197.989 527.03 199.269C530.16 200.549 533.52 201.189 537.12 201.189C539.74 201.189 542.11 200.829 544.23 200.099C546.35 199.379 548.25 198.359 549.93 197.049V176.109H538.63V172.529H559.97V198.819C558.22 199.759 556.45 200.589 554.67 201.319C552.89 202.039 550.97 202.649 548.92 203.139C546.87 203.629 544.61 203.999 542.16 204.249C539.7 204.499 536.91 204.629 533.78 204.629C528.84 204.629 524.27 203.809 520.08 202.179C515.89 200.549 512.28 198.339 509.23 195.549C506.19 192.759 503.81 189.489 502.12 185.739C500.42 181.989 499.57 178.009 499.57 173.809C499.57 169.609 500.39 165.589 502.02 161.749C503.65 157.919 505.95 154.539 508.91 151.629C511.87 148.719 515.4 146.409 519.5 144.689C523.6 142.979 528.13 142.119 533.07 142.119C536.23 142.119 539.16 142.549 541.85 143.409C544.54 144.269 546.99 145.399 549.19 146.819C551.39 148.229 553.35 149.869 555.07 151.709C556.78 153.559 558.26 155.489 559.51 157.509L555.17 160.439C552.68 155.599 549.89 152.049 546.8 149.799C543.71 147.549 540.16 146.419 536.16 146.419V146.389Z" fill="white"/>
<path d="M617.481 143.459V147.289H586.001V168.679H607.041V172.509H586.001V199.349H617.481V203.179H575.961V143.449H617.481V143.459Z" fill="white"/>
<path d="M678.22 143.46V147.29H656.58V203.19H646.54V147.29H624.9V143.46H678.22Z" fill="white"/>
<path d="M699.56 174.54V203.2H689.52V143.47H699.56V170.71H729.58V143.47H739.62V203.2H729.58V174.54H699.56Z" fill="white"/>
<path d="M798.18 143.459V147.289H766.7V168.679H787.74V172.509H766.7V199.349H798.18V203.179H756.66V143.449H798.18V143.459Z" fill="white"/>
<path d="M811.4 143.46H832.03C835.63 143.46 838.78 143.85 841.49 144.62C844.2 145.4 846.46 146.47 848.28 147.85C850.1 149.23 851.46 150.88 852.37 152.79C853.28 154.71 853.73 156.79 853.73 159.05C853.73 160.9 853.38 162.63 852.67 164.25C851.96 165.87 850.96 167.32 849.67 168.61C848.37 169.9 846.83 171.03 845.03 171.99C843.23 172.95 841.25 173.68 839.1 174.19L860.84 203.2H849.19L828.46 175.1H821.45V203.2H811.41V143.47L811.4 143.46ZM821.44 172.12H827.19C829.44 172.12 831.53 171.83 833.45 171.24C835.37 170.65 837.02 169.8 838.42 168.69C839.81 167.58 840.91 166.24 841.7 164.65C842.49 163.07 842.89 161.3 842.89 159.35C842.89 157.57 842.58 155.94 841.96 154.46C841.34 152.98 840.47 151.7 839.36 150.63C838.25 149.55 836.92 148.71 835.37 148.11C833.82 147.5 832.12 147.2 830.27 147.2H821.44V172.12Z" fill="white"/>
<path d="M874.26 187.91C874.13 184.61 873.86 181.28 873.45 177.9C873.05 174.52 872.62 171.17 872.16 167.86C871.7 164.55 871.3 161.31 870.95 158.15C870.6 154.99 870.42 151.99 870.42 149.17C870.42 148.06 870.57 147.07 870.87 146.19C871.17 145.32 871.57 144.58 872.06 143.97C872.55 143.36 873.1 142.9 873.72 142.58C874.34 142.26 874.99 142.1 875.66 142.1C877.17 142.1 878.43 142.72 879.44 143.97C880.45 145.22 880.95 146.95 880.95 149.17C880.95 152 880.76 154.99 880.39 158.15C880.02 161.31 879.61 164.55 879.15 167.86C878.69 171.17 878.26 174.52 877.84 177.9C877.42 181.28 877.14 184.62 877.01 187.91H874.24H874.26ZM875.67 195.12C876.34 195.12 876.98 195.25 877.59 195.5C878.2 195.75 878.72 196.09 879.15 196.51C879.59 196.93 879.93 197.43 880.18 198.02C880.43 198.61 880.56 199.22 880.56 199.86C880.56 200.53 880.43 201.15 880.18 201.73C879.93 202.3 879.58 202.8 879.15 203.22C878.71 203.64 878.19 203.98 877.59 204.23C876.98 204.48 876.35 204.61 875.67 204.61C874.99 204.61 874.36 204.49 873.75 204.23C873.14 203.98 872.62 203.64 872.19 203.22C871.75 202.8 871.41 202.3 871.16 201.73C870.91 201.16 870.78 200.54 870.78 199.86C870.78 199.22 870.91 198.61 871.16 198.02C871.41 197.43 871.76 196.93 872.19 196.51C872.63 196.09 873.15 195.75 873.75 195.5C874.36 195.25 874.99 195.12 875.67 195.12Z" fill="white"/>
<path d="M216.661 291.38C216.661 291.5 216.711 291.57 216.811 291.57H229.911C230.281 291.57 230.601 291.69 230.861 291.94C231.121 292.19 231.251 292.5 231.251 292.87V294.69C231.251 295.06 231.121 295.37 230.861 295.62C230.601 295.87 230.281 295.99 229.911 295.99H198.551C198.181 295.99 197.861 295.87 197.601 295.62C197.341 295.37 197.211 295.06 197.211 294.69V292.87C197.211 292.5 197.341 292.19 197.601 291.94C197.861 291.69 198.181 291.57 198.551 291.57H211.501C211.601 291.57 211.651 291.51 211.651 291.38V284.37C211.651 284.27 211.601 284.22 211.501 284.22H202.151C201.781 284.22 201.471 284.09 201.221 283.83C200.971 283.57 200.851 283.25 200.851 282.88V281.17C200.851 280.8 200.971 280.48 201.221 280.22C201.471 279.96 201.781 279.83 202.151 279.83H211.501C211.601 279.83 211.651 279.78 211.651 279.68V273.41C211.651 273.31 211.601 273.26 211.501 273.26H200.141C199.771 273.26 199.451 273.13 199.191 272.87C198.931 272.61 198.801 272.29 198.801 271.92V270.18C198.801 269.81 198.931 269.49 199.191 269.23C199.451 268.97 199.771 268.84 200.141 268.84H213.831C213.831 268.84 213.911 268.83 213.921 268.8C213.931 268.78 213.921 268.75 213.901 268.73C212.791 267.69 211.281 266.44 209.371 264.98C209.101 264.81 208.971 264.55 208.981 264.22C208.991 263.89 209.121 263.63 209.371 263.46L210.971 262.38C211.341 262.11 211.701 261.97 212.051 261.97C212.421 261.97 212.781 262.09 213.131 262.34C215.281 263.8 217.041 265.16 218.401 266.42C218.651 266.67 218.761 266.96 218.731 267.31C218.711 267.66 218.561 267.93 218.281 268.13L217.461 268.76C217.461 268.76 217.421 268.77 217.421 268.8C217.421 268.83 217.441 268.84 217.491 268.84H228.031C228.401 268.84 228.721 268.97 228.981 269.23C229.241 269.49 229.371 269.81 229.371 270.18V271.92C229.371 272.29 229.241 272.61 228.981 272.87C228.721 273.13 228.401 273.26 228.031 273.26H216.791C216.691 273.26 216.641 273.31 216.641 273.41V279.68C216.641 279.78 216.691 279.83 216.791 279.83H226.221C226.591 279.83 226.901 279.96 227.151 280.22C227.401 280.48 227.521 280.8 227.521 281.17V282.88C227.521 283.25 227.401 283.57 227.151 283.83C226.901 284.09 226.591 284.22 226.221 284.22H216.791C216.691 284.22 216.641 284.27 216.641 284.37V291.38H216.661Z" fill="white"/>
<path d="M273.731 282.14C274.101 282.14 274.401 282.27 274.641 282.53C274.881 282.79 274.981 283.09 274.961 283.44V283.85C274.611 287.56 274.261 290.3 273.901 292.07C273.541 293.84 273.061 295.02 272.471 295.61C271.781 296.4 270.821 296.87 269.611 297.02C268.941 297.09 268.081 297.13 267.011 297.13H266.421C266.051 297.13 265.731 297 265.461 296.74C265.191 296.48 265.001 296.16 264.901 295.79C264.801 295.25 264.651 294.73 264.451 294.23C264.351 293.98 264.381 293.74 264.541 293.51C264.701 293.27 264.921 293.17 265.191 293.19C265.861 293.24 266.651 293.26 267.571 293.26C268.091 293.26 268.511 293.11 268.831 292.81C269.451 292.19 269.961 289.97 270.351 286.13C270.371 286.03 270.331 285.98 270.201 285.98H247.931C247.811 285.98 247.711 286.02 247.631 286.09C247.161 286.41 246.601 286.78 245.961 287.2C245.941 287.2 245.921 287.22 245.921 287.26C245.921 287.3 245.931 287.32 245.961 287.32L248.041 287.99C248.391 288.09 248.651 288.31 248.841 288.64C249.031 288.97 249.071 289.31 248.971 289.66C248.201 292.38 247.141 294.51 245.781 296.04C245.531 296.34 245.211 296.5 244.821 296.54C244.431 296.58 244.071 296.48 243.741 296.26L242.401 295.44C242.131 295.24 241.981 294.98 241.951 294.66C241.931 294.34 242.021 294.05 242.251 293.81C243.711 292.2 244.751 290.16 245.371 287.69C245.371 287.67 245.361 287.65 245.331 287.63C245.301 287.61 245.281 287.61 245.261 287.61C244.841 287.88 244.341 288.17 243.781 288.46C243.461 288.63 243.121 288.66 242.781 288.55C242.431 288.44 242.171 288.22 242.001 287.9C241.681 287.33 241.341 286.78 241.001 286.23C240.881 286.03 240.811 285.82 240.811 285.6C240.811 285.5 240.821 285.4 240.851 285.3C240.921 284.95 241.121 284.71 241.441 284.56C246.711 281.86 251.131 277.76 254.691 272.24C254.761 272.14 254.741 272.09 254.621 272.09H243.931C243.561 272.09 243.241 271.96 242.981 271.7C242.721 271.44 242.591 271.14 242.591 270.79V269.45C242.591 269.1 242.721 268.8 242.981 268.54C243.241 268.28 243.561 268.15 243.931 268.15H248.831C248.931 268.15 248.971 268.1 248.941 268C248.471 266.84 247.901 265.65 247.231 264.44C247.081 264.14 247.061 263.83 247.171 263.51C247.281 263.19 247.501 262.97 247.821 262.84L249.271 262.28C249.621 262.13 249.981 262.11 250.351 262.22C250.721 262.33 251.011 262.55 251.201 262.87C251.891 263.98 252.471 265.06 252.941 266.1C253.091 266.45 253.091 266.79 252.941 267.12C252.791 267.45 252.541 267.7 252.201 267.84L251.681 268.06C251.681 268.06 251.661 268.09 251.681 268.13H256.881C256.981 268.13 257.051 268.08 257.101 267.98C257.941 266.3 258.661 264.59 259.251 262.86C259.371 262.51 259.601 262.25 259.921 262.08C260.121 261.98 260.331 261.93 260.551 261.93C260.671 261.93 260.801 261.94 260.921 261.97L262.921 262.53C263.241 262.63 263.491 262.83 263.661 263.14C263.831 263.45 263.851 263.78 263.701 264.12C263.201 265.43 262.661 266.72 262.071 267.98C262.021 268.08 262.061 268.13 262.181 268.13H268.151C268.501 268.13 268.771 268.26 268.981 268.52C269.191 268.78 269.271 269.08 269.221 269.43C268.921 271.01 268.531 272.84 268.031 274.92C268.011 275.02 268.051 275.07 268.181 275.07H271.001C271.351 275.07 271.631 275.2 271.851 275.46C272.071 275.72 272.151 276.02 272.071 276.37C271.651 278.75 271.291 280.59 270.991 281.9C270.971 282.02 271.011 282.09 271.141 282.09H273.701L273.731 282.14ZM250.911 290.08C250.841 289.73 250.901 289.42 251.101 289.13C251.301 288.85 251.571 288.68 251.921 288.63L252.961 288.52C253.361 288.47 253.711 288.55 254.021 288.76C254.331 288.97 254.521 289.26 254.601 289.63C254.971 291.14 255.191 292.6 255.271 294.01C255.291 294.41 255.181 294.74 254.941 295.01C254.691 295.28 254.381 295.44 254.011 295.49L252.711 295.68C252.361 295.73 252.071 295.64 251.821 295.4C251.571 295.16 251.441 294.87 251.411 294.53C251.391 293.1 251.221 291.61 250.931 290.08H250.911ZM267.531 279.21C267.551 279.11 267.511 279.06 267.381 279.06H255.391C255.271 279.06 255.171 279.1 255.091 279.17C254.271 280.16 253.411 281.1 252.491 281.99C252.471 282.02 252.461 282.05 252.471 282.08C252.481 282.12 252.501 282.14 252.531 282.14H266.711C266.811 282.14 266.881 282.08 266.931 281.95C267.081 281.28 267.281 280.37 267.521 279.2L267.531 279.21ZM256.811 289.67C256.691 289.35 256.711 289.03 256.881 288.72C257.051 288.41 257.311 288.22 257.661 288.14L258.591 287.95C258.961 287.85 259.321 287.89 259.671 288.08C260.021 288.27 260.251 288.53 260.381 288.88C260.831 290.12 261.181 291.33 261.461 292.52C261.561 292.89 261.501 293.23 261.291 293.54C261.081 293.85 260.801 294.05 260.461 294.15L259.381 294.41C259.061 294.48 258.751 294.43 258.451 294.24C258.151 294.05 257.971 293.79 257.891 293.44C257.641 292.28 257.281 291.02 256.811 289.65V289.67ZM264.571 272.3C264.591 272.18 264.561 272.11 264.461 272.11H260.161C260.041 272.11 259.951 272.16 259.901 272.26C259.401 273.13 258.851 274.03 258.231 274.97C258.181 275.07 258.211 275.12 258.301 275.12H263.791C263.911 275.12 263.991 275.07 264.011 274.97C264.231 274.05 264.421 273.16 264.571 272.3ZM267.091 290.34C267.161 290.49 267.201 290.65 267.201 290.82C267.201 290.99 267.151 291.17 267.051 291.34C266.901 291.66 266.641 291.88 266.271 292.01L265.421 292.34C265.301 292.37 265.161 292.38 265.011 292.38C264.841 292.38 264.651 292.34 264.451 292.27C264.131 292.1 263.911 291.84 263.781 291.49C263.461 290.62 263.061 289.72 262.591 288.78C262.491 288.61 262.441 288.43 262.441 288.26C262.441 288.14 262.461 288 262.511 287.85C262.631 287.53 262.861 287.32 263.181 287.22L263.811 287C263.981 286.93 264.161 286.89 264.351 286.89C264.541 286.89 264.721 286.93 264.891 287C265.261 287.12 265.551 287.35 265.741 287.67C266.281 288.61 266.731 289.5 267.081 290.34H267.091Z" fill="white"/>
<path d="M296.21 291.97C296.41 292.22 296.51 292.5 296.51 292.82C296.51 293.24 296.36 293.59 296.06 293.86L293.98 295.64C293.73 295.84 293.46 295.94 293.16 295.94H293.01C292.66 295.91 292.37 295.75 292.12 295.46C290.14 293.16 288.04 291 285.81 288.97C285.54 288.72 285.4 288.43 285.4 288.08C285.4 287.73 285.54 287.45 285.81 287.23L287.78 285.52C288.05 285.27 288.39 285.15 288.78 285.15C289.15 285.15 289.47 285.27 289.74 285.52C291.94 287.45 294.09 289.6 296.2 291.98L296.21 291.97Z" fill="white"/>
<path d="M337.961 272.64C337.861 272.64 337.811 272.69 337.811 272.79V276.83C337.811 277.84 337.911 278.96 338.111 280.17C338.311 281.38 338.641 282.73 339.091 284.21C339.541 285.69 340.251 287.18 341.191 288.66C342.131 290.14 343.231 291.43 344.491 292.52C344.791 292.74 344.961 293.03 345.011 293.39C345.061 293.75 344.971 294.08 344.751 294.37C344.331 294.96 343.921 295.57 343.531 296.19C343.331 296.49 343.071 296.67 342.751 296.75H342.491C342.241 296.75 342.021 296.66 341.821 296.49C340.091 295.01 338.701 293.13 337.651 290.85C336.601 288.57 335.921 286.47 335.631 284.54H335.561C335.241 286.45 334.471 288.54 333.261 290.81C332.051 293.09 330.461 294.99 328.511 296.52C328.311 296.67 328.091 296.74 327.841 296.74C327.741 296.74 327.651 296.73 327.581 296.7C327.231 296.63 326.961 296.44 326.761 296.14C326.391 295.57 326.031 295.04 325.681 294.54C325.461 294.27 325.371 293.96 325.421 293.61C325.471 293.26 325.631 292.98 325.901 292.76C327.361 291.67 328.611 290.38 329.651 288.88C330.691 287.38 331.461 285.87 331.971 284.35C332.481 282.83 332.841 281.46 333.051 280.23C333.261 279.01 333.371 277.86 333.371 276.8V272.76C333.371 272.66 333.311 272.61 333.181 272.61H332.221C332.121 272.61 332.061 272.66 332.031 272.76C331.311 275.16 330.481 277.21 329.541 278.92C329.391 279.22 329.141 279.39 328.801 279.44C328.451 279.49 328.141 279.42 327.871 279.22C326.981 278.5 326.191 277.92 325.491 277.48C325.271 277.33 325.231 277.15 325.381 276.92C325.381 276.9 325.371 276.88 325.341 276.88H324.561C324.441 276.88 324.371 276.94 324.371 277.07V294.73C324.371 295.1 324.241 295.41 323.981 295.66C323.721 295.91 323.421 296.03 323.071 296.03H321.361C320.991 296.03 320.671 295.91 320.411 295.66C320.151 295.41 320.021 295.1 320.021 294.73V277.07C320.021 276.95 319.971 276.88 319.871 276.88H316.311C316.211 276.88 316.161 276.94 316.161 277.07V277.78C316.161 285.45 315.151 291.28 313.121 295.26C312.971 295.53 312.741 295.68 312.431 295.71C312.121 295.73 311.851 295.62 311.631 295.38C311.181 294.93 310.731 294.53 310.261 294.16C309.961 293.94 309.761 293.65 309.671 293.31C309.651 293.16 309.631 293.01 309.631 292.86C309.631 292.66 309.671 292.46 309.741 292.27C310.631 290.29 311.221 288.1 311.501 285.7C311.781 283.3 311.931 280.64 311.931 277.72V265.14C311.931 264.79 312.071 264.52 312.341 264.32C312.611 264.12 312.901 264.07 313.191 264.17L315.601 264.8C315.721 264.85 315.841 264.85 315.931 264.8C318.651 264.01 320.981 263.17 322.911 262.28C323.231 262.13 323.541 262.06 323.841 262.06C324.291 262.06 324.691 262.22 325.061 262.54L326.661 263.99C326.881 264.19 326.971 264.44 326.921 264.75C326.871 265.06 326.711 265.28 326.441 265.4C323.671 266.54 320.291 267.55 316.311 268.44C316.211 268.47 316.161 268.53 316.161 268.63V272.6C316.161 272.72 316.211 272.79 316.311 272.79H327.261C327.261 272.79 327.331 272.8 327.331 272.83C328.291 270.18 329.011 266.94 329.481 263.11C329.531 262.76 329.701 262.48 330.001 262.26C330.221 262.09 330.471 262 330.741 262H330.961L332.821 262.3C333.191 262.35 333.491 262.52 333.711 262.82C333.931 263.12 334.011 263.44 333.931 263.78C333.711 265.41 333.431 266.95 333.111 268.38C333.091 268.48 333.121 268.53 333.221 268.53H341.421C341.421 268.53 341.521 268.52 341.571 268.49C341.771 268.44 341.971 268.42 342.161 268.42C342.351 268.42 342.571 268.46 342.791 268.53L343.901 268.86C344.271 268.98 344.561 269.21 344.751 269.53C344.921 269.78 345.011 270.04 345.011 270.31C345.011 270.38 345.001 270.47 344.971 270.57C344.471 273.74 343.871 276.46 343.151 278.73C343.051 279.05 342.841 279.28 342.521 279.42C342.201 279.56 341.881 279.55 341.561 279.4L340.601 278.95C340.251 278.78 340.001 278.52 339.841 278.17C339.681 277.82 339.641 277.46 339.711 277.09C340.011 275.8 340.251 274.37 340.451 272.79C340.451 272.69 340.401 272.64 340.301 272.64H337.921H337.961Z" fill="white"/>
<path d="M381.111 291.82C381.111 291.94 381.171 292.01 381.301 292.01H387.461C387.831 292.01 388.151 292.14 388.411 292.4C388.671 292.66 388.801 292.96 388.801 293.31V294.79C388.801 295.16 388.671 295.47 388.411 295.72C388.151 295.97 387.831 296.09 387.461 296.09H355.731C355.361 296.09 355.041 295.97 354.781 295.72C354.521 295.47 354.391 295.16 354.391 294.79V293.31C354.391 292.96 354.521 292.66 354.781 292.4C355.041 292.14 355.361 292.01 355.731 292.01H361.481C361.601 292.01 361.671 291.95 361.671 291.82V273.71C361.671 273.34 361.801 273.02 362.061 272.76C362.321 272.5 362.621 272.37 362.971 272.37H379.821C380.171 272.37 380.471 272.5 380.731 272.76C380.991 273.02 381.121 273.34 381.121 273.71V291.82H381.111ZM359.921 269.48C359.821 269.48 359.771 269.53 359.771 269.63V273.04C359.771 273.41 359.641 273.73 359.381 273.99C359.121 274.25 358.801 274.38 358.431 274.38H356.611C356.261 274.38 355.961 274.25 355.701 273.99C355.441 273.73 355.311 273.41 355.311 273.04V266.73C355.311 266.36 355.441 266.04 355.701 265.78C355.961 265.52 356.261 265.39 356.611 265.39H368.861C368.961 265.39 369.011 265.34 369.011 265.24V262.98C369.011 262.61 369.141 262.3 369.401 262.05C369.661 261.8 369.981 261.68 370.351 261.68H372.351C372.721 261.68 373.031 261.8 373.281 262.05C373.531 262.3 373.651 262.61 373.651 262.98V265.24C373.651 265.34 373.711 265.39 373.841 265.39H386.461C386.831 265.39 387.141 265.52 387.391 265.78C387.641 266.04 387.761 266.36 387.761 266.73V273.04C387.761 273.41 387.641 273.73 387.391 273.99C387.141 274.25 386.831 274.38 386.461 274.38H384.461C384.091 274.38 383.771 274.25 383.511 273.99C383.251 273.73 383.121 273.41 383.121 273.04V269.63C383.121 269.53 383.071 269.48 382.971 269.48H359.931H359.921ZM376.541 276.46C376.541 276.36 376.491 276.31 376.391 276.31H366.151C366.051 276.31 366.001 276.36 366.001 276.46V278.84C366.001 278.96 366.051 279.03 366.151 279.03H376.391C376.491 279.03 376.541 278.97 376.541 278.84V276.46ZM376.391 285.48C376.491 285.48 376.541 285.42 376.541 285.29V282.84C376.541 282.74 376.491 282.69 376.391 282.69H366.151C366.051 282.69 366.001 282.74 366.001 282.84V285.29C366.001 285.41 366.051 285.48 366.151 285.48H376.391ZM366.151 289.15C366.051 289.15 366.001 289.21 366.001 289.34V291.83C366.001 291.95 366.051 292.02 366.151 292.02H376.391C376.491 292.02 376.541 291.96 376.541 291.83V289.34C376.541 289.22 376.491 289.15 376.391 289.15H366.151Z" fill="white"/>
<path d="M409.011 267.96C409.381 267.96 409.701 268.08 409.961 268.33C410.221 268.58 410.351 268.89 410.351 269.26V270.19C410.351 270.56 410.221 270.88 409.961 271.14C409.701 271.4 409.381 271.53 409.011 271.53H399.101C398.751 271.53 398.451 271.4 398.191 271.14C397.931 270.88 397.801 270.56 397.801 270.19V269.26C397.801 268.89 397.931 268.58 398.191 268.33C398.451 268.08 398.751 267.96 399.101 267.96H409.011ZM428.901 275.79C428.971 275.47 429.171 275.23 429.481 275.07C429.791 274.91 430.091 274.9 430.391 275.05L431.651 275.57C432.001 275.72 432.261 275.96 432.431 276.29C432.601 276.62 432.641 276.98 432.541 277.35C431.401 281.36 429.921 284.98 428.091 288.22C428.041 288.32 428.031 288.42 428.051 288.52C428.521 290.8 429.091 291.97 429.761 292.05C430.211 292.05 430.551 290.76 430.801 288.19C430.821 287.94 430.951 287.78 431.191 287.69C431.421 287.6 431.641 287.63 431.841 287.78C432.111 288 432.421 288.24 432.771 288.49C433.391 288.94 433.701 289.48 433.701 290.12C433.701 290.24 433.691 290.37 433.661 290.49C432.841 294.94 431.521 297.17 429.691 297.17H429.651C427.791 297.1 426.351 295.61 425.311 292.72C425.281 292.7 425.251 292.68 425.221 292.68C425.191 292.68 425.151 292.69 425.131 292.72C424.171 293.98 423.111 295.13 421.981 296.17C421.711 296.42 421.391 296.54 421.021 296.52C420.651 296.5 420.331 296.38 420.061 296.13C419.791 295.91 419.521 295.7 419.261 295.5C419.001 295.3 418.861 295.04 418.851 294.7C418.841 294.37 418.951 294.1 419.201 293.9C420.931 292.34 422.531 290.39 423.991 288.04C424.041 287.94 424.061 287.84 424.061 287.74C423.441 284.18 423.011 279.11 422.761 272.53C422.761 272.41 422.701 272.34 422.571 272.34H415.851C415.731 272.34 415.661 272.4 415.661 272.53V276.24C415.661 276.36 415.721 276.43 415.851 276.43H420.821C421.171 276.43 421.471 276.56 421.731 276.82C421.991 277.08 422.121 277.38 422.121 277.73V277.92C422.051 282.18 421.951 285.13 421.821 286.79C421.701 288.45 421.461 289.52 421.121 290.02C420.601 290.76 419.911 291.2 419.041 291.32C418.571 291.42 417.961 291.48 417.221 291.51C416.851 291.54 416.531 291.42 416.261 291.16C415.991 290.9 415.831 290.58 415.781 290.21C415.631 289.34 415.411 288.58 415.111 287.91C415.111 287.89 415.101 287.88 415.071 287.89C415.041 287.9 415.031 287.92 415.031 287.95C414.561 291.19 413.831 293.91 412.841 296.11C412.691 296.41 412.461 296.58 412.151 296.63C411.841 296.68 411.561 296.59 411.311 296.37C410.621 295.75 409.971 295.24 409.381 294.85C409.351 294.85 409.341 294.86 409.341 294.89C409.341 295.06 409.251 295.15 409.081 295.15H402.881C402.781 295.15 402.731 295.2 402.731 295.3V295.34C402.731 295.71 402.601 296.03 402.341 296.29C402.081 296.55 401.761 296.68 401.391 296.68H400.541C400.171 296.68 399.861 296.55 399.611 296.29C399.361 296.03 399.241 295.71 399.241 295.34V285.02C399.241 284.65 399.361 284.34 399.611 284.09C399.861 283.84 400.171 283.72 400.541 283.72H408.041C408.391 283.72 408.691 283.84 408.951 284.09C409.211 284.34 409.341 284.65 409.341 285.02V293.56C409.341 293.56 409.361 293.6 409.411 293.6C410.031 292.14 410.501 290.41 410.841 288.42C411.181 286.43 411.371 284.71 411.431 283.26C411.491 281.81 411.521 280.12 411.521 278.19V269.65C411.521 269.3 411.651 269 411.911 268.74C412.171 268.48 412.491 268.35 412.861 268.35H422.431C422.531 268.35 422.581 268.29 422.581 268.16C422.551 266.5 422.531 264.8 422.511 263.04C422.511 262.69 422.631 262.39 422.881 262.13C423.131 261.87 423.441 261.74 423.811 261.74H425.111C425.481 261.74 425.801 261.86 426.061 262.11C426.321 262.36 426.451 262.67 426.451 263.04C426.451 265.17 426.461 266.87 426.491 268.16C426.491 268.28 426.541 268.35 426.641 268.35H431.801C432.151 268.35 432.451 268.48 432.711 268.74C432.971 269 433.101 269.3 433.101 269.65V271.06C433.101 271.43 432.971 271.74 432.711 271.99C432.451 272.24 432.151 272.36 431.801 272.36H426.721C426.621 272.36 426.571 272.42 426.571 272.55C426.671 275.64 426.841 278.62 427.091 281.49C427.091 281.52 427.101 281.53 427.131 281.53C427.161 281.53 427.171 281.52 427.171 281.49C427.861 279.63 428.441 277.74 428.911 275.81L428.901 275.79ZM408.121 273.23C408.471 273.23 408.771 273.36 409.031 273.62C409.291 273.88 409.421 274.18 409.421 274.53V275.38C409.421 275.73 409.291 276.03 409.031 276.29C408.771 276.55 408.471 276.68 408.121 276.68H400.661C400.311 276.68 400.011 276.55 399.751 276.29C399.491 276.03 399.361 275.73 399.361 275.38V274.53C399.361 274.18 399.491 273.88 399.751 273.62C400.011 273.36 400.311 273.23 400.661 273.23H408.121ZM400.661 281.8C400.311 281.8 400.011 281.68 399.751 281.43C399.491 281.18 399.361 280.87 399.361 280.5V279.76C399.361 279.39 399.491 279.07 399.751 278.81C400.011 278.55 400.311 278.42 400.661 278.42H408.121C408.471 278.42 408.771 278.55 409.031 278.81C409.291 279.07 409.421 279.39 409.421 279.76V280.5C409.421 280.87 409.291 281.18 409.031 281.43C408.771 281.68 408.471 281.8 408.121 281.8H400.661ZM408.011 262.84C408.361 262.84 408.661 262.97 408.921 263.23C409.181 263.49 409.311 263.81 409.311 264.18V264.96C409.311 265.33 409.181 265.65 408.921 265.91C408.661 266.17 408.361 266.3 408.011 266.3H400.891C400.541 266.3 400.241 266.17 399.981 265.91C399.721 265.65 399.591 265.33 399.591 264.96V264.18C399.591 263.81 399.721 263.49 399.981 263.23C400.241 262.97 400.541 262.84 400.891 262.84H408.011ZM405.561 291.6C405.681 291.6 405.751 291.54 405.751 291.41V287.37C405.751 287.27 405.691 287.22 405.561 287.22H402.891C402.791 287.22 402.741 287.27 402.741 287.37V291.41C402.741 291.53 402.791 291.6 402.891 291.6H405.561ZM418.331 280.28C418.331 280.16 418.271 280.09 418.141 280.09H415.801C415.681 280.09 415.611 280.15 415.611 280.28C415.561 282.75 415.391 285.09 415.091 287.29C415.091 287.41 415.141 287.48 415.241 287.48C415.761 287.53 416.331 287.55 416.951 287.55C417.351 287.55 417.631 287.4 417.801 287.1C418.051 286.73 418.221 284.45 418.321 280.27L418.331 280.28ZM432.651 265.32C432.851 265.62 432.901 265.94 432.801 266.3C432.701 266.66 432.491 266.92 432.171 267.1L431.351 267.55C431.051 267.72 430.731 267.76 430.391 267.66C430.041 267.56 429.781 267.35 429.611 267.03C429.111 266.24 428.511 265.37 427.791 264.43C427.571 264.16 427.491 263.85 427.551 263.52C427.611 263.19 427.791 262.94 428.091 262.8L428.721 262.47C429.071 262.27 429.431 262.21 429.801 262.28C430.171 262.35 430.491 262.53 430.761 262.8C431.531 263.72 432.161 264.56 432.651 265.32Z" fill="white"/>
<path d="M473.87 276.5H474.24C474.44 276.5 474.56 276.45 474.61 276.35C474.71 276.23 474.8 275.93 474.87 275.46C474.89 274.99 474.91 274.31 474.91 273.42C474.93 273.15 475.06 272.94 475.3 272.81C475.53 272.67 475.78 272.68 476.02 272.83C476.19 272.93 476.37 273.02 476.54 273.09C476.89 273.26 477.17 273.51 477.39 273.83C477.56 274.13 477.65 274.44 477.65 274.76C477.65 275.9 477.53 276.88 477.28 277.69C477.03 278.41 476.67 278.91 476.2 279.21C475.8 279.51 475.22 279.66 474.46 279.66H472.83C471.89 279.66 471.16 279.36 470.64 278.77C470.37 278.47 470.17 278.07 470.05 277.55C469.93 277.03 469.86 276.21 469.86 275.1C469.86 275.05 469.85 275.03 469.82 275.03C469.79 275.03 469.78 275.04 469.78 275.07L468.89 276.26C468.67 276.53 468.38 276.69 468.04 276.72C467.69 276.76 467.38 276.66 467.11 276.44C466.81 276.22 466.49 275.97 466.15 275.7C466.05 275.63 465.98 275.64 465.93 275.74C465.04 277.3 463.81 278.57 462.26 279.56C461.94 279.73 461.6 279.78 461.26 279.69C460.91 279.6 460.63 279.4 460.41 279.08C459.94 278.39 459.51 277.87 459.11 277.52C459.08 277.52 459.06 277.53 459.04 277.56C459.04 277.78 458.96 277.97 458.8 278.14C458.64 278.3 458.45 278.38 458.22 278.38H453.84C453.72 278.38 453.65 278.44 453.65 278.57V278.94C453.65 279.31 453.52 279.62 453.26 279.87C453 280.12 452.7 280.24 452.35 280.24H450.87C450.5 280.24 450.19 280.12 449.94 279.87C449.69 279.62 449.57 279.31 449.57 278.94V278.57C449.57 278.45 449.51 278.38 449.38 278.38H445.41C445.04 278.38 444.72 278.26 444.46 278.01C444.2 277.76 444.07 277.45 444.07 277.08C444.07 276.71 444.2 276.4 444.46 276.15C444.72 275.9 445.04 275.78 445.41 275.78H449.38C449.5 275.78 449.57 275.72 449.57 275.59V274.7C449.57 274.6 449.51 274.55 449.38 274.55H444.41C444.04 274.55 443.73 274.42 443.48 274.16C443.23 273.9 443.11 273.58 443.11 273.21C443.11 272.84 443.23 272.52 443.48 272.26C443.73 272 444.04 271.87 444.41 271.87H446.19C446.31 271.87 446.36 271.82 446.34 271.72C446.22 271.25 446.03 270.78 445.78 270.31C445.73 270.21 445.72 270.11 445.76 269.99C445.8 269.88 445.88 269.81 446 269.79H443.92C443.55 269.79 443.23 269.66 442.97 269.4C442.71 269.14 442.58 268.83 442.58 268.47C442.58 268.11 442.71 267.8 442.97 267.54C443.23 267.28 443.55 267.15 443.92 267.15H449.38C449.5 267.15 449.57 267.1 449.57 267V266.15C449.57 266.03 449.51 265.96 449.38 265.96H445.52C445.15 265.96 444.83 265.84 444.57 265.59C444.31 265.34 444.18 265.03 444.18 264.66V264.62C444.18 264.25 444.31 263.94 444.57 263.69C444.83 263.44 445.15 263.32 445.52 263.32H449.38C449.5 263.32 449.57 263.26 449.57 263.13V263.02C449.57 262.65 449.69 262.34 449.94 262.09C450.19 261.84 450.5 261.72 450.87 261.72H452.35C452.7 261.72 453 261.84 453.26 262.09C453.52 262.34 453.65 262.65 453.65 263.02V263.13C453.65 263.25 453.71 263.32 453.84 263.32H457.48C457.85 263.32 458.16 263.44 458.41 263.69C458.66 263.94 458.78 264.25 458.78 264.62V264.66C458.78 265.03 458.66 265.34 458.41 265.59C458.16 265.84 457.85 265.96 457.48 265.96H453.84C453.72 265.96 453.65 266.02 453.65 266.15V267C453.65 267.1 453.71 267.15 453.84 267.15H459.07C459.44 267.15 459.75 267.28 460 267.54C460.25 267.8 460.37 268.11 460.37 268.47C460.37 268.83 460.25 269.14 460 269.4C459.75 269.66 459.44 269.79 459.07 269.79H457.99C457.89 269.79 457.82 269.84 457.77 269.94C457.13 271.1 456.79 271.7 456.77 271.72C456.72 271.82 456.76 271.87 456.88 271.87H458.59C458.94 271.87 459.24 272 459.5 272.26C459.76 272.52 459.89 272.84 459.89 273.21C459.89 273.58 459.76 273.9 459.5 274.16C459.24 274.42 458.94 274.55 458.59 274.55H453.84C453.72 274.55 453.65 274.6 453.65 274.7V275.59C453.65 275.71 453.71 275.78 453.84 275.78H457.7C458.07 275.78 458.39 275.9 458.65 276.15C458.91 276.4 459.04 276.71 459.04 277.08V277.19C459.04 277.31 459.09 277.34 459.19 277.26C460.82 276.39 462.03 275.21 462.83 273.7C462.88 273.6 462.85 273.53 462.76 273.48C462.12 273.13 461.62 272.86 461.28 272.66C460.98 272.51 460.8 272.27 460.72 271.94C460.65 271.61 460.71 271.3 460.91 271.03L461.28 270.55C461.53 270.23 461.84 270.02 462.21 269.94C462.58 269.85 462.94 269.9 463.29 270.07C463.44 270.14 463.61 270.23 463.81 270.33C463.91 270.38 463.97 270.36 464 270.26C464.05 269.89 464.11 269.42 464.19 268.85C464.21 268.73 464.16 268.66 464.04 268.66H462.22C461.87 268.66 461.57 268.53 461.31 268.27C461.05 268.01 460.92 267.71 460.92 267.36V266.66C460.92 266.31 461.05 266.01 461.31 265.75C461.57 265.49 461.87 265.36 462.22 265.36H464.3C464.4 265.36 464.45 265.3 464.45 265.17C464.47 264.3 464.5 263.59 464.52 263.02C464.52 262.65 464.65 262.34 464.91 262.09C465.17 261.84 465.49 261.72 465.86 261.72H466.9C467.25 261.72 467.55 261.85 467.81 262.11C468.07 262.37 468.2 262.67 468.2 263.02C468.17 263.98 468.15 264.7 468.13 265.17C468.1 265.29 468.15 265.36 468.28 265.36H472.25C472.62 265.36 472.94 265.49 473.2 265.75C473.46 266.01 473.59 266.31 473.59 266.66V275.12C473.59 275.86 473.61 276.28 473.66 276.38C473.68 276.48 473.77 276.53 473.92 276.53L473.87 276.5ZM462.03 287.6C461.91 287.6 461.84 287.66 461.84 287.79V288.72C461.84 288.84 461.9 288.91 462.03 288.91H475.32C475.69 288.91 476.01 289.04 476.27 289.3C476.53 289.56 476.66 289.86 476.66 290.21V290.62C476.66 290.99 476.53 291.31 476.27 291.57C476.01 291.83 475.69 291.96 475.32 291.96H462.03C461.91 291.96 461.84 292.01 461.84 292.11V293.33C461.84 294.32 461.7 295.06 461.43 295.54C461.16 296.02 460.64 296.4 459.87 296.67C458.86 297.02 457.12 297.19 454.67 297.19C454.3 297.19 453.96 297.07 453.65 296.84C453.34 296.6 453.11 296.3 452.96 295.93C452.84 295.61 452.7 295.29 452.55 294.97C452.43 294.72 452.44 294.47 452.59 294.23C452.74 293.98 452.96 293.86 453.26 293.86C454.05 293.89 454.73 293.9 455.3 293.9C455.87 293.9 456.29 293.89 456.56 293.86C456.88 293.86 457.1 293.81 457.23 293.71C457.35 293.61 457.42 293.44 457.42 293.19V292.11C457.42 292.01 457.36 291.96 457.23 291.96H443.94C443.57 291.96 443.25 291.83 442.99 291.57C442.73 291.31 442.6 290.99 442.6 290.62V290.21C442.6 289.86 442.73 289.56 442.99 289.3C443.25 289.04 443.57 288.91 443.94 288.91H457.23C457.35 288.91 457.42 288.85 457.42 288.72V287.79C457.42 287.67 457.36 287.6 457.23 287.6H446.51C446.16 287.6 445.86 287.47 445.6 287.21C445.34 286.95 445.21 286.65 445.21 286.3V285.97C445.21 285.6 445.34 285.28 445.6 285.02C445.86 284.76 446.16 284.63 446.51 284.63H457.23C457.35 284.63 457.42 284.58 457.42 284.48V283.4C457.42 283.28 457.36 283.21 457.23 283.21C454.56 283.33 451.75 283.4 448.81 283.4H447.55C447.18 283.4 446.85 283.28 446.57 283.03C446.28 282.78 446.09 282.47 445.99 282.1C445.99 282.05 445.98 282 445.95 281.95C445.88 281.65 445.93 281.37 446.12 281.12C446.31 280.86 446.56 280.72 446.88 280.69C456.01 280.62 463.44 280.31 469.18 279.76C469.28 279.74 469.38 279.72 469.48 279.72C470.22 279.72 470.84 280.02 471.34 280.61L471.9 281.2C472.07 281.4 472.11 281.63 472.01 281.89C471.91 282.15 471.72 282.31 471.45 282.35C468.56 282.65 465.41 282.88 462.02 283.06C461.9 283.06 461.83 283.12 461.83 283.25V284.47C461.83 284.57 461.89 284.62 462.02 284.62H473.04C473.41 284.62 473.72 284.75 473.97 285.01C474.22 285.27 474.34 285.59 474.34 285.96V286.29C474.34 286.64 474.22 286.94 473.97 287.2C473.72 287.46 473.41 287.59 473.04 287.59H462.02L462.03 287.6ZM453.94 269.94C453.96 269.84 453.93 269.79 453.83 269.79H449.34C449.22 269.79 449.19 269.84 449.27 269.94C449.52 270.39 449.7 270.87 449.83 271.39C449.9 271.64 449.82 271.8 449.57 271.87H453.5C453.3 271.82 453.24 271.7 453.31 271.5C453.48 271.03 453.69 270.51 453.94 269.94ZM469.86 268.83C469.86 268.71 469.81 268.64 469.71 268.64H468C467.88 268.64 467.81 268.69 467.81 268.79C467.71 269.83 467.52 270.93 467.25 272.09C467.22 272.19 467.26 272.28 467.36 272.35C468.3 272.94 469.09 273.51 469.74 274.06C469.81 274.13 469.85 274.11 469.85 273.99V268.83H469.86Z" fill="white"/>
<path d="M509.821 267.37C509.791 267.47 509.831 267.52 509.931 267.52H519.171C519.541 267.52 519.851 267.66 520.101 267.93C520.351 268.18 520.471 268.47 520.471 268.82V269.6C520.201 278.46 519.901 284.6 519.581 288.02C519.261 291.45 518.731 293.64 517.981 294.61C517.481 295.28 516.961 295.76 516.401 296.06C515.841 296.36 515.161 296.58 514.341 296.73C513.651 296.8 512.661 296.84 511.371 296.84H509.661C509.311 296.84 509.001 296.71 508.711 296.45C508.421 296.19 508.231 295.87 508.131 295.5C507.981 294.83 507.771 294.18 507.501 293.53C507.381 293.28 507.391 293.04 507.541 292.81C507.691 292.57 507.901 292.47 508.171 292.49C509.461 292.56 510.921 292.6 512.551 292.6C513.221 292.6 513.771 292.39 514.221 291.97C514.741 291.38 515.151 289.56 515.441 286.53C515.741 283.5 516.001 278.58 516.221 271.78C516.221 271.68 516.161 271.63 516.031 271.63H508.241C508.141 271.63 508.071 271.68 508.021 271.78C507.251 273.51 506.411 275.1 505.501 276.53C505.301 276.83 505.021 277 504.661 277.05C504.301 277.1 503.991 277.03 503.711 276.83C503.291 276.51 502.701 276.1 501.931 275.61C501.861 275.54 501.821 275.56 501.821 275.68V291.93C501.821 292.3 501.691 292.62 501.431 292.88C501.171 293.14 500.851 293.27 500.481 293.27H491.831C491.711 293.27 491.641 293.32 491.641 293.42V294.72C491.641 295.09 491.521 295.4 491.271 295.65C491.021 295.9 490.711 296.02 490.341 296.02H488.861C488.511 296.02 488.211 295.9 487.951 295.65C487.691 295.4 487.561 295.09 487.561 294.72V269.11C487.561 268.74 487.691 268.43 487.951 268.18C488.211 267.93 488.511 267.81 488.861 267.81H491.681C491.801 267.81 491.881 267.75 491.901 267.62C492.301 266.06 492.591 264.52 492.791 262.98C492.841 262.61 493.011 262.31 493.311 262.09C493.531 261.92 493.781 261.83 494.051 261.83C494.121 261.83 494.191 261.84 494.241 261.87L496.581 262.17C496.931 262.22 497.191 262.39 497.361 262.69C497.531 262.99 497.571 263.3 497.471 263.62C496.951 265.1 496.461 266.44 495.991 267.63C495.941 267.75 495.981 267.82 496.101 267.82H500.481C500.851 267.82 501.171 267.94 501.431 268.19C501.691 268.44 501.821 268.75 501.821 269.12V273.8C501.821 273.8 501.831 273.84 501.861 273.86C501.881 273.87 501.901 273.86 501.901 273.84C503.831 271.02 505.401 267.41 506.611 263C506.711 262.65 506.911 262.38 507.221 262.18C507.531 261.98 507.871 261.93 508.241 262.03L509.951 262.4C510.321 262.5 510.601 262.7 510.791 263.01C510.981 263.32 511.021 263.65 510.921 263.99C510.651 264.93 510.281 266.06 509.811 267.37H509.821ZM497.571 277.91C497.671 277.91 497.721 277.85 497.721 277.72V271.93C497.721 271.81 497.671 271.74 497.571 271.74H491.861C491.741 271.74 491.671 271.8 491.671 271.93V277.72C491.671 277.84 491.731 277.91 491.861 277.91H497.571ZM491.671 289.12C491.671 289.22 491.731 289.27 491.861 289.27H497.571C497.671 289.27 497.721 289.22 497.721 289.12V282C497.721 281.88 497.671 281.81 497.571 281.81H491.861C491.741 281.81 491.671 281.87 491.671 282V289.12ZM513.531 283.74C513.651 283.94 513.721 284.15 513.721 284.37C513.721 284.49 513.711 284.62 513.681 284.74C513.581 285.09 513.371 285.36 513.051 285.56L511.451 286.52C511.251 286.64 511.051 286.71 510.861 286.71C510.741 286.71 510.621 286.7 510.531 286.67C510.181 286.57 509.921 286.36 509.751 286.04C508.831 284.33 507.511 282.17 505.781 279.55C505.661 279.33 505.591 279.1 505.591 278.88C505.591 278.78 505.601 278.68 505.631 278.58C505.701 278.23 505.901 277.97 506.221 277.8L507.441 277.09C507.661 276.94 507.901 276.87 508.141 276.87C508.261 276.87 508.371 276.88 508.471 276.91C508.841 277.01 509.141 277.21 509.361 277.5C511.171 280.05 512.551 282.13 513.521 283.73L513.531 283.74Z" fill="white"/>
<path d="M537.02 278.87C537.37 278.87 537.67 278.99 537.93 279.24C538.19 279.49 538.32 279.8 538.32 280.17V288.59C538.32 288.71 538.34 288.83 538.39 288.92C539.87 291.15 542.71 292.33 546.89 292.48C548.27 292.55 549.98 292.59 552.01 292.59C553.05 292.59 554.16 292.58 555.35 292.55C558.91 292.5 561.99 292.39 564.59 292.22C564.89 292.22 565.12 292.33 565.3 292.55C565.4 292.72 565.45 292.88 565.45 293.03C565.45 293.13 565.44 293.24 565.41 293.36C565.21 293.9 565.04 294.46 564.89 295.03C564.79 295.4 564.59 295.72 564.3 295.98C564 296.24 563.67 296.37 563.3 296.37C560.03 296.52 556.95 296.59 554.06 296.59C551.54 296.59 549.15 296.54 546.9 296.44C544.5 296.34 542.48 295.98 540.85 295.36C539.22 294.74 537.82 293.75 536.66 292.39C536.59 292.32 536.51 292.32 536.44 292.39C535.1 293.78 533.9 294.95 532.84 295.92C532.59 296.14 532.31 296.22 531.99 296.16C531.67 296.1 531.45 295.92 531.32 295.62L530.39 293.69C530.29 293.47 530.24 293.24 530.24 293.02C530.24 292.9 530.25 292.76 530.28 292.61C530.38 292.26 530.58 291.97 530.87 291.72C532.08 290.85 533.12 290.04 533.99 289.27C534.06 289.2 534.1 289.11 534.1 289.01V283.11C534.1 282.99 534.05 282.92 533.95 282.92H531.57C531.22 282.92 530.92 282.79 530.66 282.53C530.4 282.27 530.27 281.97 530.27 281.62V280.14C530.27 279.77 530.4 279.46 530.66 279.21C530.92 278.96 531.22 278.84 531.57 278.84H537.03L537.02 278.87ZM538.1 273.12C538.37 273.37 538.51 273.67 538.51 274.03C538.51 274.39 538.37 274.69 538.1 274.94L536.91 276.09C536.66 276.34 536.36 276.46 536 276.44C535.64 276.43 535.33 276.3 535.05 276.05C533.99 275.06 532.76 274.1 531.38 273.16C531.11 272.99 530.95 272.73 530.92 272.4C530.89 272.07 530.99 271.79 531.24 271.57L532.2 270.64C532.5 270.37 532.83 270.21 533.2 270.16H533.42C533.72 270.16 534 270.25 534.27 270.42C535.8 271.34 537.08 272.24 538.09 273.13L538.1 273.12ZM539.32 265.51C539.59 265.76 539.72 266.06 539.69 266.42C539.66 266.78 539.52 267.08 539.24 267.33L538.05 268.44C537.78 268.66 537.46 268.76 537.1 268.74C536.74 268.72 536.44 268.58 536.19 268.33C535.2 267.27 534.05 266.26 532.74 265.32C532.47 265.12 532.33 264.86 532.31 264.52C532.3 264.19 532.41 263.91 532.66 263.69L533.66 262.8C533.96 262.55 534.3 262.42 534.7 262.39H534.81C535.16 262.39 535.47 262.49 535.74 262.69C537.2 263.68 538.39 264.62 539.3 265.51H539.32ZM544.37 277.31C544.49 277.31 544.56 277.25 544.56 277.12V275.64C544.56 275.52 544.5 275.45 544.37 275.45H541.77C541.4 275.45 541.08 275.33 540.82 275.08C540.56 274.83 540.43 274.52 540.43 274.15V265.69C540.43 265.32 540.56 265 540.82 264.74C541.08 264.48 541.4 264.35 541.77 264.35H544.37C544.49 264.35 544.57 264.3 544.59 264.2C544.69 263.71 544.76 263.3 544.81 262.98C544.88 262.61 545.06 262.31 545.33 262.09C545.6 261.87 545.9 261.76 546.22 261.76H546.33L548.3 261.91C548.62 261.94 548.87 262.09 549.04 262.37C549.21 262.65 549.23 262.95 549.08 263.24C549.03 263.36 548.95 263.55 548.84 263.8C548.73 264.05 548.66 264.18 548.64 264.21C548.59 264.31 548.63 264.36 548.75 264.36H551.09C551.46 264.36 551.78 264.49 552.04 264.75C552.3 265.01 552.43 265.33 552.43 265.7V272.71C552.43 272.71 552.45 272.75 552.5 272.75C553.66 270.23 554.54 267.02 555.13 263.14C555.18 262.77 555.35 262.48 555.63 262.27C555.91 262.06 556.24 261.98 556.61 262.03L557.95 262.25C558.32 262.3 558.61 262.47 558.82 262.77C559.03 263.07 559.1 263.39 559.02 263.73C558.8 265.04 558.59 266.13 558.39 267C558.36 267.1 558.4 267.15 558.5 267.15H563.73C564.1 267.15 564.42 267.28 564.68 267.54C564.94 267.8 565.07 268.12 565.07 268.49V269.86C565.07 270.16 564.96 270.42 564.74 270.64C564.52 270.86 564.26 270.97 563.96 270.97C563.86 270.97 563.81 271.01 563.81 271.08C563.22 275.63 562.3 279.44 561.06 282.51C561.01 282.61 561.01 282.71 561.06 282.81C562.12 284.84 563.3 286.47 564.59 287.71C564.84 287.96 564.97 288.25 564.98 288.6C564.99 288.95 564.89 289.24 564.66 289.49C564.31 289.86 563.99 290.23 563.7 290.6C563.48 290.9 563.2 291.06 562.87 291.1C562.54 291.14 562.25 291.03 562 290.78C560.89 289.62 559.91 288.26 559.07 286.7C559.04 286.68 559.01 286.66 558.98 286.66C558.95 286.66 558.92 286.67 558.92 286.7C557.86 288.31 556.66 289.69 555.32 290.86C555.02 291.11 554.7 291.21 554.36 291.16C554.01 291.11 553.72 290.94 553.47 290.64C552.97 290.05 552.51 289.53 552.06 289.08C551.99 289.01 551.92 289.02 551.87 289.12C551.75 289.62 551.58 289.97 551.39 290.2C550.89 290.74 550.24 291.08 549.42 291.2C548.95 291.25 548.38 291.27 547.71 291.27C547.34 291.27 547.02 291.15 546.75 290.9C546.48 290.65 546.29 290.33 546.19 289.94C546.16 289.79 546.13 289.66 546.08 289.53C546.01 289.23 546.05 288.97 546.23 288.73C546.4 288.49 546.64 288.38 546.94 288.38C547.09 288.41 547.27 288.42 547.5 288.42C547.87 288.45 548.14 288.33 548.32 288.09C548.57 287.82 548.74 286.77 548.84 284.94C548.86 284.82 548.81 284.75 548.69 284.75H545.98C545.88 284.75 545.82 284.81 545.79 284.94C545.12 287.36 543.98 289.24 542.38 290.58C542.11 290.8 541.8 290.88 541.47 290.82C541.14 290.76 540.86 290.58 540.64 290.28C540.44 290.03 540.24 289.8 540.05 289.58C539.83 289.33 539.72 289.04 539.73 288.71C539.74 288.38 539.86 288.1 540.08 287.88C540.97 287.04 541.61 286.02 542.01 284.84C542.41 283.65 542.68 282.23 542.83 280.57C542.83 280.45 542.77 280.38 542.64 280.38H540.49C540.12 280.38 539.81 280.26 539.56 280.01C539.31 279.76 539.19 279.45 539.19 279.08V278.63C539.19 278.26 539.31 277.95 539.56 277.7C539.81 277.45 540.12 277.33 540.49 277.33H544.39L544.37 277.31ZM544.15 267.1C544.05 267.1 544 267.16 544 267.29V268.48C544 268.58 544.05 268.63 544.15 268.63H548.53C548.65 268.63 548.72 268.58 548.72 268.48V267.29C548.72 267.17 548.66 267.1 548.53 267.1H544.15ZM544.15 271.22C544.05 271.22 544 271.27 544 271.37V272.56C544 272.68 544.05 272.75 544.15 272.75H548.53C548.65 272.75 548.72 272.69 548.72 272.56V271.37C548.72 271.27 548.66 271.22 548.53 271.22H544.15ZM546.34 281.54C546.34 281.64 546.4 281.69 546.53 281.69H551.32C551.67 281.69 551.96 281.82 552.21 282.08C552.46 282.34 552.57 282.66 552.54 283.03C552.44 285.48 552.28 287.26 552.06 288.37C552.06 288.4 552.07 288.42 552.1 288.44C552.12 288.47 552.15 288.47 552.17 288.44C554.15 286.96 555.77 285.03 557.03 282.65C557.08 282.55 557.08 282.45 557.03 282.35C556.34 280.52 555.73 278.54 555.21 276.41C555.18 276.39 555.16 276.37 555.14 276.37C555.12 276.37 555.09 276.38 555.07 276.41C554.87 276.81 554.55 277.33 554.11 277.97C554.08 278.02 554.05 278.02 554 277.97V279.05C554 279.42 553.87 279.73 553.61 279.98C553.35 280.23 553.03 280.35 552.66 280.35H546.65C546.53 280.35 546.46 280.41 546.46 280.54C546.41 280.96 546.37 281.29 546.35 281.54H546.34ZM548.34 277.12C548.34 277.24 548.4 277.31 548.53 277.31H552.98C552.98 277.31 553.02 277.29 553.04 277.25C553.05 277.21 553.04 277.19 553.02 277.19C552.3 276.65 551.62 276.18 550.98 275.78C550.86 275.68 550.84 275.58 550.94 275.48L550.9 275.44H548.52C548.4 275.44 548.33 275.5 548.33 275.63V277.11L548.34 277.12ZM560.03 271.11C560.05 271.01 560 270.96 559.88 270.96H557.5C557.38 270.96 557.33 271.01 557.35 271.11C557.72 273.31 558.23 275.38 558.87 277.31C558.87 277.34 558.88 277.35 558.91 277.35C558.94 277.35 558.95 277.34 558.95 277.31C559.42 275.38 559.78 273.31 560.03 271.11Z" fill="white"/>
<path d="M587.221 267.96C587.591 267.96 587.911 268.08 588.171 268.33C588.431 268.58 588.561 268.89 588.561 269.26V270.19C588.561 270.56 588.431 270.88 588.171 271.14C587.911 271.4 587.591 271.53 587.221 271.53H575.421C575.071 271.53 574.771 271.4 574.511 271.14C574.251 270.88 574.121 270.56 574.121 270.19V269.26C574.121 268.89 574.251 268.58 574.511 268.33C574.771 268.08 575.071 267.96 575.421 267.96H587.221ZM586.031 283.69C586.381 283.69 586.681 283.81 586.941 284.06C587.201 284.31 587.331 284.62 587.331 284.99V293.82C587.331 294.19 587.201 294.51 586.941 294.77C586.681 295.03 586.381 295.16 586.031 295.16H579.761C579.641 295.16 579.571 295.21 579.571 295.31C579.571 295.68 579.441 296 579.181 296.26C578.921 296.52 578.621 296.65 578.271 296.65H577.081C576.731 296.65 576.431 296.52 576.171 296.26C575.911 296 575.781 295.68 575.781 295.31V284.99C575.781 284.62 575.911 284.31 576.171 284.06C576.431 283.81 576.731 283.69 577.081 283.69H586.021H586.031ZM585.991 273.23C586.341 273.23 586.641 273.36 586.901 273.62C587.161 273.88 587.291 274.18 587.291 274.53V275.38C587.291 275.73 587.161 276.03 586.901 276.29C586.641 276.55 586.341 276.68 585.991 276.68H577.201C576.851 276.68 576.551 276.55 576.291 276.29C576.031 276.03 575.901 275.73 575.901 275.38V274.53C575.901 274.18 576.031 273.88 576.291 273.62C576.551 273.36 576.851 273.23 577.201 273.23H585.991ZM577.201 281.8C576.851 281.8 576.551 281.68 576.291 281.43C576.031 281.18 575.901 280.87 575.901 280.5V279.76C575.901 279.39 576.031 279.07 576.291 278.81C576.551 278.55 576.851 278.42 577.201 278.42H585.991C586.341 278.42 586.641 278.55 586.901 278.81C587.161 279.07 587.291 279.39 587.291 279.76V280.5C587.291 280.87 587.161 281.18 586.901 281.43C586.641 281.68 586.341 281.8 585.991 281.8H577.201ZM585.881 262.84C586.231 262.84 586.531 262.97 586.791 263.23C587.051 263.49 587.181 263.81 587.181 264.18V264.96C587.181 265.33 587.051 265.65 586.791 265.91C586.531 266.17 586.231 266.3 585.881 266.3H577.311C576.961 266.3 576.661 266.17 576.401 265.91C576.141 265.65 576.011 265.33 576.011 264.96V264.18C576.011 263.81 576.141 263.49 576.401 263.23C576.661 262.97 576.961 262.84 577.311 262.84H585.881ZM583.501 287.41C583.501 287.31 583.441 287.26 583.311 287.26H579.751C579.631 287.26 579.561 287.31 579.561 287.41V291.45C579.561 291.57 579.621 291.64 579.751 291.64H583.311C583.431 291.64 583.501 291.58 583.501 291.45V287.41ZM601.091 272.71C601.091 272.83 601.141 272.9 601.241 272.9H608.111C608.461 272.9 608.761 273.03 609.021 273.29C609.281 273.55 609.411 273.85 609.411 274.2V274.79C609.411 275.16 609.281 275.48 609.021 275.74C608.761 276 608.461 276.13 608.111 276.13H589.851C589.501 276.13 589.201 276 588.941 275.74C588.681 275.48 588.551 275.16 588.551 274.79V274.2C588.551 273.85 588.681 273.55 588.941 273.29C589.201 273.03 589.501 272.9 589.851 272.9H596.641C596.741 272.9 596.791 272.84 596.791 272.71V271.52C596.791 271.42 596.741 271.37 596.641 271.37H591.741C591.371 271.37 591.051 271.24 590.791 270.98C590.531 270.72 590.401 270.4 590.401 270.03V269.62C590.401 269.27 590.531 268.97 590.791 268.71C591.051 268.45 591.371 268.32 591.741 268.32H596.641C596.741 268.32 596.791 268.26 596.791 268.13V267.13C596.791 267.01 596.741 266.94 596.641 266.94H590.781C590.411 266.94 590.091 266.81 589.831 266.55C589.571 266.29 589.441 265.99 589.441 265.64V265.01C589.441 264.66 589.571 264.36 589.831 264.1C590.091 263.84 590.411 263.71 590.781 263.71H596.641C596.741 263.71 596.791 263.65 596.791 263.52V262.96C596.791 262.59 596.921 262.28 597.181 262.03C597.441 261.78 597.761 261.66 598.131 261.66H599.761C600.131 261.66 600.451 261.78 600.711 262.03C600.971 262.28 601.101 262.59 601.101 262.96V263.52C601.101 263.64 601.151 263.71 601.251 263.71H607.411C607.781 263.71 608.101 263.84 608.361 264.1C608.621 264.36 608.751 264.66 608.751 265.01V265.64C608.751 265.99 608.621 266.29 608.361 266.55C608.101 266.81 607.781 266.94 607.411 266.94H601.251C601.151 266.94 601.101 267 601.101 267.13V268.13C601.101 268.25 601.151 268.32 601.251 268.32H606.851C607.221 268.32 607.531 268.45 607.781 268.71C608.031 268.97 608.151 269.27 608.151 269.62V270.03C608.151 270.4 608.031 270.72 607.781 270.98C607.531 271.24 607.221 271.37 606.851 271.37H601.251C601.151 271.37 601.101 271.42 601.101 271.52V272.71H601.091ZM606.031 277.57C606.401 277.57 606.721 277.69 606.981 277.94C607.241 278.19 607.371 278.5 607.371 278.87V292.93C607.371 293.92 607.251 294.67 607.021 295.19C606.781 295.71 606.361 296.12 605.741 296.41C604.921 296.81 603.541 297.02 601.581 297.04C601.211 297.04 600.881 296.92 600.581 296.69C600.281 296.45 600.081 296.14 599.991 295.74C599.871 295.39 599.741 295.02 599.621 294.63C599.501 294.36 599.521 294.09 599.691 293.83C599.861 293.57 600.101 293.44 600.391 293.44C600.711 293.47 601.001 293.48 601.241 293.48C601.861 293.48 602.291 293.47 602.541 293.44C602.761 293.44 602.921 293.4 603.001 293.31C603.091 293.22 603.131 293.07 603.131 292.85V290.25C603.131 290.15 603.081 290.1 602.981 290.1H595.451C595.331 290.1 595.261 290.15 595.261 290.25V295.78C595.261 296.13 595.131 296.43 594.871 296.69C594.611 296.95 594.311 297.08 593.961 297.08H592.441C592.071 297.08 591.761 296.95 591.511 296.69C591.261 296.43 591.141 296.13 591.141 295.78V278.86C591.141 278.49 591.261 278.18 591.511 277.93C591.761 277.68 592.071 277.56 592.441 277.56H606.021L606.031 277.57ZM603.141 280.91C603.141 280.81 603.091 280.76 602.991 280.76H595.461C595.341 280.76 595.271 280.81 595.271 280.91V282.28C595.271 282.4 595.331 282.47 595.461 282.47H602.991C603.091 282.47 603.141 282.41 603.141 282.28V280.91ZM595.271 287C595.271 287.12 595.331 287.19 595.461 287.19H602.991C603.091 287.19 603.141 287.13 603.141 287V285.55C603.141 285.45 603.091 285.4 602.991 285.4H595.461C595.341 285.4 595.271 285.45 595.271 285.55V287Z" fill="white"/>
<path d="M626.031 262.84C626.231 262.52 626.501 262.28 626.851 262.13C627.051 262.06 627.231 262.02 627.411 262.02C627.591 262.02 627.761 262.05 627.931 262.09L629.411 262.61C629.731 262.73 629.961 262.95 630.101 263.26C630.241 263.57 630.221 263.88 630.041 264.21C629.351 265.42 628.611 266.57 627.811 267.66C627.761 267.76 627.741 267.86 627.741 267.96V282.54C627.741 282.91 627.611 283.23 627.351 283.49C627.091 283.75 626.771 283.88 626.401 283.88H624.731C624.361 283.88 624.041 283.75 623.781 283.49C623.521 283.23 623.391 282.91 623.391 282.54V273.19C623.391 273.19 623.381 273.15 623.351 273.13C623.321 273.11 623.301 273.13 623.281 273.15C622.661 273.77 622.071 274.33 621.501 274.82C621.251 275.04 620.961 275.12 620.611 275.06C620.261 275 619.991 274.83 619.791 274.56C619.421 273.99 619.051 273.47 618.681 273C618.481 272.75 618.381 272.48 618.381 272.18C618.381 271.78 618.541 271.45 618.861 271.18C621.751 268.8 624.141 266.02 626.021 262.83L626.031 262.84ZM622.911 295.13C622.641 295.4 622.301 295.54 621.911 295.56C621.521 295.58 621.161 295.47 620.831 295.24L619.271 294.2C619.001 294 618.861 293.74 618.841 293.42C618.831 293.1 618.951 292.83 619.191 292.6C620.801 291.09 622.021 289.14 622.861 286.74C622.961 286.39 623.171 286.14 623.491 285.98C623.811 285.82 624.151 285.79 624.491 285.89L626.011 286.41C626.361 286.53 626.621 286.76 626.791 287.08C626.961 287.4 626.991 287.75 626.861 288.12C625.871 291.19 624.551 293.53 622.891 295.13H622.911ZM634.451 292.46H639.611C640.251 292.46 640.701 292.31 640.951 292C641.201 291.69 641.361 291.03 641.431 290.01C641.451 289.71 641.601 289.5 641.861 289.36C642.121 289.22 642.391 289.23 642.661 289.38C643.161 289.6 643.691 289.8 644.261 289.97C644.631 290.09 644.921 290.31 645.131 290.62C645.341 290.93 645.421 291.27 645.371 291.64C645.071 293.52 644.541 294.79 643.771 295.46C643.001 296.13 641.751 296.46 640.021 296.46H633.971C631.571 296.46 629.961 296.09 629.151 295.37C628.341 294.65 627.931 293.27 627.931 291.27V286.67C627.931 286.3 628.061 285.99 628.321 285.74C628.581 285.49 628.881 285.37 629.231 285.37H631.091C631.461 285.37 631.781 285.49 632.041 285.74C632.301 285.99 632.431 286.3 632.431 286.67V291.2C632.431 291.74 632.551 292.09 632.781 292.24C633.021 292.39 633.581 292.46 634.471 292.46H634.451ZM639.271 268.93C639.271 268.81 639.221 268.74 639.121 268.74H635.561C635.461 268.74 635.371 268.79 635.301 268.89C634.531 270.1 633.721 271.17 632.851 272.08C632.631 272.35 632.321 272.49 631.941 272.51C631.561 272.53 631.241 272.39 630.991 272.12C630.541 271.72 630.101 271.35 629.651 271.01C629.401 270.79 629.271 270.51 629.261 270.18C629.251 269.85 629.371 269.56 629.611 269.31C631.321 267.6 632.671 265.49 633.651 262.96C633.771 262.61 634.011 262.35 634.361 262.18C634.561 262.06 634.781 261.99 635.031 261.99C635.151 261.99 635.271 262 635.361 262.03L636.961 262.44C637.311 262.51 637.561 262.71 637.721 263.02C637.881 263.33 637.901 263.66 637.781 264C637.681 264.27 637.581 264.54 637.481 264.82C637.431 264.92 637.461 264.97 637.551 264.97H649.391C649.461 264.97 649.531 264.96 649.581 264.93C649.781 264.88 649.991 264.86 650.211 264.86C650.431 264.86 650.641 264.89 650.841 264.93L652.061 265.23C652.411 265.3 652.671 265.49 652.861 265.79C653.051 266.09 653.081 266.41 652.951 266.75C652.361 268.48 651.741 270.08 651.091 271.54C650.941 271.91 650.691 272.18 650.351 272.36C650.001 272.53 649.631 272.58 649.241 272.51L649.201 272.47C649.201 272.47 649.121 272.48 649.111 272.51C649.101 272.54 649.111 272.56 649.131 272.58C650.321 274.46 651.261 276.23 651.951 277.89C652.101 278.24 652.101 278.58 651.971 278.91C651.831 279.24 651.591 279.5 651.251 279.67L649.771 280.37C649.451 280.52 649.131 280.52 648.811 280.39C648.491 280.26 648.271 280.03 648.141 279.7C647.401 277.87 646.411 275.91 645.171 273.84C645.001 273.54 644.961 273.23 645.061 272.89C645.161 272.55 645.371 272.31 645.691 272.17L646.691 271.76C646.791 271.71 646.861 271.64 646.911 271.54C647.111 271.02 647.431 270.14 647.871 268.91C647.921 268.81 647.881 268.76 647.761 268.76H643.751C643.651 268.76 643.601 268.82 643.601 268.95V279.6C643.601 280.64 643.481 281.44 643.251 281.99C643.011 282.55 642.581 282.97 641.931 283.27C641.091 283.69 639.701 283.93 637.771 283.97C637.751 283.97 637.731 283.98 637.711 284.01C637.701 284.04 637.711 284.05 637.731 284.05C638.521 284.64 639.161 285.16 639.661 285.61C639.931 285.86 640.061 286.16 640.051 286.52C640.041 286.88 639.881 287.18 639.591 287.43L638.371 288.54C638.071 288.76 637.751 288.86 637.411 288.84C637.061 288.82 636.751 288.68 636.481 288.43C635.341 287.29 633.921 286.17 632.211 285.05C631.941 284.88 631.791 284.62 631.761 284.29C631.731 283.96 631.851 283.69 632.091 283.49L633.091 282.64C633.391 282.37 633.731 282.21 634.131 282.18C634.531 282.14 634.901 282.22 635.241 282.42C635.611 282.64 635.961 282.87 636.281 283.09C636.301 283.09 636.321 283.09 636.341 283.07C636.361 283.05 636.361 283.04 636.361 283.01C636.211 282.42 636.011 281.81 635.771 281.19C635.651 280.92 635.661 280.66 635.831 280.41C635.991 280.16 636.221 280.05 636.521 280.08H638.671C638.891 280.08 639.051 280.04 639.131 279.95C639.221 279.86 639.261 279.72 639.261 279.52V268.94L639.271 268.93ZM633.371 272.6C633.521 272.28 633.761 272.03 634.091 271.86C634.421 271.69 634.781 271.65 635.151 271.75L636.711 272.16C637.061 272.26 637.301 272.46 637.451 272.77C637.601 273.08 637.601 273.39 637.451 273.72C636.511 275.77 635.321 277.69 633.891 279.47C633.671 279.74 633.371 279.9 633.001 279.93C632.631 279.96 632.281 279.89 631.961 279.69C631.561 279.42 631.111 279.12 630.591 278.8C630.321 278.6 630.161 278.34 630.131 278.02C630.091 277.7 630.191 277.41 630.411 277.17C631.551 275.86 632.541 274.34 633.381 272.61L633.371 272.6ZM644.241 287.74C644.071 287.54 643.981 287.32 643.981 287.07C643.981 286.65 644.151 286.34 644.501 286.14L645.911 285.36C646.181 285.21 646.471 285.14 646.761 285.14C646.831 285.14 646.921 285.15 647.021 285.18C647.391 285.23 647.711 285.39 647.981 285.66C650.311 288.04 652.021 290.22 653.141 292.23C653.241 292.43 653.291 292.63 653.291 292.82C653.291 292.97 653.271 293.11 653.221 293.23C653.121 293.58 652.901 293.85 652.551 294.05L650.811 295.01C650.611 295.11 650.431 295.16 650.251 295.16C650.101 295.16 649.971 295.13 649.841 295.09C649.521 294.97 649.271 294.76 649.101 294.46C648.041 292.31 646.421 290.07 644.241 287.74Z" fill="white"/>
<path d="M673.342 293.16C672.602 293.85 671.662 294.2 670.522 294.2C669.382 294.2 668.442 293.85 667.702 293.16C666.962 292.47 666.592 291.58 666.592 290.49C666.592 289.4 666.972 288.5 667.722 287.78C668.472 287.06 669.412 286.7 670.522 286.7C671.632 286.7 672.572 287.06 673.322 287.78C674.072 288.5 674.452 289.4 674.452 290.49C674.452 291.58 674.082 292.47 673.342 293.16ZM669.892 284.11C669.522 284.11 669.202 283.99 668.932 283.74C668.662 283.49 668.502 283.18 668.452 282.81L667.232 271.12L667.122 266.78C667.102 266.41 667.212 266.09 667.472 265.83C667.732 265.57 668.032 265.44 668.382 265.44H672.722C673.072 265.44 673.372 265.57 673.632 265.83C673.892 266.09 674.012 266.41 673.982 266.78L673.832 271.12L672.642 282.81C672.592 283.18 672.432 283.49 672.162 283.74C671.892 283.99 671.572 284.11 671.202 284.11H669.902H669.892Z" fill="white"/>
</g>
<defs>
<clipPath id="clip0_1309_408">
<rect width="880.97" height="297.17" fill="white"/>
</clipPath>
</defs>
</svg>
