<svg width="209" height="111" viewBox="0 0 209 111" fill="none" xmlns="http://www.w3.org/2000/svg">
<path d="M67.3984 110.121C55.9084 110.121 46.5684 100.771 46.5684 89.2909C46.5684 77.8109 55.9184 68.4609 67.3984 68.4609C69.9884 68.4609 72.5184 68.9309 74.9084 69.8609C75.6084 70.1309 75.9484 70.9109 75.6784 71.6109C75.4084 72.3109 74.6284 72.6509 73.9284 72.3809C71.8484 71.5709 69.6484 71.1709 67.3884 71.1709C57.3884 71.1709 49.2584 79.3009 49.2584 89.3009C49.2584 99.3009 57.3884 107.431 67.3884 107.431C77.3884 107.431 85.5184 99.3009 85.5184 89.3009C85.5184 84.8409 83.8884 80.5609 80.9284 77.2409C80.4284 76.6809 80.4784 75.8309 81.0384 75.3309C81.5984 74.8309 82.4484 74.8809 82.9484 75.4409C86.3484 79.2609 88.2284 84.1809 88.2284 89.3009C88.2284 100.791 78.8784 110.131 67.3984 110.131V110.121Z" fill="#8E602A"/>
<path d="M141.129 110.121C129.639 110.121 120.299 100.771 120.299 89.291C120.299 84.061 122.239 79.061 125.779 75.211C126.279 74.661 127.139 74.621 127.689 75.131C128.239 75.631 128.279 76.491 127.769 77.041C124.699 80.391 122.999 84.741 122.999 89.291C122.999 99.291 131.129 107.421 141.129 107.421C151.129 107.421 159.259 99.291 159.259 89.291C159.259 82.791 155.749 76.761 150.099 73.531C149.449 73.161 149.229 72.341 149.599 71.691C149.969 71.041 150.799 70.821 151.439 71.191C157.929 74.891 161.959 81.831 161.959 89.291C161.959 100.781 152.609 110.121 141.129 110.121Z" fill="#8E602A"/>
<path d="M104.368 90.6406C103.988 90.6406 103.608 90.4806 103.348 90.1706C101.098 87.5606 89.8179 74.4807 88.8779 72.7507C87.4979 70.2007 86.6479 63.8407 92.8279 60.4107C98.6079 57.2107 104.988 62.5706 105.258 62.8006C105.828 63.2806 105.888 64.1306 105.408 64.7006C104.928 65.2706 104.078 65.3406 103.508 64.8506C103.458 64.8106 98.2779 60.4807 94.1479 62.7707C88.5679 65.8607 91.2379 71.4006 91.2679 71.4606C91.9079 72.6206 100.278 82.4707 105.408 88.4007C105.898 88.9607 105.838 89.8207 105.268 90.3007C105.018 90.5207 104.698 90.6306 104.388 90.6306L104.368 90.6406Z" fill="#8E602A"/>
<path d="M104.369 90.6406C104.059 90.6406 103.739 90.5306 103.489 90.3106C102.929 89.8206 102.859 88.9707 103.349 88.4107C108.479 82.4807 116.849 72.6306 117.489 71.4606C117.519 71.4106 120.189 65.8707 114.609 62.7707C110.469 60.4807 105.299 64.8006 105.249 64.8506C104.679 65.3306 103.829 65.2606 103.349 64.7006C102.869 64.1306 102.929 63.2806 103.499 62.8006C103.769 62.5706 110.139 57.2107 115.929 60.4107C122.109 63.8307 121.249 70.2007 119.879 72.7507C118.939 74.4907 107.659 87.5706 105.409 90.1706C105.139 90.4806 104.769 90.6406 104.389 90.6406H104.369Z" fill="#8E602A"/>
<path d="M140.608 90.771C140.148 90.771 139.698 90.541 139.448 90.111L124.078 64.341C123.698 63.701 123.908 62.871 124.548 62.491C125.188 62.111 126.018 62.321 126.398 62.961L141.768 88.731C142.148 89.371 141.938 90.201 141.298 90.581C141.078 90.711 140.848 90.771 140.608 90.771Z" fill="#8E602A"/>
<path d="M125.369 64.8704C124.929 64.8704 124.499 64.6604 124.239 64.2704C123.829 63.6504 123.999 62.8104 124.619 62.4004L134.199 56.0404C137.349 54.3704 139.779 54.6904 141.769 56.9604C142.259 57.5204 142.199 58.3704 141.639 58.8704C141.079 59.3604 140.219 59.3004 139.729 58.7404C138.779 57.6504 137.749 57.2104 135.579 58.3604L126.119 64.6604C125.889 64.8104 125.629 64.8904 125.369 64.8904V64.8704Z" fill="#8E602A"/>
<path d="M140.859 90.6408C140.419 90.6408 139.989 90.4308 139.729 90.0308C139.319 89.4108 139.489 88.5708 140.119 88.1608L152.559 79.9708C154.219 78.3208 154.119 77.2108 153.399 75.9808C153.029 75.3408 153.249 74.5108 153.889 74.1308C154.529 73.7608 155.359 73.9808 155.739 74.6208C157.239 77.2108 156.789 79.6208 154.349 81.9908C154.289 82.0508 154.219 82.1008 154.149 82.1508L141.599 90.4108C141.369 90.5608 141.109 90.6308 140.859 90.6308V90.6408Z" fill="#8E602A"/>
<path d="M63.9275 93.0407C62.5575 93.0407 61.3175 92.5007 60.3275 91.7107C58.3475 90.1207 57.6675 86.3707 60.0375 83.0807C60.4775 82.4707 61.3175 82.3407 61.9175 82.7707C62.5275 83.2107 62.6575 84.0507 62.2275 84.6507C60.5975 86.9207 61.2975 89.0307 62.0175 89.6007C63.1375 90.5007 64.9275 91.0207 67.0975 88.4207C68.2175 87.0707 69.9475 84.5107 72.8575 79.8507C75.4175 75.7607 85.2475 59.6407 88.7475 53.8807H77.3275C74.1275 53.8807 72.3775 54.4207 72.2875 57.3007C72.2075 60.0407 74.8875 60.8607 75.1875 60.9407C75.9075 61.1407 76.3275 61.8807 76.1375 62.5907C75.9475 63.3107 75.2175 63.7307 74.4975 63.5507C72.7475 63.0907 69.4675 61.1807 69.5875 57.2107C69.7675 51.1807 75.2575 51.1807 77.3275 51.1807H91.1575C91.6475 51.1807 92.0975 51.4407 92.3375 51.8707C92.5775 52.3007 92.5675 52.8207 92.3175 53.2307C92.1775 53.4607 78.2775 76.2807 75.1575 81.2807C72.1375 86.1207 70.4075 88.6907 69.1875 90.1507C67.4375 92.2407 65.6075 93.0307 63.9475 93.0307L63.9275 93.0407Z" fill="#8E602A"/>
<path d="M132.917 77.9111C132.477 77.9111 132.047 77.7011 131.787 77.3011C131.377 76.6811 131.547 75.8411 132.177 75.4311L143.467 68.0111C144.087 67.6011 144.927 67.7711 145.337 68.4011C145.747 69.0211 145.577 69.8611 144.947 70.2711L133.657 77.6911C133.427 77.8411 133.167 77.9111 132.917 77.9111Z" fill="#8E602A"/>
<path d="M4.77931 68.1105C6.44931 68.8505 7.2093 70.7705 6.4893 72.4005C5.7693 74.0005 3.88931 74.7305 2.16931 73.9705C0.329306 73.1505 -0.190697 71.2205 0.479303 69.7205C1.1593 68.1905 2.9993 67.3205 4.7893 68.1205L4.77931 68.1105Z" fill="#8E602A"/>
<path d="M19.1389 56.7505C19.6689 57.0905 20.1589 57.4705 20.6189 57.8905C21.0789 58.3105 21.4189 58.8005 21.6489 59.3505C21.8789 59.9005 21.9489 60.5205 21.8689 61.2205C21.7789 61.9105 21.4589 62.7005 20.8989 63.5705C20.5789 64.0705 20.2489 64.4805 19.8989 64.8205C19.5489 65.1605 19.1989 65.4405 18.8389 65.6705C18.4789 65.9005 18.1189 66.0805 17.7589 66.2205C17.3989 66.3605 17.0489 66.4805 16.7089 66.5705L16.1489 65.1505C16.3789 65.0805 16.6689 64.9905 17.0089 64.9005C17.3489 64.8005 17.6889 64.6805 18.0389 64.5405C18.3889 64.3905 18.7189 64.2205 19.0289 64.0205C19.3389 63.8205 19.5889 63.5805 19.7789 63.2905C20.1789 62.6605 20.3189 62.0705 20.1989 61.5205C20.0689 60.9705 19.7189 60.5105 19.1489 60.1405L7.12891 52.4605L8.65891 50.0605L19.1389 56.7505Z" fill="#8E602A"/>
<path d="M15.9785 40.5904L17.8485 38.4404L30.9685 49.8804L29.0985 52.0304L15.9785 40.5904Z" fill="#8E602A"/>
<path d="M26.6289 29.3606L28.8489 27.5806L33.6689 33.6106L35.8089 22.0106L37.2589 20.8506L35.2289 31.8506L49.9089 33.0106L47.0789 35.2806L34.2089 34.2706L39.7289 41.1706L37.5089 42.9506L26.6289 29.3606Z" fill="#8E602A"/>
<path d="M51.0892 12.2002L66.3792 24.3002L63.8092 25.6402L58.8392 21.6902L52.3892 25.0502L52.6992 31.4302L51.4292 32.0902L50.4492 12.5302L51.0792 12.2002H51.0892ZM52.3192 23.8202L57.8592 20.9302L51.9492 16.2402L52.3192 23.8202Z" fill="#8E602A"/>
<path d="M65.1602 6.41055L67.8802 5.56055L72.7601 21.0905L80.9001 18.5305L81.2401 19.6105L70.3802 23.0205L65.1702 6.41055H65.1602Z" fill="#8E602A"/>
<path d="M90.9485 0.0703125L100.969 16.8003L98.0885 17.1403L94.8385 11.6803L87.6175 12.5403L85.6475 18.6203L84.2285 18.7903L90.2375 0.160312L90.9485 0.0803125V0.0703125ZM87.9875 11.3703L94.1885 10.6303L90.3185 4.15031L87.9875 11.3703Z" fill="#8E602A"/>
<path d="M122.939 9.15046C122.769 9.76046 122.579 10.2905 122.369 10.7605C122.159 11.2305 121.929 11.6705 121.669 12.0705C121.409 12.4805 121.119 12.8705 120.799 13.2405C120.479 13.6205 120.119 14.0105 119.709 14.4205C120.279 15.1705 120.829 15.7805 121.369 16.2505C121.899 16.7105 122.409 16.9805 122.899 17.0305C123.529 17.1105 124.089 17.0405 124.569 16.8405C125.049 16.6405 125.459 16.2305 125.809 15.6105L126.269 15.8505C126.089 16.4005 125.849 16.8805 125.549 17.2905C125.249 17.7005 124.899 18.0305 124.499 18.2805C124.099 18.5405 123.659 18.7105 123.179 18.8105C122.699 18.9105 122.179 18.9205 121.639 18.8605C120.949 18.7805 120.259 18.4905 119.569 18.0005C118.889 17.5105 118.229 16.8805 117.609 16.1205C116.699 16.6805 115.739 17.1105 114.709 17.4105C113.679 17.7105 112.599 17.7905 111.469 17.6505C110.669 17.5605 110.009 17.3805 109.469 17.1405C108.929 16.8905 108.509 16.5805 108.189 16.2105C107.869 15.8405 107.659 15.4105 107.549 14.9305C107.439 14.4505 107.419 13.9305 107.479 13.3805C107.569 12.5905 107.799 11.9005 108.169 11.3305C108.529 10.7505 108.979 10.2505 109.519 9.82046C110.049 9.39046 110.649 9.02046 111.299 8.72046C111.949 8.41046 112.619 8.14046 113.299 7.89046C113.039 7.08046 112.839 6.35046 112.709 5.68046C112.579 5.01046 112.539 4.46046 112.589 4.01046C112.659 3.44046 112.809 2.89046 113.059 2.37046C113.309 1.85046 113.639 1.41046 114.049 1.03046C114.469 0.660463 114.969 0.380463 115.549 0.190463C116.129 0.000463158 116.779 -0.0495368 117.509 0.0404632C118.049 0.100463 118.549 0.240463 119.009 0.460463C119.469 0.680463 119.859 0.960463 120.179 1.31046C120.499 1.66046 120.729 2.07046 120.889 2.54046C121.039 3.01046 121.089 3.53046 121.019 4.10046C120.949 4.66046 120.759 5.15046 120.449 5.54046C120.139 5.93046 119.749 6.28046 119.289 6.57046C118.829 6.86046 118.309 7.11046 117.739 7.32046C117.169 7.53046 116.589 7.74046 116.009 7.95046C116.349 8.86046 116.779 9.78046 117.299 10.7005C117.819 11.6205 118.389 12.5305 119.019 13.4305C119.969 12.5605 120.709 11.7305 121.219 10.9505C121.739 10.1705 122.099 9.49046 122.309 8.88046L122.919 9.14046L122.939 9.15046ZM113.659 8.80046C113.209 9.00046 112.779 9.23046 112.389 9.50046C111.989 9.76046 111.639 10.0505 111.339 10.3605C111.039 10.6705 110.789 11.0105 110.599 11.3805C110.409 11.7405 110.289 12.1405 110.239 12.5505C110.189 13.0205 110.209 13.4705 110.309 13.8905C110.409 14.3205 110.579 14.7005 110.809 15.0305C111.039 15.3605 111.349 15.6405 111.719 15.8605C112.089 16.0805 112.519 16.2205 113.019 16.2805C113.689 16.3605 114.339 16.2805 114.979 16.0505C115.619 15.8205 116.239 15.5105 116.849 15.1305C116.519 14.6605 116.209 14.1605 115.909 13.6405C115.619 13.1205 115.339 12.5905 115.079 12.0505C114.819 11.5105 114.569 10.9705 114.339 10.4205C114.109 9.87046 113.889 9.33046 113.679 8.80046H113.659ZM115.709 7.10046C116.179 6.92046 116.619 6.72046 117.029 6.52046C117.439 6.31046 117.799 6.08046 118.119 5.82046C118.439 5.56046 118.699 5.27046 118.899 4.93046C119.099 4.60046 119.229 4.22046 119.279 3.79046C119.329 3.37046 119.319 3.00046 119.249 2.66046C119.179 2.32046 119.069 2.03046 118.919 1.77046C118.769 1.52046 118.579 1.32046 118.349 1.17046C118.119 1.02046 117.869 0.930463 117.589 0.900463C117.279 0.860463 116.979 0.910463 116.699 1.05046C116.419 1.18046 116.169 1.37046 115.939 1.61046C115.719 1.85046 115.529 2.13046 115.389 2.44046C115.239 2.75046 115.149 3.07046 115.109 3.39046C115.049 3.91046 115.069 4.50046 115.179 5.14046C115.289 5.79046 115.469 6.44046 115.709 7.09046V7.10046Z" fill="#8E602A"/>
<path d="M150.75 9.14055L150.36 10.2005L141.98 7.10055L139.82 12.9405L145.43 15.0105L145.04 16.0705L139.43 14.0005L136.73 21.3105L145.1 24.4105L144.71 25.4705L133.66 21.3805L139.7 5.06055L150.75 9.15055V9.14055Z" fill="#8E602A"/>
<path d="M159.019 13.25L161.479 14.69L153.239 28.73L160.599 33.05L160.029 34.02L150.209 28.26L159.019 13.25Z" fill="#8E602A"/>
<path d="M173.669 22.5508L175.889 24.3408L165.649 36.9908L172.279 42.3608L171.569 43.2408L162.719 36.0808L173.669 22.5508Z" fill="#8E602A"/>
<path d="M187.299 34.5605L189.269 36.6205L176.679 48.6405L174.709 46.5805L187.299 34.5605Z" fill="#8E602A"/>
<path d="M203.67 55.3309L202.74 55.9709L197.67 48.6209L192.55 52.1509L195.94 57.0709L195.01 57.7109L191.62 52.7909L185.2 57.2109L190.27 64.5609L189.34 65.2009L182.66 55.5009L196.99 45.6309L203.67 55.3309Z" fill="#8E602A"/>
<path d="M206.189 72.9804C204.519 73.7304 202.589 73.0304 201.849 71.4104C201.129 69.8104 201.829 67.9104 203.549 67.1404C205.389 66.3104 207.169 67.2004 207.849 68.7004C208.539 70.2304 207.969 72.1704 206.189 72.9804Z" fill="#8E602A"/>
</svg>
