<svg width="881" height="205" viewBox="0 0 881 205" fill="none" xmlns="http://www.w3.org/2000/svg">
<path d="M411.84 94.7633C401.95 94.7633 393.91 86.7233 393.91 76.8333C393.91 66.9433 401.95 58.9033 411.84 58.9033C414.07 58.9033 416.24 59.3033 418.31 60.1033C418.91 60.3333 419.21 61.0033 418.97 61.6033C418.74 62.2033 418.07 62.5033 417.47 62.2633C415.68 61.5733 413.78 61.2133 411.84 61.2133C403.23 61.2133 396.23 68.2133 396.23 76.8233C396.23 85.4333 403.23 92.4333 411.84 92.4333C420.45 92.4333 427.45 85.4333 427.45 76.8233C427.45 72.9933 426.05 69.3033 423.5 66.4433C423.07 65.9633 423.12 65.2333 423.59 64.8033C424.07 64.3733 424.8 64.4233 425.23 64.8933C428.16 68.1833 429.77 72.4133 429.77 76.8233C429.77 86.7133 421.73 94.7533 411.84 94.7533V94.7633Z" fill="white"/>
<path d="M475.301 94.7629C465.411 94.7629 457.371 86.7229 457.371 76.8329C457.371 72.3329 459.041 68.0329 462.081 64.7129C462.511 64.2429 463.251 64.2129 463.721 64.6429C464.191 65.0729 464.221 65.8129 463.791 66.2829C461.141 69.1629 459.691 72.9129 459.691 76.8329C459.691 85.4429 466.691 92.4429 475.301 92.4429C483.911 92.4429 490.911 85.4429 490.911 76.8329C490.911 71.2429 487.891 66.0429 483.031 63.2729C482.471 62.9529 482.281 62.2429 482.601 61.6829C482.921 61.1229 483.631 60.9329 484.191 61.2529C489.771 64.4429 493.241 70.4129 493.241 76.8329C493.241 86.7229 485.201 94.7629 475.311 94.7629H475.301Z" fill="white"/>
<path d="M443.66 78.0032C443.33 78.0032 443.01 77.8632 442.78 77.6032C440.84 75.3632 431.13 64.1032 430.32 62.6032C429.13 60.4132 428.4 54.9332 433.72 51.9832C438.7 49.2332 444.18 53.8432 444.42 54.0332C444.91 54.4532 444.96 55.1832 444.55 55.6732C444.13 56.1632 443.4 56.2232 442.91 55.8032C442.87 55.7632 438.41 52.0432 434.85 54.0132C430.04 56.6732 432.35 61.4432 432.37 61.4932C432.92 62.4932 440.13 70.9732 444.54 76.0732C444.96 76.5632 444.91 77.2932 444.42 77.7132C444.2 77.9032 443.93 77.9932 443.66 77.9932V78.0032Z" fill="white"/>
<path d="M443.66 78.0026C443.39 78.0026 443.12 77.9126 442.9 77.7226C442.41 77.3026 442.36 76.5726 442.78 76.0826C447.19 70.9726 454.4 62.5026 454.95 61.4926C454.97 61.4426 457.28 56.6826 452.47 54.0126C448.91 52.0426 444.45 55.7626 444.41 55.8026C443.92 56.2226 443.19 56.1626 442.77 55.6726C442.35 55.1826 442.41 54.4526 442.9 54.0326C443.13 53.8326 448.62 49.2226 453.6 51.9826C458.92 54.9226 458.18 60.4126 457 62.6026C456.19 64.1026 446.48 75.3526 444.54 77.6026C444.31 77.8726 443.99 78.0026 443.66 78.0026Z" fill="white"/>
<path d="M474.85 78.1127C474.45 78.1127 474.07 77.9127 473.85 77.5427L460.62 55.3627C460.29 54.8127 460.47 54.1027 461.02 53.7727C461.57 53.4427 462.28 53.6227 462.61 54.1727L475.84 76.3527C476.17 76.9027 475.99 77.6127 475.44 77.9427C475.25 78.0527 475.05 78.1027 474.85 78.1027V78.1127Z" fill="white"/>
<path d="M461.731 55.8128C461.351 55.8128 460.981 55.6328 460.761 55.2928C460.401 54.7628 460.551 54.0328 461.091 53.6828L469.331 48.2028C472.041 46.7628 474.141 47.0428 475.841 48.9928C476.261 49.4728 476.211 50.2128 475.731 50.6328C475.251 51.0528 474.511 51.0028 474.091 50.5228C473.271 49.5828 472.391 49.2028 470.511 50.1928L462.371 55.6128C462.171 55.7428 461.951 55.8028 461.731 55.8028V55.8128Z" fill="white"/>
<path d="M475.069 78.003C474.689 78.003 474.319 77.823 474.099 77.483C473.749 76.943 473.899 76.223 474.429 75.873L485.139 68.823C486.569 67.403 486.479 66.453 485.859 65.393C485.539 64.833 485.729 64.123 486.279 63.803C486.829 63.483 487.549 63.673 487.869 64.223C489.159 66.453 488.769 68.533 486.679 70.563C486.629 70.613 486.569 70.663 486.509 70.703L475.709 77.813C475.509 77.943 475.289 78.003 475.069 78.003Z" fill="white"/>
<path d="M408.849 80.063C407.669 80.063 406.599 79.603 405.749 78.923C404.039 77.553 403.459 74.323 405.499 71.493C405.869 70.973 406.599 70.853 407.119 71.223C407.639 71.593 407.759 72.323 407.389 72.843C405.989 74.793 406.589 76.613 407.209 77.103C408.169 77.873 409.709 78.323 411.579 76.093C412.549 74.933 414.029 72.733 416.529 68.713C418.729 65.193 427.189 51.313 430.209 46.363H420.379C417.629 46.363 416.119 46.833 416.039 49.303C415.969 51.663 418.279 52.363 418.539 52.433C419.159 52.603 419.519 53.243 419.359 53.853C419.189 54.473 418.569 54.833 417.949 54.683C416.439 54.293 413.619 52.643 413.719 49.233C413.879 44.043 418.599 44.043 420.379 44.043H432.279C432.699 44.043 433.089 44.273 433.289 44.633C433.499 45.003 433.489 45.443 433.269 45.803C433.149 46.003 421.179 65.643 418.499 69.943C415.899 74.103 414.409 76.313 413.359 77.583C411.859 79.383 410.279 80.063 408.849 80.063Z" fill="white"/>
<path d="M468.23 67.043C467.85 67.043 467.48 66.863 467.26 66.523C466.91 65.983 467.06 65.263 467.59 64.913L477.31 58.533C477.85 58.183 478.57 58.333 478.92 58.863C479.27 59.403 479.12 60.123 478.59 60.473L468.87 66.853C468.67 66.983 468.45 67.043 468.23 67.043Z" fill="white"/>
<path d="M357.941 58.6033C359.381 59.2433 360.031 60.8933 359.411 62.2933C358.791 63.6733 357.171 64.3033 355.691 63.6433C354.111 62.9333 353.661 61.2833 354.241 59.9833C354.831 58.6633 356.411 57.9133 357.951 58.6033H357.941Z" fill="white"/>
<path d="M370.301 48.823C370.761 49.113 371.181 49.443 371.571 49.803C371.961 50.163 372.261 50.583 372.461 51.063C372.661 51.533 372.721 52.073 372.651 52.673C372.581 53.273 372.301 53.943 371.821 54.703C371.551 55.133 371.261 55.483 370.961 55.773C370.661 56.063 370.351 56.303 370.051 56.503C369.741 56.693 369.431 56.853 369.121 56.973C368.811 57.093 368.511 57.193 368.221 57.273L367.741 56.053C367.941 55.993 368.191 55.913 368.481 55.833C368.771 55.753 369.071 55.643 369.371 55.523C369.671 55.393 369.951 55.253 370.221 55.073C370.491 54.903 370.701 54.693 370.861 54.443C371.211 53.903 371.331 53.393 371.221 52.913C371.111 52.443 370.811 52.043 370.321 51.723L359.971 45.113L361.291 43.043L370.311 48.803L370.301 48.823Z" fill="white"/>
<path d="M367.58 34.9232L369.19 33.0732L380.48 42.9132L378.87 44.7632L367.58 34.9232Z" fill="white"/>
<path d="M376.75 25.2526L378.66 23.7226L382.81 28.9126L384.65 18.9326L385.9 17.9326L384.16 27.4026L396.79 28.4026L394.35 30.3526L383.27 29.4826L388.02 35.4226L386.11 36.9526L376.75 25.2626V25.2526Z" fill="white"/>
<path d="M397.8 10.4834L410.96 20.9034L408.75 22.0534L404.47 18.6534L398.92 21.5434L399.19 27.0334L398.1 27.6034L397.25 10.7734L397.8 10.4934V10.4834ZM398.86 20.4834L403.63 18.0034L398.54 13.9634L398.86 20.4834Z" fill="white"/>
<path d="M409.91 5.50344L412.25 4.77344L416.45 18.1434L423.46 15.9434L423.75 16.8734L414.4 19.8034L409.91 5.51344V5.50344Z" fill="white"/>
<path d="M432.11 0.0429688L440.74 14.443L438.26 14.743L435.46 10.043L429.25 10.783L427.56 16.013L426.34 16.163L431.5 0.122968L432.11 0.0529688V0.0429688ZM429.56 9.76297L434.9 9.12297L431.57 3.54297L429.56 9.75297V9.76297Z" fill="white"/>
<path d="M459.641 7.8631C459.491 8.3831 459.331 8.8431 459.151 9.2531C458.971 9.6531 458.771 10.0331 458.551 10.3831C458.331 10.7331 458.081 11.0731 457.801 11.3931C457.521 11.7131 457.211 12.0531 456.871 12.4131C457.361 13.0631 457.841 13.5831 458.301 13.9831C458.761 14.3831 459.201 14.6031 459.621 14.6531C460.171 14.7131 460.641 14.6531 461.061 14.4831C461.471 14.3131 461.831 13.9531 462.131 13.4231L462.531 13.6331C462.381 14.1131 462.171 14.5231 461.911 14.8731C461.651 15.2231 461.351 15.5031 461.011 15.7231C460.671 15.9431 460.291 16.0931 459.871 16.1831C459.451 16.2631 459.011 16.2831 458.551 16.2231C457.951 16.1531 457.361 15.9031 456.771 15.4831C456.181 15.0631 455.621 14.5231 455.081 13.8631C454.301 14.3431 453.471 14.7131 452.591 14.9731C451.711 15.2331 450.781 15.3031 449.801 15.1831C449.121 15.1031 448.541 14.9531 448.081 14.7431C447.621 14.5331 447.251 14.2631 446.981 13.9431C446.711 13.6231 446.521 13.2531 446.431 12.8431C446.331 12.4331 446.321 11.9831 446.371 11.5031C446.451 10.8231 446.651 10.2331 446.961 9.7331C447.271 9.2331 447.661 8.8031 448.121 8.4331C448.581 8.0631 449.091 7.7431 449.661 7.4831C450.221 7.2231 450.801 6.9831 451.381 6.7731C451.151 6.0831 450.981 5.4431 450.871 4.8731C450.761 4.3031 450.721 3.8231 450.771 3.4431C450.831 2.9531 450.961 2.4831 451.171 2.0331C451.381 1.5831 451.671 1.2031 452.031 0.883093C452.391 0.563093 452.821 0.323093 453.321 0.163093C453.821 0.00309376 454.381 -0.0369062 455.011 0.0330938C455.471 0.0930935 455.911 0.213093 456.301 0.393093C456.691 0.583093 457.031 0.823094 457.301 1.1231C457.571 1.4231 457.781 1.7831 457.911 2.1831C458.041 2.5931 458.081 3.0331 458.021 3.5231C457.961 4.0131 457.801 4.4231 457.531 4.7631C457.261 5.1031 456.931 5.3931 456.531 5.6431C456.131 5.8931 455.691 6.1131 455.201 6.2931C454.711 6.4731 454.211 6.6531 453.711 6.8331C454.001 7.6231 454.371 8.4031 454.821 9.2031C455.271 9.9931 455.761 10.7831 456.301 11.5531C457.121 10.8031 457.751 10.0931 458.201 9.4231C458.641 8.7531 458.961 8.1631 459.141 7.6431L459.671 7.8631H459.641ZM451.651 7.5631C451.261 7.7331 450.901 7.9331 450.561 8.1631C450.221 8.3931 449.921 8.6331 449.661 8.9031C449.401 9.1731 449.191 9.4631 449.021 9.7731C448.851 10.0831 448.751 10.4231 448.711 10.7831C448.661 11.1831 448.681 11.5731 448.771 11.9431C448.861 12.3131 449.001 12.6331 449.201 12.9231C449.401 13.2131 449.661 13.4431 449.981 13.6331C450.301 13.8231 450.671 13.9431 451.101 13.9931C451.671 14.0631 452.241 13.9931 452.791 13.7931C453.341 13.5931 453.881 13.3331 454.401 13.0031C454.121 12.5931 453.851 12.1731 453.591 11.7231C453.341 11.2731 453.101 10.8231 452.871 10.3631C452.641 9.9031 452.431 9.4331 452.231 8.9531C452.031 8.4831 451.841 8.0131 451.661 7.5631H451.651ZM453.421 6.1031C453.821 5.9431 454.201 5.7831 454.551 5.6031C454.901 5.4231 455.221 5.2231 455.491 5.0031C455.761 4.7831 455.991 4.5231 456.161 4.2431C456.331 3.9531 456.441 3.6331 456.491 3.2631C456.531 2.9031 456.531 2.5831 456.471 2.2831C456.411 1.9931 456.321 1.7331 456.181 1.5231C456.051 1.3031 455.881 1.1331 455.691 1.0031C455.491 0.873093 455.281 0.793093 455.041 0.763093C454.771 0.733093 454.511 0.773093 454.271 0.893093C454.031 1.0131 453.811 1.1731 453.621 1.3831C453.431 1.5931 453.271 1.8331 453.141 2.1031C453.011 2.3731 452.931 2.6431 452.901 2.9231C452.851 3.3731 452.871 3.8731 452.961 4.4331C453.051 4.9931 453.211 5.5531 453.421 6.1131V6.1031Z" fill="white"/>
<path d="M483.581 7.85324L483.241 8.76324L476.031 6.09324L474.171 11.1132L479.001 12.9032L478.661 13.8132L473.831 12.0232L471.501 18.3132L478.711 20.9832L478.371 21.8932L468.861 18.3732L474.061 4.32324L483.571 7.84324L483.581 7.85324Z" fill="white"/>
<path d="M490.701 11.3828L492.821 12.6228L485.731 24.7028L492.061 28.4228L491.571 29.2628L483.121 24.3028L490.701 11.3828Z" fill="white"/>
<path d="M503.311 19.3828L505.221 20.9228L496.411 31.8128L502.121 36.4328L501.511 37.1928L493.891 31.0328L503.311 19.3828Z" fill="white"/>
<path d="M515.041 29.7334L516.731 31.5034L505.891 41.8534L504.201 40.0834L515.031 29.7334H515.041Z" fill="white"/>
<path d="M529.121 47.6029L528.321 48.1529L523.961 41.8229L519.551 44.8629L522.471 49.1029L521.671 49.6529L518.751 45.4129L513.221 49.2229L517.581 55.5529L516.781 56.1029L511.031 47.7529L523.371 39.2529L529.121 47.6029Z" fill="white"/>
<path d="M531.291 62.8032C529.861 63.4532 528.191 62.8432 527.561 61.4432C526.941 60.0632 527.551 58.4332 529.021 57.7732C530.601 57.0632 532.141 57.8232 532.721 59.1132C533.311 60.4232 532.831 62.1032 531.291 62.7932V62.8032Z" fill="white"/>
<path d="M0 143.442H24.06C27.22 143.442 30.13 143.792 32.79 144.502C35.45 145.212 37.73 146.212 39.63 147.502C41.53 148.802 43.01 150.342 44.07 152.142C45.13 153.942 45.66 155.932 45.66 158.122C45.66 159.732 45.49 161.192 45.16 162.482C44.82 163.772 44.23 164.972 43.39 166.062C42.55 167.152 41.43 168.192 40.04 169.162C38.64 170.142 36.89 171.132 34.77 172.142V172.342C36.89 172.682 38.81 173.252 40.52 174.052C42.24 174.862 43.71 175.892 44.93 177.152C46.16 178.412 47.1 179.872 47.76 181.512C48.42 183.162 48.74 184.992 48.74 187.012C48.74 189.262 48.24 191.372 47.25 193.342C46.26 195.312 44.85 197.012 43.04 198.462C41.23 199.912 39.03 201.052 36.46 201.892C33.89 202.732 31.02 203.152 27.86 203.152H0V143.422V143.442ZM10.04 170.332H22.8C24.82 170.332 26.61 170.042 28.17 169.472C29.73 168.902 31.05 168.112 32.13 167.102C33.21 166.092 34.02 164.902 34.58 163.522C35.13 162.142 35.41 160.642 35.41 159.032C35.41 157.282 35.08 155.692 34.43 154.262C33.77 152.832 32.75 151.612 31.35 150.602C29.95 149.592 28.18 148.812 26.03 148.252C23.88 147.702 21.3 147.422 18.31 147.422H10.04V170.322V170.332ZM10.04 198.782H20.89C23.82 198.782 26.35 198.502 28.48 197.952C30.62 197.402 32.38 196.612 33.78 195.602C35.18 194.592 36.21 193.392 36.88 191.992C37.55 190.592 37.89 189.042 37.89 187.322C37.89 185.442 37.59 183.692 36.98 182.072C36.37 180.462 35.39 179.052 34.03 177.862C32.67 176.672 30.88 175.732 28.68 175.042C26.48 174.352 23.78 174.002 20.58 174.002H10.04V198.772V198.782Z" fill="white"/>
<path d="M102.01 143.443V147.273H70.5302V168.663H91.5702V172.493H70.5302V199.333H102.01V203.163H60.4902V143.433H102.01V143.443Z" fill="white"/>
<path d="M162.75 143.443V147.273H141.11V203.173H131.07V147.273H109.43V143.443H162.75Z" fill="white"/>
<path d="M221.57 143.443V147.273H199.93V203.173H189.89V147.273H168.25V143.443H221.57Z" fill="white"/>
<path d="M274.389 143.443V147.273H242.909V168.663H263.949V172.493H242.909V199.333H274.389V203.163H232.869V143.433H274.389V143.443Z" fill="white"/>
<path d="M287.6 143.443H308.23C311.83 143.443 314.98 143.833 317.69 144.603C320.4 145.383 322.66 146.453 324.48 147.833C326.3 149.213 327.66 150.863 328.57 152.773C329.48 154.693 329.93 156.773 329.93 159.033C329.93 160.883 329.58 162.613 328.87 164.233C328.16 165.853 327.16 167.303 325.87 168.593C324.58 169.883 323.03 171.013 321.23 171.973C319.43 172.933 317.45 173.663 315.3 174.173L337.04 203.183H325.39L304.66 175.083H297.65V203.183H287.61V143.453L287.6 143.443ZM297.64 172.103H303.39C305.64 172.103 307.73 171.813 309.65 171.223C311.57 170.633 313.22 169.783 314.62 168.673C316.02 167.563 317.11 166.223 317.9 164.633C318.69 163.053 319.09 161.283 319.09 159.333C319.09 157.553 318.78 155.923 318.16 154.443C317.54 152.963 316.67 151.683 315.56 150.613C314.45 149.533 313.12 148.693 311.57 148.093C310.02 147.483 308.32 147.183 306.47 147.183H297.64V172.103Z" fill="white"/>
<path d="M415.791 143.443V147.273H394.151V203.173H384.111V147.273H362.471V143.443H415.791Z" fill="white"/>
<path d="M454.729 204.593C451.639 204.593 448.679 204.213 445.849 203.463C443.019 202.703 440.389 201.643 437.949 200.263C435.509 198.883 433.289 197.233 431.289 195.323C429.289 193.403 427.589 191.273 426.189 188.913C424.789 186.563 423.709 184.033 422.939 181.343C422.169 178.653 421.779 175.863 421.779 172.973C421.779 170.083 422.169 167.373 422.939 164.753C423.709 162.133 424.799 159.673 426.189 157.383C427.589 155.093 429.279 153.013 431.289 151.133C433.289 149.253 435.509 147.643 437.949 146.313C440.389 144.983 443.019 143.953 445.849 143.213C448.679 142.473 451.629 142.103 454.729 142.103C459.369 142.103 463.689 142.913 467.699 144.523C471.699 146.133 475.169 148.343 478.119 151.133C481.059 153.923 483.379 157.193 485.079 160.943C486.779 164.693 487.629 168.703 487.629 172.973C487.629 175.863 487.239 178.653 486.469 181.343C485.699 184.033 484.609 186.553 483.219 188.913C481.819 191.273 480.129 193.403 478.149 195.323C476.169 197.243 473.949 198.893 471.519 200.263C469.089 201.633 466.449 202.713 463.619 203.463C460.789 204.223 457.829 204.593 454.739 204.593H454.729ZM454.729 201.613C458.129 201.613 461.139 200.903 463.759 199.473C466.379 198.043 468.589 196.053 470.389 193.493C472.189 190.933 473.549 187.913 474.479 184.413C475.399 180.913 475.869 177.103 475.869 172.963C475.869 168.823 475.409 165.103 474.479 161.683C473.549 158.273 472.189 155.323 470.389 152.853C468.589 150.383 466.379 148.453 463.759 147.073C461.139 145.693 458.129 145.003 454.729 145.003C451.329 145.003 448.159 145.693 445.519 147.073C442.879 148.453 440.669 150.373 438.889 152.853C437.109 155.323 435.769 158.273 434.879 161.683C433.989 165.093 433.539 168.853 433.539 172.963C433.539 177.073 433.989 180.913 434.879 184.413C435.769 187.913 437.109 190.943 438.889 193.493C440.669 196.053 442.879 198.043 445.519 199.473C448.159 200.903 451.229 201.613 454.729 201.613Z" fill="white"/>
<path d="M536.16 146.373C532.56 146.373 529.24 147.013 526.2 148.293C523.16 149.573 520.53 151.403 518.33 153.793C516.13 156.183 514.41 159.063 513.18 162.443C511.95 165.823 511.34 169.603 511.34 173.773C511.34 177.943 512.01 181.763 513.36 185.123C514.7 188.483 516.54 191.363 518.86 193.753C521.18 196.143 523.91 197.973 527.03 199.253C530.16 200.533 533.52 201.173 537.12 201.173C539.74 201.173 542.11 200.813 544.23 200.083C546.35 199.363 548.25 198.343 549.93 197.033V176.093H538.63V172.513H559.97V198.803C558.22 199.743 556.45 200.573 554.67 201.303C552.89 202.023 550.97 202.633 548.92 203.123C546.87 203.613 544.61 203.983 542.16 204.233C539.7 204.483 536.91 204.613 533.78 204.613C528.84 204.613 524.27 203.793 520.08 202.163C515.89 200.533 512.28 198.323 509.23 195.533C506.19 192.743 503.81 189.473 502.12 185.723C500.42 181.973 499.57 177.993 499.57 173.793C499.57 169.593 500.39 165.573 502.02 161.733C503.65 157.903 505.95 154.523 508.91 151.613C511.87 148.703 515.4 146.393 519.5 144.673C523.6 142.963 528.13 142.103 533.07 142.103C536.23 142.103 539.16 142.533 541.85 143.393C544.54 144.253 546.99 145.383 549.19 146.803C551.39 148.213 553.35 149.853 555.07 151.693C556.78 153.543 558.26 155.473 559.51 157.493L555.17 160.423C552.68 155.583 549.89 152.033 546.8 149.783C543.71 147.533 540.16 146.403 536.16 146.403V146.373Z" fill="white"/>
<path d="M617.481 143.443V147.273H586.001V168.663H607.041V172.493H586.001V199.333H617.481V203.163H575.961V143.433H617.481V143.443Z" fill="white"/>
<path d="M678.22 143.443V147.273H656.58V203.173H646.54V147.273H624.9V143.443H678.22Z" fill="white"/>
<path d="M699.56 174.524V203.184H689.52V143.454H699.56V170.694H729.58V143.454H739.62V203.184H729.58V174.524H699.56Z" fill="white"/>
<path d="M798.18 143.443V147.273H766.7V168.663H787.74V172.493H766.7V199.333H798.18V203.163H756.66V143.433H798.18V143.443Z" fill="white"/>
<path d="M811.4 143.443H832.03C835.63 143.443 838.78 143.833 841.49 144.603C844.2 145.383 846.46 146.453 848.28 147.833C850.1 149.213 851.46 150.863 852.37 152.773C853.28 154.693 853.73 156.773 853.73 159.033C853.73 160.883 853.38 162.613 852.67 164.233C851.96 165.853 850.96 167.303 849.67 168.593C848.37 169.883 846.83 171.013 845.03 171.973C843.23 172.933 841.25 173.663 839.1 174.173L860.84 203.183H849.19L828.46 175.083H821.45V203.183H811.41V143.453L811.4 143.443ZM821.44 172.103H827.19C829.44 172.103 831.53 171.813 833.45 171.223C835.37 170.633 837.02 169.783 838.42 168.673C839.81 167.563 840.91 166.223 841.7 164.633C842.49 163.053 842.89 161.283 842.89 159.333C842.89 157.553 842.58 155.923 841.96 154.443C841.34 152.963 840.47 151.683 839.36 150.613C838.25 149.533 836.92 148.693 835.37 148.093C833.82 147.483 832.12 147.183 830.27 147.183H821.44V172.103Z" fill="white"/>
<path d="M874.26 187.893C874.13 184.593 873.86 181.263 873.45 177.883C873.05 174.503 872.62 171.153 872.16 167.843C871.7 164.533 871.3 161.293 870.95 158.133C870.6 154.973 870.42 151.973 870.42 149.153C870.42 148.043 870.57 147.053 870.87 146.173C871.17 145.303 871.57 144.563 872.06 143.953C872.55 143.343 873.1 142.883 873.72 142.563C874.34 142.243 874.99 142.083 875.66 142.083C877.17 142.083 878.43 142.703 879.44 143.953C880.45 145.203 880.95 146.933 880.95 149.153C880.95 151.983 880.76 154.973 880.39 158.133C880.02 161.293 879.61 164.533 879.15 167.843C878.69 171.153 878.26 174.503 877.84 177.883C877.42 181.263 877.14 184.603 877.01 187.893H874.24H874.26ZM875.67 195.103C876.34 195.103 876.98 195.233 877.59 195.483C878.2 195.733 878.72 196.073 879.15 196.493C879.59 196.913 879.93 197.413 880.18 198.003C880.43 198.593 880.56 199.203 880.56 199.843C880.56 200.513 880.43 201.133 880.18 201.713C879.93 202.283 879.58 202.783 879.15 203.203C878.71 203.623 878.19 203.963 877.59 204.213C876.98 204.463 876.35 204.593 875.67 204.593C874.99 204.593 874.36 204.473 873.75 204.213C873.14 203.963 872.62 203.623 872.19 203.203C871.75 202.783 871.41 202.283 871.16 201.713C870.91 201.143 870.78 200.523 870.78 199.843C870.78 199.203 870.91 198.593 871.16 198.003C871.41 197.413 871.76 196.913 872.19 196.493C872.63 196.073 873.15 195.733 873.75 195.483C874.36 195.233 874.99 195.103 875.67 195.103Z" fill="white"/>
</svg>
