<svg width="895" height="246" viewBox="0 0 895 246" fill="none" xmlns="http://www.w3.org/2000/svg">
<g clip-path="url(#clip0_1309_377)">
<path d="M273.74 120.42C296.35 120.42 314.65 142 314.65 182.21C314.65 222.42 296.18 243.49 273.57 243.49C250.96 243.49 232.32 222.09 232.32 182.21C232.32 142.33 250.96 120.42 273.75 120.42H273.74ZM297.73 182.9C297.73 147 288.06 124.56 273.56 124.56C259.06 124.56 249.22 147 249.22 182.9C249.22 218.8 259.06 240.55 273.56 240.55C288.06 240.55 297.73 218.11 297.73 182.9Z" fill="#E6E1DA"/>
<path d="M343.991 218.12C344.511 217.95 344.851 218.12 345.031 218.64C349.521 232.79 366.091 241.94 380.411 240.56C397.671 239.18 407.511 222.09 407.511 206.21C407.511 182.74 393.871 169.79 375.401 169.79C365.041 169.79 353.821 173.76 342.091 182.56C341.571 183.08 340.711 182.56 340.711 181.87V123.18C340.711 122.66 341.051 122.32 341.571 122.32H410.441C410.961 122.32 411.301 122.67 411.301 123.18V134.74C411.301 135.26 410.951 135.43 410.441 135.43H348.991C348.471 135.43 348.131 135.78 348.131 136.29V171.33C348.131 172.02 348.821 172.54 349.341 172.02C359.701 165.63 370.231 162.7 380.061 162.7C403.881 162.7 424.071 178.06 424.071 202.4C424.071 227.95 403.361 245.03 379.021 245.03C363.141 245.03 344.671 237.09 340.531 220.52C340.531 220.17 340.701 219.83 341.051 219.66C341.911 219.14 342.781 218.62 343.981 218.11L343.991 218.12Z" fill="#E6E1DA"/>
<path d="M455.14 226.92C459.8 226.92 463.6 230.72 463.6 235.55C463.6 240.38 459.8 244.18 455.14 244.18C450.48 244.18 446.51 240.38 446.51 235.55C446.51 230.72 450.48 226.92 455.14 226.92Z" fill="#E6E1DA"/>
<path d="M520.561 120.42C543.171 120.42 561.471 142 561.471 182.21C561.471 222.42 543.001 243.49 520.391 243.49C497.781 243.49 479.141 222.09 479.141 182.21C479.141 142.33 497.781 120.42 520.571 120.42H520.561ZM544.551 182.9C544.551 147 534.881 124.56 520.381 124.56C505.881 124.56 496.041 147 496.041 182.9C496.041 218.8 505.881 240.55 520.381 240.55C534.881 240.55 544.551 218.11 544.551 182.9Z" fill="#E6E1DA"/>
<path d="M617.041 120.6C638.621 120.6 651.041 133.72 651.041 147.35C651.041 156.5 645.341 165.82 632.921 171.51C632.231 171.68 632.231 172.72 633.091 172.89C652.941 177.55 661.741 191.53 661.741 205.34C661.741 226.05 643.791 244.87 618.421 244.87C600.121 244.87 586.831 235.03 581.311 224.16C580.791 223.64 580.971 223.3 581.661 223.12L583.901 222.08C584.251 221.91 584.591 222.08 584.941 222.43C591.841 235.38 605.141 239.17 614.281 239.17C633.611 239.17 645.521 224.5 645.521 206.55C645.521 188.6 636.031 178.24 618.081 176.86C617.221 176.86 617.041 175.65 617.731 175.48C630.161 170.13 636.541 159.25 636.541 147.52C636.541 135.79 629.641 124.91 616.351 124.91L616.521 125.08C601.501 125.08 591.491 134.4 585.451 146.31C585.281 147 584.761 147 584.241 146.48C583.381 145.79 582.511 144.93 581.311 144.06C581.141 143.89 580.971 143.54 580.971 143.2C585.981 130.77 599.441 120.59 617.041 120.59V120.6Z" fill="#E6E1DA"/>
<path d="M21.2098 178.49C21.2098 172.93 17.7798 169.69 13.6698 169.69C10.7198 169.69 7.42979 171.38 4.96978 175.11C4.91978 175.16 4.82979 175.21 4.77979 175.21H3.80979C3.66979 175.21 3.51979 175.02 3.66979 174.87C6.13979 171 9.66979 168.58 14.3098 168.58C19.7298 168.58 25.6298 172.16 25.6298 178.01C25.6298 180.52 24.8998 183.14 23.2098 185.65C19.7298 191.07 13.5898 196 9.61978 198.8C9.42978 198.94 9.51979 199.19 9.76979 199.19H23.8398C23.9798 199.19 24.0298 199.29 24.0298 199.43V202.67C24.0298 202.82 23.9798 202.86 23.8398 202.86H3.45979C3.21979 202.86 3.11979 202.62 3.31979 202.47C7.61979 198.94 21.2098 188.83 21.2098 178.49Z" fill="#E6E1DA"/>
<path d="M46.4498 168.48C52.7798 168.48 57.9098 174.52 57.9098 185.79C57.9098 197.06 52.7398 202.96 46.3998 202.96C40.0598 202.96 34.8398 196.96 34.8398 185.79C34.8398 174.62 40.0598 168.48 46.4498 168.48ZM53.1698 185.98C53.1698 175.92 50.4598 169.64 46.3998 169.64C42.3398 169.64 39.5798 175.93 39.5798 185.98C39.5798 196.03 42.3398 202.13 46.3998 202.13C50.4598 202.13 53.1698 195.84 53.1698 185.98Z" fill="#E6E1DA"/>
<path d="M83.5902 178.49C83.5902 172.93 80.1602 169.69 76.0502 169.69C73.1002 169.69 69.8102 171.38 67.3502 175.11C67.3002 175.16 67.2102 175.21 67.1602 175.21H66.1902C66.0502 175.21 65.9002 175.02 66.0502 174.87C68.5202 171 72.0502 168.58 76.6902 168.58C82.1102 168.58 88.0102 172.16 88.0102 178.01C88.0102 180.52 87.2802 183.14 85.5902 185.65C82.1102 191.07 75.9702 196 72.0002 198.8C71.8102 198.94 71.9002 199.19 72.1502 199.19H86.2202C86.3702 199.19 86.4102 199.29 86.4102 199.43V202.67C86.4102 202.82 86.3602 202.86 86.2202 202.86H65.8602C65.6202 202.86 65.5202 202.62 65.7202 202.47C70.0202 198.94 83.6102 188.83 83.6102 178.49H83.5902Z" fill="#E6E1DA"/>
<path d="M99.6397 195.85C99.7797 195.8 99.8797 195.85 99.9297 196C101.19 199.97 105.83 202.53 109.84 202.14C114.68 201.75 117.43 196.97 117.43 192.52C117.43 185.94 113.61 182.32 108.44 182.32C105.54 182.32 102.4 183.43 99.1097 185.9C98.9697 186.04 98.7197 185.9 98.7197 185.71V169.27C98.7197 169.13 98.8197 169.03 98.9597 169.03H118.25C118.4 169.03 118.49 169.13 118.49 169.27V172.51C118.49 172.65 118.39 172.7 118.25 172.7H101.04C100.89 172.7 100.8 172.8 100.8 172.94V182.76C100.8 182.95 100.99 183.1 101.14 182.95C104.04 181.16 106.99 180.34 109.75 180.34C116.42 180.34 122.08 184.64 122.08 191.46C122.08 198.62 116.28 203.4 109.46 203.4C105.01 203.4 99.8397 201.18 98.6797 196.53C98.6797 196.43 98.7297 196.34 98.8297 196.29C99.0697 196.15 99.3097 196 99.6497 195.85H99.6397Z" fill="#E6E1DA"/>
<path d="M768.18 173.27C768.18 173.27 768.23 173.13 768.28 173.08L774.66 168.58L774.76 168.53H775.15C775.29 168.53 775.34 168.63 775.34 168.77V202.67C775.34 202.82 775.29 202.86 775.15 202.86H770.99C770.84 202.86 770.75 202.81 770.75 202.67V174.09C770.75 173.94 770.7 173.85 770.56 173.85L768.38 173.8C768.23 173.8 768.19 173.75 768.19 173.61V173.27H768.18Z" fill="#E6E1DA"/>
<path d="M788.88 195.85C789.03 195.8 789.12 195.85 789.17 196C790.43 199.97 795.07 202.53 799.08 202.14C803.92 201.75 806.67 196.97 806.67 192.52C806.67 185.94 802.85 182.32 797.68 182.32C794.78 182.32 791.64 183.43 788.35 185.9C788.2 186.04 787.96 185.9 787.96 185.71V169.27C787.96 169.13 788.06 169.03 788.2 169.03H807.49C807.64 169.03 807.73 169.13 807.73 169.27V172.51C807.73 172.65 807.63 172.7 807.49 172.7H790.28C790.13 172.7 790.04 172.8 790.04 172.94V182.76C790.04 182.95 790.23 183.1 790.38 182.95C793.28 181.16 796.23 180.34 798.99 180.34C805.66 180.34 811.32 184.64 811.32 191.46C811.32 198.62 805.52 203.4 798.7 203.4C794.25 203.4 789.08 201.18 787.92 196.53C787.92 196.43 787.97 196.34 788.06 196.29C788.3 196.15 788.54 196 788.88 195.85Z" fill="#E6E1DA"/>
<path d="M827.179 179.6C827.179 180.95 826.159 182.02 824.859 182.02C823.559 182.02 822.439 180.96 822.439 179.6C822.439 178.24 823.499 177.23 824.859 177.23C826.219 177.23 827.179 178.25 827.179 179.6ZM824.859 194.98C826.169 194.98 827.179 196.04 827.179 197.35C827.179 198.75 826.159 199.77 824.859 199.77C823.559 199.77 822.439 198.75 822.439 197.35C822.439 196.04 823.499 194.98 824.859 194.98Z" fill="#E6E1DA"/>
<path d="M849.899 168.48C856.229 168.48 861.359 174.52 861.359 185.79C861.359 197.06 856.189 202.96 849.849 202.96C843.509 202.96 838.289 196.96 838.289 185.79C838.289 174.62 843.509 168.48 849.899 168.48ZM856.619 185.98C856.619 175.92 853.909 169.64 849.849 169.64C845.789 169.64 843.029 175.93 843.029 185.98C843.029 196.03 845.789 202.13 849.849 202.13C853.909 202.13 856.619 195.84 856.619 185.98Z" fill="#E6E1DA"/>
<path d="M882.639 168.48C888.969 168.48 894.099 174.52 894.099 185.79C894.099 197.06 888.929 202.96 882.589 202.96C876.249 202.96 871.029 196.96 871.029 185.79C871.029 174.62 876.249 168.48 882.639 168.48ZM889.359 185.98C889.359 175.92 886.649 169.64 882.589 169.64C878.529 169.64 875.769 175.93 875.769 185.98C875.769 196.03 878.529 202.13 882.589 202.13C886.649 202.13 889.359 195.84 889.359 185.98Z" fill="#E6E1DA"/>
<path d="M0 135.53H125.34" stroke="#E6E1DA" stroke-width="2.77" stroke-miterlimit="10"/>
<path d="M0 235.57H125.34" stroke="#E6E1DA" stroke-width="2.77" stroke-miterlimit="10"/>
<path d="M766.75 135.53H892.09" stroke="#E6E1DA" stroke-width="2.77" stroke-miterlimit="10"/>
<path d="M766.75 235.57H892.09" stroke="#E6E1DA" stroke-width="2.77" stroke-miterlimit="10"/>
<path d="M323.5 35.4102C323.57 34.8902 323.82 34.4602 324.25 34.1302C324.68 33.8002 325.15 33.6902 325.67 33.8002L327.34 34.0802C327.9 34.1902 328.34 34.4702 328.67 34.9102C329 35.3502 329.13 35.8402 329.06 36.3602C328.47 40.6602 327.65 44.2902 326.61 47.2602C326.42 47.7802 326.08 48.1202 325.58 48.2902C325.08 48.4602 324.59 48.4102 324.11 48.1502C323.59 47.8902 323.05 47.6502 322.5 47.4302C322.02 47.2102 321.68 46.8402 321.5 46.3202C321.39 46.0602 321.33 45.8002 321.33 45.5402C321.33 45.3202 321.37 45.1002 321.44 44.8702C322.33 42.3902 323.02 39.2402 323.5 35.4202V35.4102ZM336.4 22.2902C336.14 21.8102 336.09 21.3202 336.26 20.8202C336.43 20.3202 336.75 19.9602 337.23 19.7402L338.4 19.2402C338.92 19.0202 339.45 18.9902 339.98 19.1602C340.52 19.3302 340.92 19.6502 341.18 20.1302C342.88 23.2102 344.14 26.0002 344.96 28.5202C345.11 29.0802 345.06 29.6102 344.82 30.1302C344.58 30.6502 344.2 31.0202 343.68 31.2402L342.12 31.9602C341.68 32.1802 341.22 32.1802 340.76 31.9602C340.3 31.7402 339.99 31.3902 339.84 30.9002C339.77 30.6402 339.69 30.3402 339.62 30.0102C339.55 29.8302 339.43 29.7302 339.29 29.7302L336.51 29.9502C336.36 29.9502 336.29 30.0402 336.29 30.2302V51.4102C336.29 51.9302 336.1 52.3802 335.71 52.7702C335.32 53.1602 334.87 53.3502 334.35 53.3502H332.29C331.73 53.3502 331.26 53.1602 330.87 52.7702C330.48 52.3802 330.29 51.9302 330.29 51.4102V30.6902C330.29 30.5002 330.22 30.4302 330.07 30.4702C328.74 30.5402 326.66 30.6702 323.84 30.8602C323.32 30.9002 322.85 30.7402 322.42 30.3902C321.99 30.0402 321.76 29.5802 321.73 29.0302L321.51 27.0802C321.47 26.5202 321.63 26.0402 321.98 25.6302C322.33 25.2202 322.77 25.0202 323.29 25.0202L325.29 24.9102C325.44 24.9102 325.57 24.8502 325.68 24.7402C326.61 23.5902 327.38 22.5402 328.01 21.5702C328.12 21.4602 328.12 21.3302 328.01 21.1802C326.71 19.3302 324.95 17.2502 322.73 14.9502C322.32 14.5402 322.09 14.0602 322.04 13.5002C321.98 12.9402 322.12 12.4302 322.46 11.9402L323.63 10.2202C323.85 9.89016 324.18 9.69016 324.6 9.64016C325.03 9.58016 325.41 9.69016 325.74 9.95016C325.85 10.0602 325.92 10.0602 325.96 9.95016C327.26 7.39016 328.41 4.76016 329.41 2.06016C329.6 1.54016 329.93 1.17016 330.41 0.950156C330.89 0.730156 331.39 0.690156 331.91 0.840156L334.13 1.67016C334.65 1.82016 335 2.14016 335.19 2.64016C335.37 3.14016 335.34 3.61016 335.08 4.06016C332.89 8.25016 331.11 11.4402 329.74 13.6202C329.63 13.7302 329.63 13.8602 329.74 14.0102C330.26 14.5702 330.81 15.2302 331.41 16.0102C331.52 16.1202 331.61 16.1202 331.69 16.0102C333.25 13.6002 334.65 11.1402 335.92 8.62016C336.18 8.14016 336.57 7.80016 337.09 7.59016C337.61 7.39016 338.13 7.40016 338.65 7.62016L340.76 8.51016C341.24 8.70016 341.56 9.04016 341.71 9.54016C341.86 10.0402 341.78 10.4902 341.49 10.9002C338.08 16.2002 334.87 20.7402 331.87 24.5202C331.83 24.5602 331.82 24.5902 331.84 24.6302C331.86 24.6702 331.9 24.6902 331.98 24.6902L337.21 24.4102C337.36 24.4102 337.41 24.3402 337.38 24.1902C337.01 23.4902 336.69 22.8602 336.43 22.3002L336.4 22.2902ZM337.12 36.5202C336.93 36.0402 336.95 35.5602 337.18 35.0702C337.4 34.5902 337.77 34.2602 338.29 34.0702L339.51 33.6802C340.07 33.5302 340.6 33.5702 341.12 33.7902C341.64 34.0102 341.99 34.3802 342.18 34.9002C343.14 37.2002 343.96 39.5302 344.63 41.9002C344.78 42.4202 344.72 42.9302 344.46 43.4302C344.2 43.9302 343.79 44.2702 343.24 44.4602L341.63 45.0202C341.15 45.2102 340.68 45.1702 340.24 44.9102C339.8 44.6502 339.5 44.2602 339.35 43.7402C338.87 41.5502 338.13 39.1402 337.13 36.5102L337.12 36.5202ZM374.65 11.6702C374.65 12.2302 374.46 12.6902 374.07 13.0602C373.68 13.4302 373.23 13.6202 372.71 13.6202H362.42C362.27 13.6202 362.2 13.7102 362.2 13.9002V19.5702C362.2 19.7602 362.27 19.8502 362.42 19.8502H371.37C371.93 19.8502 372.4 20.0402 372.79 20.4302C373.18 20.8202 373.37 21.2702 373.37 21.7902V24.0102C373.37 24.5702 373.18 25.0402 372.79 25.4302C372.4 25.8202 371.93 26.0102 371.37 26.0102H346.85C346.29 26.0102 345.83 25.8202 345.46 25.4302C345.09 25.0402 344.9 24.5702 344.9 24.0102V21.7902C344.9 21.2702 345.08 20.8202 345.46 20.4302C345.83 20.0402 346.29 19.8502 346.85 19.8502H355.08C355.23 19.8502 355.3 19.7602 355.3 19.5702V13.9002C355.3 13.7102 355.23 13.6202 355.08 13.6202H345.24C344.72 13.6202 344.27 13.4302 343.88 13.0602C343.49 12.6902 343.3 12.2302 343.3 11.6702V9.45016C343.3 8.93016 343.49 8.48016 343.88 8.09016C344.27 7.70016 344.72 7.51016 345.24 7.51016H355.08C355.23 7.51016 355.3 7.42016 355.3 7.23016V2.11016C355.3 1.55016 355.49 1.09016 355.88 0.720156C356.27 0.350156 356.74 0.160156 357.3 0.160156H360.19C360.75 0.160156 361.22 0.350156 361.61 0.720156C362 1.09016 362.19 1.55016 362.19 2.11016V7.23016C362.19 7.42016 362.26 7.51016 362.41 7.51016H372.7C373.22 7.51016 373.67 7.70016 374.06 8.09016C374.45 8.48016 374.64 8.93016 374.64 9.45016V11.6702H374.65ZM348.63 53.2502C348.07 53.2502 347.6 53.0602 347.21 52.6702C346.82 52.2802 346.63 51.8302 346.63 51.3102V32.7402C346.63 32.1802 346.82 31.7202 347.21 31.3502C347.6 30.9802 348.07 30.7902 348.63 30.7902H370.15C370.67 30.7902 371.12 30.9802 371.51 31.3502C371.9 31.7202 372.09 32.1802 372.09 32.7402V51.2502C372.09 51.7702 371.9 52.2202 371.51 52.6102C371.12 53.0002 370.67 53.1902 370.15 53.1902H367.54C366.98 53.1902 366.51 53.0002 366.12 52.6102C365.73 52.2202 365.54 51.7702 365.54 51.2502V51.1402C365.54 50.9502 365.47 50.8602 365.32 50.8602H353.09C352.94 50.8602 352.87 50.9502 352.87 51.1402V51.3102C352.87 51.8302 352.68 52.2802 352.29 52.6702C351.9 53.0602 351.43 53.2502 350.87 53.2502H348.65H348.63ZM365.53 37.0702C365.53 36.8802 365.46 36.7902 365.31 36.7902H353.08C352.93 36.7902 352.86 36.8802 352.86 37.0702V44.5802C352.86 44.7702 352.93 44.8602 353.08 44.8602H365.31C365.46 44.8602 365.53 44.7702 365.53 44.5802V37.0702Z" fill="#E5DFD8"/>
<path d="M404.02 11.4502C406.06 11.4502 407.36 11.4902 407.91 11.5602C408.47 11.6002 408.92 11.8302 409.27 12.2502C409.62 12.6802 409.78 13.1702 409.74 13.7202C409.22 23.1002 407.89 30.8302 405.74 36.9002C405.7 37.0502 405.74 37.1802 405.85 37.2902C407.48 38.8502 408.83 40.2602 409.91 41.5202C410.28 41.9602 410.47 42.4702 410.47 43.0502C410.47 43.6302 410.28 44.1502 409.91 44.6302L408.02 46.9602C407.72 47.3702 407.33 47.5602 406.85 47.5402C406.37 47.5202 405.96 47.3302 405.63 46.9602C404.85 45.9202 403.92 44.8302 402.85 43.6802C402.74 43.5702 402.63 43.5902 402.52 43.7402C400.41 47.1902 397.78 50.0202 394.63 52.2502C394.19 52.5802 393.7 52.6902 393.18 52.5602C392.66 52.4302 392.25 52.1402 391.96 51.7002C391.48 50.8802 390.96 50.1202 390.4 49.4202C390.1 49.0102 389.99 48.5602 390.07 48.0602C390.14 47.5602 390.38 47.1802 390.79 46.9202C393.61 45.0302 395.92 42.4002 397.74 39.0302C397.85 38.8802 397.83 38.7502 397.68 38.6402C397.09 38.0802 396.23 37.3102 395.12 36.3002C395.01 36.2302 394.95 36.2402 394.95 36.3602C394.84 36.7702 394.6 37.0502 394.23 37.1902C393.86 37.3402 393.49 37.3202 393.12 37.1302L390.84 35.7402C390.32 35.4402 389.95 35.0302 389.73 34.4902C389.51 33.9502 389.45 33.4102 389.56 32.8502C390.49 28.9202 391.52 23.9202 392.67 17.8402C392.67 17.6902 392.6 17.6202 392.45 17.6202H390.84C390.32 17.6202 389.87 17.4302 389.48 17.0402C389.09 16.6502 388.9 16.2002 388.9 15.6802V13.4602C388.9 12.9002 389.09 12.4302 389.48 12.0402C389.87 11.6502 390.32 11.4602 390.84 11.4602H393.51C393.7 11.4602 393.81 11.3902 393.84 11.2402C394.28 8.65016 394.77 5.63016 395.29 2.18016C395.36 1.62016 395.6 1.18016 396.01 0.850156C396.42 0.550156 396.84 0.410156 397.29 0.410156H397.51L400.01 0.630156C400.53 0.670156 400.96 0.900156 401.29 1.33016C401.62 1.76016 401.73 2.23016 401.62 2.75016C401.06 5.97016 400.56 8.81016 400.12 11.2602C400.12 11.4102 400.19 11.4802 400.34 11.4802H404.01L404.02 11.4502ZM403.35 17.9002C403.35 17.7202 403.26 17.6202 403.07 17.6202H399.23C399.04 17.6202 398.93 17.6902 398.9 17.8402C398.34 20.6202 397.57 24.3602 396.56 29.0702C396.52 29.2202 396.58 29.3502 396.73 29.4602C397.03 29.6802 398.21 30.6802 400.29 32.4602C400.44 32.5302 400.53 32.5002 400.57 32.3502C401.87 28.3502 402.79 23.5302 403.35 17.9002ZM441.43 15.0102C441.43 15.5702 441.24 16.0402 440.85 16.4302C440.46 16.8202 440.01 17.0102 439.49 17.0102H432.82C432.63 17.0102 432.56 17.0802 432.6 17.2302C433.19 19.2302 433.86 20.8102 434.6 21.9602C435.34 23.1102 436.06 23.6802 436.77 23.6802H436.83C437.42 23.6802 437.81 22.8802 438 21.2902C438.04 20.8802 438.25 20.6002 438.64 20.4302C439.03 20.2602 439.39 20.2902 439.72 20.5102C440.13 20.7702 440.55 21.0102 441 21.2302C441.52 21.4902 441.93 21.8802 442.22 22.4002C442.4 22.7302 442.5 23.0902 442.5 23.4602V23.9602C442.02 26.1102 441.32 27.5702 440.41 28.3502C439.5 29.1302 438.2 29.5202 436.49 29.5202C434.08 29.5202 432.01 28.4402 430.29 26.2702C428.57 24.1002 427.26 21.0902 426.37 17.2402C426.33 17.0902 426.22 17.0202 426.04 17.0202H418.81C418.62 17.0202 418.53 17.0902 418.53 17.2402V21.7402C418.53 21.9302 418.62 22.0002 418.81 21.9602C422.48 21.4802 424.46 21.2202 424.76 21.1802C425.28 21.1102 425.74 21.2502 426.15 21.6002C426.56 21.9502 426.78 22.3902 426.82 22.9102L426.88 24.4102C426.92 24.9702 426.76 25.4702 426.41 25.9102C426.06 26.3502 425.6 26.6102 425.05 26.6902C421.83 27.2102 417.43 27.8902 411.87 28.7502C411.31 28.8202 410.82 28.6902 410.4 28.3602C409.97 28.0302 409.72 27.6002 409.65 27.0802L409.32 25.0202V24.7402C409.32 24.3302 409.45 23.9602 409.71 23.6302C410.04 23.1902 410.49 22.9402 411.04 22.9102L412.15 22.8002C412.33 22.7602 412.43 22.6702 412.43 22.5202V4.28016C412.43 3.80016 412.62 3.41016 413.01 3.11016C413.4 2.81016 413.83 2.74016 414.32 2.89016L415.65 3.28016C415.8 3.32016 415.96 3.34016 416.15 3.34016C422.71 2.78016 428.2 1.89016 432.61 0.670156C432.98 0.560156 433.35 0.500156 433.72 0.500156C434.53 0.500156 435.28 0.800156 435.94 1.39016L437.83 3.11016C438.16 3.41016 438.27 3.77016 438.16 4.19016C438.05 4.62016 437.79 4.89016 437.38 5.00016C435.45 5.52016 433.43 5.98016 431.32 6.39016C431.17 6.39016 431.1 6.48016 431.1 6.67016C431.14 7.93016 431.25 9.49016 431.43 11.3402C431.47 11.4902 431.56 11.5602 431.71 11.5602H439.49C440.01 11.5602 440.46 11.7502 440.85 12.1402C441.24 12.5302 441.43 13.0002 441.43 13.5602V15.0102ZM414.63 53.2002C414.11 53.2002 413.66 53.0102 413.27 52.6202C412.88 52.2302 412.69 51.7802 412.69 51.2602V31.5802C412.69 31.0202 412.88 30.5502 413.27 30.1602C413.66 29.7702 414.11 29.5802 414.63 29.5802H436.59C437.15 29.5802 437.62 29.7702 438.01 30.1602C438.4 30.5502 438.59 31.0202 438.59 31.5802V51.0402C438.59 51.6002 438.4 52.0702 438.01 52.4602C437.62 52.8502 437.15 53.0402 436.59 53.0402H433.64C433.16 53.0402 432.75 52.8702 432.42 52.5402C432.09 52.2102 431.92 51.8002 431.92 51.3202C431.92 51.1702 431.85 51.1002 431.7 51.1002H419.3C419.15 51.1002 419.08 51.1702 419.08 51.3202C419.08 51.8402 418.89 52.2802 418.52 52.6502C418.15 53.0202 417.7 53.2102 417.19 53.2102H414.63V53.2002ZM418.52 11.3402C418.52 11.4902 418.61 11.5602 418.8 11.5602H425.08C425.23 11.5602 425.3 11.4902 425.3 11.3402C425.19 10.3802 425.06 9.14016 424.91 7.62016C424.91 7.47016 424.84 7.40016 424.69 7.40016C422.76 7.66016 420.8 7.88016 418.8 8.07016C418.61 8.07016 418.52 8.16016 418.52 8.35016V11.3502V11.3402ZM431.92 35.0802C431.92 34.8902 431.85 34.8002 431.7 34.8002H419.3C419.15 34.8002 419.08 34.8902 419.08 35.0802V37.8002C419.08 37.9902 419.15 38.0802 419.3 38.0802H431.7C431.85 38.0802 431.92 37.9902 431.92 37.8002V35.0802ZM419.08 45.7002C419.08 45.8902 419.15 45.9802 419.3 45.9802H431.7C431.85 45.9802 431.92 45.8902 431.92 45.7002V42.9802C431.92 42.8302 431.85 42.7602 431.7 42.7602H419.3C419.15 42.7602 419.08 42.8302 419.08 42.9802V45.7002Z" fill="#E5DFD8"/>
<path d="M507 33.86C507.52 33.86 507.97 34.05 508.36 34.44C508.75 34.83 508.94 35.28 508.94 35.8V38.25C508.94 38.81 508.75 39.28 508.36 39.67C507.97 40.06 507.52 40.25 507 40.25H492.82C492.82 40.25 492.76 40.25 492.76 40.28V40.36C497.99 42.88 502.47 45.27 506.21 47.53C506.62 47.79 506.82 48.15 506.82 48.61C506.82 49.07 506.63 49.45 506.26 49.75L503.2 51.97C502.72 52.3 502.18 52.48 501.59 52.5C501 52.52 500.46 52.36 499.98 52.03C496.35 49.51 492.36 47.12 488.03 44.86C487.62 44.64 487.38 44.3 487.31 43.83C487.24 43.37 487.38 42.97 487.75 42.63L490.2 40.41C490.2 40.41 490.25 40.34 490.23 40.3C490.21 40.26 490.18 40.24 490.15 40.24H473.81C473.81 40.24 473.74 40.24 473.73 40.27C473.71 40.29 473.73 40.32 473.76 40.35L477.26 42.69C477.67 42.95 477.88 43.32 477.9 43.8C477.92 44.28 477.72 44.65 477.32 44.91C473.21 47.88 468.5 50.43 463.2 52.58C462.79 52.77 462.4 52.86 462.03 52.86C461.33 52.86 460.64 52.54 459.97 51.91C459.15 51.09 458.36 50.33 457.58 49.63C457.25 49.37 457.12 49.03 457.19 48.6C457.26 48.17 457.49 47.89 457.86 47.74C460.38 46.78 462.92 45.62 465.48 44.27C468.04 42.92 470.15 41.61 471.82 40.35C471.86 40.35 471.87 40.33 471.85 40.29C471.83 40.25 471.8 40.23 471.77 40.23H457.93C457.41 40.23 456.96 40.04 456.57 39.65C456.18 39.26 455.99 38.79 455.99 38.23V35.78C455.99 35.26 456.18 34.81 456.57 34.42C456.96 34.03 457.41 33.84 457.93 33.84H461.38C461.53 33.84 461.6 33.75 461.6 33.56V8.67C461.6 8.11 461.79 7.64 462.18 7.25C462.57 6.86 463.04 6.67 463.6 6.67H473.16C473.31 6.67 473.38 6.6 473.38 6.45V1.95C473.38 1.39 473.57 0.93 473.96 0.56C474.35 0.19 474.82 0 475.38 0H477.71C478.27 0 478.74 0.19 479.13 0.56C479.52 0.93 479.71 1.39 479.71 1.95V6.45C479.71 6.6 479.78 6.67 479.93 6.67H484.88C485.03 6.67 485.1 6.6 485.1 6.45V1.95C485.1 1.39 485.29 0.93 485.68 0.56C486.07 0.19 486.54 0 487.1 0H489.55C490.11 0 490.58 0.19 490.97 0.56C491.36 0.93 491.55 1.39 491.55 1.95V6.45C491.55 6.6 491.62 6.67 491.77 6.67H501.83C502.39 6.67 502.86 6.86 503.25 7.25C503.64 7.64 503.83 8.11 503.83 8.67V33.58C503.83 33.77 503.9 33.86 504.05 33.86H507ZM473.37 13.23C473.37 13.05 473.3 12.95 473.15 12.95H468.37C468.22 12.95 468.15 13.04 468.15 13.23V19.79C468.15 19.94 468.22 20.01 468.37 20.01H473.15C473.3 20.01 473.37 19.94 473.37 19.79V13.23ZM468.37 26.3C468.22 26.3 468.15 26.37 468.15 26.52V33.58C468.15 33.77 468.22 33.86 468.37 33.86H473.15C473.3 33.86 473.37 33.77 473.37 33.58V26.52C473.37 26.37 473.3 26.3 473.15 26.3H468.37ZM485.1 13.23C485.1 13.05 485.03 12.95 484.88 12.95H479.93C479.78 12.95 479.71 13.04 479.71 13.23V19.79C479.71 19.94 479.78 20.01 479.93 20.01H484.88C485.03 20.01 485.1 19.94 485.1 19.79V13.23ZM484.88 33.86C485.03 33.86 485.1 33.77 485.1 33.58V26.52C485.1 26.37 485.03 26.3 484.88 26.3H479.93C479.78 26.3 479.71 26.37 479.71 26.52V33.58C479.71 33.77 479.78 33.86 479.93 33.86H484.88ZM497 13.23C497 13.05 496.93 12.95 496.78 12.95H491.78C491.63 12.95 491.56 13.04 491.56 13.23V19.79C491.56 19.94 491.63 20.01 491.78 20.01H496.78C496.93 20.01 497 19.94 497 19.79V13.23ZM491.77 26.3C491.62 26.3 491.55 26.37 491.55 26.52V33.58C491.55 33.77 491.62 33.86 491.77 33.86H496.77C496.92 33.86 496.99 33.77 496.99 33.58V26.52C496.99 26.37 496.92 26.3 496.77 26.3H491.77Z" fill="#E5DFD8"/>
<path d="M524.469 30.4102V25.7402C524.469 25.1802 524.659 24.7202 525.049 24.3502C525.439 23.9802 525.909 23.7902 526.469 23.7902H526.859C527.379 23.7902 527.829 23.9802 528.219 24.3502C528.609 24.7202 528.799 25.1802 528.799 25.7402V30.6302C528.799 37.3802 528.219 42.7302 527.079 46.7002C526.969 47.1402 526.689 47.4202 526.249 47.5302C525.809 47.6402 525.399 47.5502 525.029 47.2502C524.809 47.1002 524.589 46.9402 524.359 46.7502C523.579 46.1602 523.189 45.4302 523.189 44.5802C523.189 44.3202 523.229 44.0602 523.299 43.8002C524.079 40.5402 524.469 36.0702 524.469 30.4002V30.4102ZM525.689 20.8502C525.129 20.8502 524.659 20.6602 524.269 20.2902C523.879 19.9202 523.689 19.4602 523.689 18.9002V16.9002C523.689 16.3802 523.879 15.9302 524.269 15.5402C524.659 15.1502 525.129 14.9602 525.689 14.9602H541.529C542.089 14.9602 542.549 15.1502 542.919 15.5402C543.289 15.9302 543.479 16.3802 543.479 16.9002V18.9002C543.479 19.4602 543.289 19.9202 542.919 20.2902C542.549 20.6602 542.089 20.8502 541.529 20.8502H536.919C536.769 20.8502 536.699 20.9402 536.699 21.1302V51.3202C536.699 51.8402 536.509 52.2902 536.119 52.6802C535.729 53.0702 535.259 53.2602 534.699 53.2602H533.089C532.529 53.2602 532.059 53.0702 531.669 52.6802C531.279 52.2902 531.089 51.8402 531.089 51.3202V21.1302C531.089 20.9402 531.019 20.8502 530.869 20.8502H525.699H525.689ZM540.419 3.73016C540.979 3.73016 541.449 3.92016 541.839 4.31016C542.229 4.70016 542.419 5.17016 542.419 5.73016V7.56016C542.419 8.12016 542.229 8.59016 541.839 8.98016C541.449 9.37016 540.979 9.56016 540.419 9.56016H527.019C526.459 9.56016 525.999 9.37016 525.629 8.98016C525.259 8.59016 525.069 8.12016 525.069 7.56016V5.73016C525.069 5.17016 525.259 4.70016 525.629 4.31016C525.999 3.92016 526.459 3.73016 527.019 3.73016H540.419ZM541.029 44.8702C540.469 44.8702 540.009 44.6802 539.639 44.2902C539.269 43.9002 539.079 43.4302 539.079 42.8702V25.6802C539.079 25.1202 539.269 24.6602 539.639 24.2902C540.009 23.9202 540.469 23.7302 541.029 23.7302H541.359C541.919 23.7302 542.379 23.9202 542.749 24.2902C543.119 24.6602 543.309 25.1202 543.309 25.6802V42.8602C543.309 43.4202 543.119 43.8902 542.749 44.2802C542.379 44.6702 541.919 44.8602 541.359 44.8602H541.029V44.8702ZM568.099 47.0402C568.029 47.1902 568.059 47.2602 568.209 47.2602H574.329C574.849 47.2602 575.299 47.4502 575.689 47.8202C576.079 48.1902 576.269 48.6502 576.269 49.2102V50.2702C576.269 50.8302 576.079 51.3002 575.689 51.6902C575.299 52.0802 574.849 52.2702 574.329 52.2702H545.639C545.079 52.2702 544.609 52.0802 544.219 51.6902C543.829 51.3002 543.639 50.8302 543.639 50.2702V49.2102C543.639 48.6502 543.829 48.1902 544.219 47.8202C544.609 47.4502 545.079 47.2602 545.639 47.2602H551.869C552.019 47.2602 552.069 47.1702 552.039 46.9802C551.709 45.8302 551.299 44.7002 550.819 43.5902C550.599 43.1502 550.589 42.6902 550.789 42.2302C550.989 41.7702 551.339 41.4602 551.819 41.3102L553.379 40.9202C553.379 40.9202 553.439 40.9202 553.439 40.8902C553.439 40.8602 553.419 40.8602 553.379 40.8602H549.379C548.819 40.8602 548.349 40.6702 547.959 40.2802C547.569 39.8902 547.379 39.4202 547.379 38.8602V32.0202C547.379 31.4602 547.569 30.9902 547.959 30.6002C548.349 30.2102 548.819 30.0202 549.379 30.0202H570.949C571.509 30.0202 571.979 30.2102 572.369 30.6002C572.759 30.9902 572.949 31.4602 572.949 32.0202V38.8602C572.949 39.4202 572.759 39.8902 572.369 40.2802C571.979 40.6702 571.509 40.8602 570.949 40.8602H567.229C567.229 40.8602 567.169 40.8602 567.169 40.8902C567.169 40.9202 567.189 40.9202 567.229 40.9202L568.899 41.3602C569.379 41.5102 569.719 41.8102 569.929 42.2802C570.129 42.7402 570.119 43.2002 569.899 43.6402C569.159 45.0502 568.569 46.1802 568.119 47.0302L568.099 47.0402ZM573.489 23.0202C574.049 23.0202 574.519 23.2102 574.909 23.6002C575.299 23.9902 575.489 24.4602 575.489 25.0202V26.1902C575.489 26.7502 575.299 27.2102 574.909 27.5802C574.519 27.9502 574.049 28.1402 573.489 28.1402H546.749C546.229 28.1402 545.779 27.9602 545.389 27.5802C544.999 27.2102 544.809 26.7502 544.809 26.1902V25.0202C544.809 24.4602 544.999 23.9902 545.389 23.6002C545.779 23.2102 546.229 23.0202 546.749 23.0202H573.489ZM572.599 3.78016C573.159 3.78016 573.629 3.97016 574.019 4.36016C574.409 4.75016 574.599 5.22016 574.599 5.78016V19.1802C574.599 19.7402 574.409 20.2102 574.019 20.6002C573.629 20.9902 573.159 21.1802 572.599 21.1802H547.639C547.079 21.1802 546.609 20.9902 546.219 20.6002C545.829 20.2102 545.639 19.7402 545.639 19.1802V5.78016C545.639 5.22016 545.829 4.75016 546.219 4.36016C546.609 3.97016 547.079 3.78016 547.639 3.78016H552.919C553.069 3.78016 553.139 3.71016 553.139 3.56016V2.11016C553.139 1.55016 553.329 1.09016 553.719 0.720156C554.109 0.350156 554.579 0.160156 555.139 0.160156H556.199C556.759 0.160156 557.229 0.350156 557.619 0.720156C558.009 1.09016 558.199 1.55016 558.199 2.11016V3.56016C558.199 3.71016 558.269 3.78016 558.419 3.78016H561.309C561.459 3.78016 561.529 3.71016 561.529 3.56016V2.11016C561.529 1.55016 561.719 1.09016 562.109 0.720156C562.499 0.350156 562.969 0.160156 563.529 0.160156H564.639C565.159 0.160156 565.609 0.350156 565.999 0.720156C566.389 1.09016 566.579 1.55016 566.579 2.11016V3.56016C566.579 3.71016 566.669 3.78016 566.859 3.78016H572.589H572.599ZM551.249 7.95016C551.099 7.95016 551.029 8.02016 551.029 8.17016V10.2802C551.029 10.4302 551.099 10.5002 551.249 10.5002H553.919C554.099 10.5002 554.199 10.4302 554.199 10.2802V8.17016C554.199 8.02016 554.109 7.95016 553.919 7.95016H551.249ZM551.249 14.4002C551.099 14.4002 551.029 14.4702 551.029 14.6202V16.7302C551.029 16.9202 551.099 17.0102 551.249 17.0102H553.919C554.099 17.0102 554.199 16.9202 554.199 16.7302V14.6202C554.199 14.4702 554.109 14.4002 553.919 14.4002H551.249ZM553.249 34.0202C553.059 34.0202 552.969 34.0902 552.969 34.2402V36.6302C552.969 36.7802 553.059 36.8502 553.249 36.8502H566.869C567.019 36.8502 567.089 36.7802 567.089 36.6302V34.2402C567.089 34.0902 567.019 34.0202 566.869 34.0202H553.249ZM564.589 41.0802C564.629 40.9302 564.569 40.8602 564.419 40.8602H555.639C555.449 40.8602 555.419 40.9302 555.529 41.0802C556.309 42.3802 556.939 43.8402 557.419 45.4702C557.529 45.8002 557.489 46.1502 557.309 46.5002C557.119 46.8502 556.849 47.0802 556.479 47.2002V47.2602H563.539V47.2002C563.239 47.0902 563.019 46.8902 562.869 46.5902C562.719 46.2902 562.719 46.0002 562.869 45.7002C563.569 44.1102 564.149 42.5702 564.589 41.0902V41.0802ZM558.139 10.2802C558.139 10.4302 558.209 10.5002 558.359 10.5002H561.309C561.459 10.5002 561.529 10.4302 561.529 10.2802V8.17016C561.529 8.02016 561.459 7.95016 561.309 7.95016H558.359C558.209 7.95016 558.139 8.02016 558.139 8.17016V10.2802ZM561.529 14.6202C561.529 14.4702 561.459 14.4002 561.309 14.4002H558.359C558.209 14.4002 558.139 14.4702 558.139 14.6202V16.7302C558.139 16.9202 558.209 17.0102 558.359 17.0102H561.309C561.459 17.0102 561.529 16.9202 561.529 16.7302V14.6202ZM568.699 10.5102C568.849 10.5102 568.919 10.4402 568.919 10.2902V8.18016C568.919 8.03016 568.849 7.96016 568.699 7.96016H565.749C565.599 7.96016 565.529 8.03016 565.529 8.18016V10.2902C565.529 10.4402 565.599 10.5102 565.749 10.5102H568.699ZM568.699 17.0102C568.849 17.0102 568.919 16.9202 568.919 16.7302V14.6202C568.919 14.4702 568.849 14.4002 568.699 14.4002H565.749C565.599 14.4002 565.529 14.4702 565.529 14.6202V16.7302C565.529 16.9202 565.599 17.0102 565.749 17.0102H568.699Z" fill="#E5DFD8"/>
<path d="M611.939 15.4102L616.529 23.8002L624.919 28.3902L616.529 32.9802L611.939 41.3702L607.349 32.9802L598.959 28.3902L607.349 23.8002L611.939 15.4102Z" fill="#E5DFD8"/>
<path d="M278.599 15.4102L283.189 23.8002L291.589 28.3902L283.189 32.9802L278.599 41.3702L274.009 32.9802L265.619 28.3902L274.009 23.8002L278.599 15.4102Z" fill="#E5DFD8"/>
</g>
<defs>
<clipPath id="clip0_1309_377">
<rect width="894.1" height="245.05" fill="white"/>
</clipPath>
</defs>
</svg>
