<svg width="455" height="44" viewBox="0 0 455 44" fill="none" xmlns="http://www.w3.org/2000/svg">
<g clip-path="url(#clip0_1304_87)">
<path d="M35.89 8.78035C35.95 8.96035 35.89 9.08035 35.77 9.19035L34.94 9.60035C34.76 9.66035 34.64 9.66035 34.58 9.48035C32.03 4.74035 26.94 2.37035 21.73 2.37035C11.78 2.37035 5.92 10.1304 5.92 19.3704C5.92 30.8604 12.91 40.8703 24.1 40.8703C27.12 40.8703 30.08 40.0404 32.86 38.2004C32.92 38.1404 32.98 38.0204 32.98 37.9604V23.8704C32.98 23.2204 33.28 22.9204 33.93 22.9204H37.6C37.78 22.9204 37.9 22.9804 37.9 23.1604V39.4504C37.9 39.5104 37.84 39.6304 37.72 39.7504C26.29 42.7704 24.45 43.1903 21.49 43.1903C9.65 43.1903 0 34.4204 0 21.8704C0 9.32035 9 0.610352 20.9 0.610352C27.06 0.610352 32.74 3.33035 35.88 8.78035H35.89Z" fill="#8E602A"/>
<path d="M74.44 0.0195194C87.41 0.489519 96 9.84952 95.52 22.4595C95.05 35.0095 85.93 43.6595 72.84 43.1895C59.81 42.7195 51.23 33.2395 51.7 20.7495C52.17 8.42952 61.23 -0.460481 74.44 0.0195194ZM88.89 26.0195C89.84 12.9895 85.04 3.09952 74.2 1.97952C66.15 1.20952 59.16 6.89952 57.91 17.6695C56.49 28.8595 61.76 40.2895 72.66 41.5395C80.65 42.4895 88.23 36.7995 88.89 26.0195Z" fill="#8E602A"/>
<path d="M130.46 0.0195194C143.43 0.489519 152.02 9.84952 151.54 22.4595C151.07 35.0095 141.95 43.6595 128.86 43.1895C115.83 42.7195 107.25 33.2395 107.72 20.7495C108.19 8.42952 117.25 -0.460481 130.46 0.0195194ZM144.91 26.0195C145.86 12.9895 141.06 3.09952 130.22 1.97952C122.17 1.20952 115.18 6.89952 113.93 17.6695C112.51 28.8595 117.78 40.2895 128.68 41.5395C136.67 42.4895 144.25 36.7995 144.91 26.0195Z" fill="#8E602A"/>
<path d="M199.451 8.78035C199.511 8.96035 199.451 9.08035 199.331 9.19035L198.501 9.60035C198.321 9.66035 198.201 9.66035 198.141 9.48035C195.591 4.74035 190.501 2.37035 185.291 2.37035C175.341 2.37035 169.481 10.1304 169.481 19.3704C169.481 30.8604 176.471 40.8703 187.661 40.8703C190.681 40.8703 193.641 40.0404 196.421 38.2004C196.481 38.1404 196.541 38.0204 196.541 37.9604V23.8704C196.541 23.2204 196.841 22.9204 197.491 22.9204H201.161C201.341 22.9204 201.461 22.9804 201.461 23.1604V39.4504C201.461 39.5104 201.401 39.6304 201.281 39.7504C189.851 42.7704 188.011 43.1903 185.051 43.1903C173.211 43.1903 163.551 34.4304 163.551 21.8704C163.551 9.31035 172.571 0.610352 184.471 0.610352C190.631 0.610352 196.311 3.33035 199.451 8.78035Z" fill="#8E602A"/>
<path d="M216.859 1.31953C216.859 1.13953 216.979 1.01953 217.159 1.01953H222.369C222.549 1.01953 222.609 1.13953 222.609 1.31953V40.1695C222.609 40.3495 222.729 40.4695 222.909 40.4695H240.139C240.319 40.4695 240.439 40.5295 240.439 40.7095V42.3095C240.439 42.4895 240.319 42.6095 240.139 42.6095H217.159C216.979 42.6095 216.859 42.4895 216.859 42.3095V1.31953Z" fill="#8E602A"/>
<path d="M253.52 1.43965C253.52 1.25965 253.64 1.13965 253.82 1.13965H276.8C276.98 1.13965 277.1 1.25965 277.1 1.43965V3.03965C277.1 3.21965 276.98 3.27965 276.8 3.27965H259.51C259.33 3.27965 259.27 3.39965 259.27 3.57965V19.7996C259.27 19.9796 259.33 20.0996 259.51 20.0996H273.13C273.31 20.0996 273.43 20.1596 273.43 20.3396V21.9396C273.43 22.1196 273.31 22.2396 273.13 22.2396H259.57C259.39 22.2396 259.27 22.2996 259.27 22.4796V40.1896C259.27 40.3696 259.39 40.4897 259.57 40.4897H276.8C276.98 40.4897 277.1 40.5496 277.1 40.7296V42.3297C277.1 42.5097 276.98 42.6297 276.8 42.6297H253.82C253.64 42.6297 253.52 42.5097 253.52 42.3297V1.43965Z" fill="#8E602A"/>
<path d="M319.67 32.6497C319.67 24.0597 319.73 8.30965 319.73 1.37965C319.73 1.19965 319.79 1.13965 319.97 1.13965H325.3C325.36 1.13965 325.48 1.19965 325.54 1.31965L340.64 35.6096C340.7 35.7896 341.05 35.7896 341.11 35.6096L356.56 1.31965C356.56 1.19965 356.62 1.13965 356.8 1.13965H362.19C362.37 1.13965 362.49 1.25965 362.49 1.43965V42.2996C362.49 42.4796 362.37 42.5996 362.19 42.5996H356.98C356.8 42.5996 356.74 42.4796 356.74 42.2996V7.41965C356.74 7.11965 356.39 7.05965 356.21 7.29965L340.4 42.4196C340.34 42.5396 340.22 42.5996 340.16 42.5996H337.61C337.49 42.5996 337.43 42.5396 337.37 42.4196L322.33 8.12965C322.15 7.82965 321.8 7.94965 321.8 8.18965V42.2996C321.8 42.4796 321.74 42.5996 321.56 42.5996H319.96C319.78 42.5996 319.66 42.4796 319.66 42.2996V32.6497H319.67Z" fill="#8E602A"/>
<path d="M383.03 21.5696C384.69 16.8296 386.46 11.9796 388.3 6.70965L390.2 1.31965C390.2 1.19965 390.26 1.13965 390.44 1.13965H395.71C395.83 1.13965 395.95 1.19965 396.01 1.31965L402.64 20.5096C405.66 29.2196 408.8 38.2797 410.22 42.2397C410.28 42.4797 410.16 42.5996 409.98 42.5996H404.41C404.23 42.5996 404.17 42.5396 404.17 42.4196C402.27 37.0896 398.66 26.4296 398.19 25.0096C398.13 24.8896 398.01 24.8296 397.89 24.8296H384.33C384.15 24.8296 384.09 24.8896 384.03 25.0096L377.87 42.4196C377.87 42.5396 377.81 42.5996 377.63 42.5996H375.91C375.67 42.5996 375.61 42.4797 375.67 42.2397L383.01 21.5696H383.03ZM396.95 22.7496C397.13 22.7496 397.25 22.6296 397.19 22.3896L391.45 5.74965C391.27 5.50965 391.09 5.50965 390.92 5.74965L385.06 22.3896C385 22.6296 385.06 22.7496 385.3 22.7496H396.97H396.95Z" fill="#8E602A"/>
<path d="M423.48 1.43965C423.48 1.25965 423.54 1.13965 423.72 1.13965H438.35C445.69 1.13965 454.22 3.14965 454.22 12.1596C454.22 20.2096 447.47 24.5396 439.42 24.5396C435.87 24.5396 432.67 23.7696 429.53 22.4096C429.35 22.2296 429.18 22.4696 429.18 22.6496V42.3097C429.18 42.4897 429.12 42.6096 428.94 42.6096H423.73C423.55 42.6096 423.43 42.4897 423.43 42.3097C423.43 36.9797 423.49 8.78965 423.49 1.44965L423.48 1.43965ZM437.63 22.7596C444.56 22.7596 448.23 18.4396 448.23 12.2796C448.23 6.11965 444.56 3.27965 437.27 3.27965H429.45C429.27 3.27965 429.15 3.39965 429.15 3.57965V20.8596C429.15 20.9796 429.21 21.0396 429.33 21.0996C432.29 22.2296 435.07 22.7596 437.62 22.7596H437.63Z" fill="#8E602A"/>
</g>
<defs>
<clipPath id="clip0_1304_87">
<rect width="454.21" height="43.21" fill="white"/>
</clipPath>
</defs>
</svg>
