<?xml version="1.0" encoding="UTF-8"?>
<svg id="design" xmlns="http://www.w3.org/2000/svg" viewBox="0 0 803.7 119.45">
  <defs>
    <style>
      .cls-1 {
        fill: #ae6111;
      }
    </style>
  </defs>
  <path class="cls-1" d="M62.93,88.45c-3.09,0-6.05-.38-8.88-1.14s-5.46-1.82-7.9-3.2c-2.44-1.38-4.66-3.03-6.66-4.94-2-1.92-3.7-4.05-5.1-6.41-1.4-2.35-2.48-4.88-3.25-7.57-.77-2.69-1.16-5.48-1.16-8.37s.39-5.6,1.16-8.22c.77-2.62,1.86-5.08,3.25-7.37,1.4-2.29,3.09-4.37,5.1-6.26,2-1.88,4.22-3.49,6.66-4.82,2.44-1.33,5.07-2.36,7.9-3.1,2.83-.74,5.78-1.11,8.88-1.11,4.64,0,8.96,.81,12.97,2.42,4,1.61,7.47,3.82,10.42,6.61,2.94,2.79,5.26,6.06,6.96,9.81,1.7,3.75,2.55,7.76,2.55,12.03,0,2.89-.39,5.68-1.16,8.37-.77,2.69-1.86,5.21-3.25,7.57-1.4,2.35-3.09,4.49-5.07,6.41-1.98,1.92-4.2,3.57-6.63,4.94-2.44,1.38-5.07,2.45-7.9,3.2s-5.79,1.14-8.88,1.14Zm0-2.98c3.4,0,6.41-.71,9.03-2.14,2.62-1.43,4.83-3.42,6.63-5.98,1.8-2.56,3.16-5.58,4.09-9.08,.92-3.5,1.39-7.32,1.39-11.45s-.46-7.86-1.39-11.28c-.93-3.41-2.29-6.36-4.09-8.83-1.8-2.47-4.01-4.4-6.63-5.78-2.62-1.38-5.63-2.07-9.03-2.07s-6.57,.69-9.21,2.07c-2.64,1.38-4.85,3.3-6.63,5.78-1.78,2.47-3.12,5.42-4.01,8.83-.89,3.41-1.34,7.17-1.34,11.28s.45,7.95,1.34,11.45c.89,3.5,2.23,6.53,4.01,9.08,1.78,2.56,3.99,4.55,6.63,5.98,2.64,1.43,5.71,2.14,9.21,2.14Z"/>
  <path class="cls-1" d="M109.24,27.3h10.04v38.75c0,2.56,.44,4.96,1.31,7.21,.87,2.25,2.13,4.22,3.76,5.9,1.63,1.68,3.59,3.01,5.88,3.99,2.29,.98,4.84,1.46,7.67,1.46s5.43-.49,7.72-1.46c2.29-.98,4.23-2.3,5.83-3.99,1.6-1.68,2.83-3.65,3.68-5.9,.86-2.25,1.29-4.66,1.29-7.21V27.3h4.44v38.75c0,3.06-.5,5.94-1.49,8.65-.99,2.71-2.54,5.08-4.64,7.11-2.1,2.04-4.8,3.65-8.1,4.84-3.3,1.19-7.26,1.79-11.91,1.79-4.14,0-7.79-.6-10.97-1.79-3.18-1.19-5.84-2.82-7.97-4.87-2.14-2.05-3.76-4.45-4.87-7.19-1.11-2.74-1.66-5.66-1.66-8.75V27.3Z"/>
  <path class="cls-1" d="M176.89,27.3h20.63c3.6,0,6.75,.39,9.46,1.16,2.71,.77,4.97,1.85,6.79,3.23,1.82,1.38,3.18,3.03,4.09,4.94,.91,1.92,1.36,4,1.36,6.26,0,1.85-.35,3.58-1.06,5.2-.71,1.61-1.71,3.07-3,4.36s-2.84,2.42-4.64,3.38c-1.8,.96-3.78,1.69-5.93,2.19l21.74,29.01h-11.65l-20.73-28.1h-7.01v28.1h-10.04V27.3Zm10.04,28.66h5.75c2.25,0,4.34-.29,6.26-.88,1.92-.59,3.57-1.44,4.97-2.55,1.4-1.11,2.49-2.45,3.28-4.04,.79-1.58,1.19-3.35,1.19-5.3,0-1.78-.31-3.41-.93-4.89-.62-1.48-1.49-2.76-2.6-3.83-1.11-1.08-2.44-1.92-3.99-2.52-1.55-.61-3.25-.91-5.1-.91h-8.83v24.92Z"/>
  <path class="cls-1" d="M280.05,84.61c1.48,0,2.94-.2,4.39-.61,1.45-.4,2.73-1,3.86-1.79,1.13-.79,2.03-1.77,2.72-2.93,.69-1.16,1.03-2.5,1.03-4.01,0-1.82-.47-3.44-1.41-4.87-.94-1.43-2.18-2.74-3.71-3.94-1.53-1.19-3.28-2.31-5.25-3.35-1.97-1.04-3.99-2.09-6.05-3.15-2.07-1.06-4.09-2.17-6.05-3.33-1.97-1.16-3.72-2.45-5.25-3.86-1.53-1.41-2.77-2.99-3.71-4.74-.94-1.75-1.41-3.77-1.41-6.05s.43-4.41,1.29-6.36c.86-1.95,2.12-3.65,3.78-5.1,1.66-1.45,3.71-2.57,6.13-3.38,2.42-.81,5.2-1.21,8.32-1.21,5.65,0,10.12,1.19,13.39,3.56,3.28,2.37,5.64,5.79,7.09,10.27l-5.15,2.37c-.6-1.85-1.37-3.53-2.3-5.04-.93-1.51-2.04-2.81-3.33-3.88-1.29-1.08-2.78-1.91-4.46-2.5-1.68-.59-3.58-.88-5.7-.88-1.88,0-3.53,.26-4.94,.78-1.41,.52-2.59,1.21-3.53,2.07-.94,.86-1.65,1.83-2.12,2.9-.47,1.08-.71,2.17-.71,3.28,0,1.58,.48,3.02,1.44,4.31,.96,1.3,2.24,2.52,3.83,3.68,1.6,1.16,3.41,2.28,5.42,3.35,2.02,1.08,4.08,2.17,6.18,3.28,2.1,1.11,4.16,2.27,6.18,3.48s3.83,2.53,5.42,3.96c1.6,1.43,2.88,2.99,3.83,4.69,.96,1.7,1.44,3.59,1.44,5.68,0,2.35-.45,4.57-1.36,6.66-.91,2.09-2.25,3.9-4.04,5.45-1.78,1.55-4.02,2.77-6.71,3.68-2.69,.91-5.8,1.36-9.33,1.36-2.86,0-5.42-.32-7.69-.96-2.27-.64-4.26-1.56-5.98-2.75-1.72-1.19-3.19-2.66-4.41-4.39-1.23-1.73-2.24-3.71-3.05-5.93l5.4-2.22c1.24,3.94,3.32,6.99,6.23,9.16,2.91,2.17,6.33,3.25,10.27,3.25Z"/>
  <path class="cls-1" d="M316.78,27.3l17.76,45.4,15.69-40.96,16.24,41.17,17.35-45.61h4.94l-23,60.24h-3.03l-14.73-37.23-14.18,37.23h-3.43l-23.71-60.24h10.09Z"/>
  <path class="cls-1" d="M439.92,27.3v3.83h-31.48v21.39h21.04v3.83h-21.04v26.84h31.48v3.83h-41.52V27.3h41.52Z"/>
  <path class="cls-1" d="M494.66,27.3v3.83h-31.48v21.39h21.04v3.83h-21.04v26.84h31.48v3.83h-41.52V27.3h41.52Z"/>
  <path class="cls-1" d="M555.4,27.3v3.83h-21.64v55.9h-10.04V31.14h-21.64v-3.83h53.32Z"/>
  <path class="cls-1" d="M594.49,27.3h10.04v55.9h30.02v3.83h-40.06V27.3Z"/>
  <path class="cls-1" d="M644.99,27.3h10.04v59.73h-10.04V27.3Z"/>
  <path class="cls-1" d="M711.23,27.3v3.83h-29.11v21.39h21.04v3.83h-21.04v30.67h-10.04V27.3h39.15Z"/>
  <path class="cls-1" d="M762.73,27.3v3.83h-31.48v21.39h21.04v3.83h-21.04v26.84h31.48v3.83h-41.52V27.3h41.52Z"/>
</svg>