<?xml version="1.0" encoding="UTF-8"?>
<svg id="design" xmlns="http://www.w3.org/2000/svg" viewBox="0 0 442.93 106.42">
  <defs>
    <style>
      .cls-1 {
        fill: #724c26;
      }
    </style>
  </defs>
  <g>
    <path class="cls-1" d="M99.64,64.66c.07-.52,.32-.95,.75-1.28,.43-.33,.9-.44,1.42-.33l1.67,.28c.56,.11,1,.39,1.33,.83,.33,.44,.46,.93,.39,1.45-.59,4.3-1.41,7.93-2.45,10.9-.19,.52-.53,.86-1.03,1.03-.5,.17-.99,.12-1.47-.14-.52-.26-1.06-.5-1.61-.72-.48-.22-.82-.59-1-1.11-.11-.26-.17-.52-.17-.78,0-.22,.04-.44,.11-.67,.89-2.48,1.58-5.63,2.06-9.45Zm12.9-13.12c-.26-.48-.31-.97-.14-1.47,.17-.5,.49-.86,.97-1.08l1.17-.5c.52-.22,1.05-.25,1.58-.08,.54,.17,.94,.49,1.2,.97,1.7,3.08,2.96,5.87,3.78,8.39,.15,.56,.1,1.09-.14,1.61-.24,.52-.62,.89-1.14,1.11l-1.56,.72c-.44,.22-.9,.22-1.36,0-.46-.22-.77-.57-.92-1.06-.07-.26-.15-.56-.22-.89-.07-.19-.19-.28-.33-.28l-2.78,.22c-.15,0-.22,.09-.22,.28v21.18c0,.52-.19,.97-.58,1.36s-.84,.58-1.36,.58h-2.06c-.56,0-1.03-.19-1.42-.58s-.58-.84-.58-1.36v-20.74c0-.19-.07-.26-.22-.22-1.33,.07-3.41,.2-6.23,.39-.52,.04-.99-.12-1.42-.47-.43-.35-.66-.81-.69-1.36l-.22-1.95c-.04-.56,.12-1.04,.47-1.45,.35-.41,.79-.61,1.31-.61l2-.11c.15,0,.28-.06,.39-.17,.93-1.15,1.7-2.2,2.33-3.17,.11-.11,.11-.24,0-.39-1.3-1.85-3.06-3.93-5.28-6.23-.41-.41-.64-.89-.69-1.45s.08-1.07,.42-1.56l1.17-1.72c.22-.33,.55-.53,.97-.58,.43-.06,.81,.05,1.14,.31,.11,.11,.18,.11,.22,0,1.3-2.56,2.45-5.19,3.45-7.89,.19-.52,.52-.89,1-1.11,.48-.22,.98-.26,1.5-.11l2.22,.83c.52,.15,.87,.47,1.06,.97,.19,.5,.15,.97-.11,1.42-2.19,4.19-3.97,7.38-5.34,9.56-.11,.11-.11,.24,0,.39,.52,.56,1.07,1.22,1.67,2,.11,.11,.2,.11,.28,0,1.56-2.41,2.96-4.87,4.23-7.39,.26-.48,.65-.82,1.17-1.03,.52-.2,1.04-.19,1.56,.03l2.11,.89c.48,.19,.8,.53,.95,1.03,.15,.5,.07,.95-.22,1.36-3.41,5.3-6.62,9.84-9.62,13.62-.04,.04-.05,.07-.03,.11,.02,.04,.06,.06,.14,.06l5.23-.28c.15,0,.2-.07,.17-.22-.37-.7-.69-1.33-.95-1.89Zm.72,14.23c-.19-.48-.17-.96,.06-1.45,.22-.48,.59-.81,1.11-1l1.22-.39c.56-.15,1.09-.11,1.61,.11,.52,.22,.87,.59,1.06,1.11,.96,2.3,1.78,4.63,2.45,7,.15,.52,.09,1.03-.17,1.53-.26,.5-.67,.84-1.22,1.03l-1.61,.56c-.48,.19-.95,.15-1.39-.11-.44-.26-.74-.65-.89-1.17-.48-2.19-1.22-4.6-2.22-7.23Zm37.53-24.85c0,.56-.19,1.02-.58,1.39-.39,.37-.84,.56-1.36,.56h-10.29c-.15,0-.22,.09-.22,.28v5.67c0,.19,.07,.28,.22,.28h8.95c.56,0,1.03,.19,1.42,.58s.58,.84,.58,1.36v2.22c0,.56-.19,1.03-.58,1.42s-.86,.58-1.42,.58h-24.52c-.56,0-1.02-.19-1.39-.58-.37-.39-.56-.86-.56-1.42v-2.22c0-.52,.19-.97,.56-1.36,.37-.39,.83-.58,1.39-.58h8.23c.15,0,.22-.09,.22-.28v-5.67c0-.19-.07-.28-.22-.28h-9.84c-.52,0-.97-.19-1.36-.56-.39-.37-.58-.83-.58-1.39v-2.22c0-.52,.19-.97,.58-1.36s.84-.58,1.36-.58h9.84c.15,0,.22-.09,.22-.28v-5.11c0-.56,.19-1.02,.58-1.39,.39-.37,.86-.56,1.42-.56h2.89c.56,0,1.03,.19,1.42,.56,.39,.37,.58,.83,.58,1.39v5.11c0,.19,.07,.28,.22,.28h10.29c.52,0,.97,.19,1.36,.58s.58,.84,.58,1.36v2.22Zm-26.02,41.58c-.56,0-1.03-.19-1.42-.58s-.58-.84-.58-1.36v-18.57c0-.56,.19-1.02,.58-1.39,.39-.37,.86-.56,1.42-.56h21.52c.52,0,.97,.19,1.36,.56,.39,.37,.58,.83,.58,1.39v18.51c0,.52-.19,.97-.58,1.36s-.84,.58-1.36,.58h-2.61c-.56,0-1.03-.19-1.42-.58s-.58-.84-.58-1.36v-.11c0-.19-.07-.28-.22-.28h-12.23c-.15,0-.22,.09-.22,.28v.17c0,.52-.19,.97-.58,1.36s-.86,.58-1.42,.58h-2.22Zm16.9-16.18c0-.19-.07-.28-.22-.28h-12.23c-.15,0-.22,.09-.22,.28v7.51c0,.19,.07,.28,.22,.28h12.23c.15,0,.22-.09,.22-.28v-7.51Z"/>
    <path class="cls-1" d="M180.16,40.7c2.04,0,3.34,.04,3.89,.11,.56,.04,1.01,.27,1.36,.69,.35,.43,.51,.92,.47,1.47-.52,9.38-1.85,17.1-4,23.18-.04,.15,0,.28,.11,.39,1.63,1.56,2.98,2.97,4.06,4.23,.37,.44,.56,.95,.56,1.53s-.19,1.1-.56,1.58l-1.89,2.33c-.3,.41-.69,.6-1.17,.58-.48-.02-.89-.21-1.22-.58-.78-1.04-1.71-2.13-2.78-3.28-.11-.11-.22-.09-.33,.06-2.11,3.45-4.74,6.28-7.89,8.51-.44,.33-.93,.44-1.45,.31-.52-.13-.93-.42-1.22-.86-.48-.82-1-1.58-1.56-2.28-.3-.41-.41-.86-.33-1.36,.07-.5,.31-.88,.72-1.14,2.82-1.89,5.13-4.52,6.95-7.89,.11-.15,.09-.28-.06-.39-.59-.56-1.45-1.33-2.56-2.33-.11-.07-.17-.06-.17,.06-.11,.41-.35,.69-.72,.83-.37,.15-.74,.13-1.11-.06l-2.28-1.39c-.52-.3-.89-.71-1.11-1.25-.22-.54-.28-1.08-.17-1.64,.93-3.93,1.96-8.93,3.11-15.01,0-.15-.07-.22-.22-.22h-1.61c-.52,0-.97-.19-1.36-.58s-.58-.84-.58-1.36v-2.22c0-.56,.19-1.03,.58-1.42s.84-.58,1.36-.58h2.67c.19,0,.3-.07,.33-.22,.44-2.59,.93-5.61,1.45-9.06,.07-.56,.31-1,.72-1.33,.41-.3,.83-.44,1.28-.44h.22l2.5,.22c.52,.04,.95,.27,1.28,.7,.33,.43,.44,.9,.33,1.42-.56,3.22-1.06,6.06-1.5,8.51,0,.15,.07,.22,.22,.22h3.67Zm-.67,6.45c0-.19-.09-.28-.28-.28h-3.84c-.19,0-.3,.07-.33,.22-.56,2.78-1.33,6.52-2.33,11.23-.04,.15,.02,.28,.17,.39,.3,.22,1.48,1.22,3.56,3,.15,.07,.24,.04,.28-.11,1.3-4,2.22-8.82,2.78-14.45Zm38.08-2.89c0,.56-.19,1.03-.58,1.42s-.84,.58-1.36,.58h-6.67c-.19,0-.26,.07-.22,.22,.59,2,1.26,3.58,2,4.73,.74,1.15,1.46,1.72,2.17,1.72h.06c.59,0,.98-.8,1.17-2.39,.04-.41,.25-.69,.64-.86,.39-.17,.75-.14,1.08,.08,.41,.26,.83,.5,1.28,.72,.52,.26,.93,.65,1.22,1.17,.19,.33,.28,.69,.28,1.06v.5c-.48,2.15-1.18,3.61-2.08,4.39s-2.21,1.17-3.92,1.17c-2.41,0-4.48-1.08-6.2-3.25-1.72-2.17-3.03-5.18-3.92-9.03-.04-.15-.15-.22-.33-.22h-7.23c-.19,0-.28,.07-.28,.22v4.5c0,.19,.09,.26,.28,.22,3.67-.48,5.65-.74,5.95-.78,.52-.07,.98,.06,1.39,.42,.41,.35,.63,.79,.67,1.31l.06,1.5c.04,.56-.12,1.06-.47,1.5-.35,.44-.81,.7-1.36,.78-3.22,.52-7.62,1.2-13.18,2.06-.56,.07-1.05-.06-1.47-.39-.43-.33-.68-.76-.75-1.28l-.33-2.06v-.28c0-.41,.13-.78,.39-1.11,.33-.44,.78-.69,1.33-.72l1.11-.11c.18-.04,.28-.13,.28-.28v-18.24c0-.48,.19-.87,.58-1.17,.39-.3,.82-.37,1.31-.22l1.33,.39c.15,.04,.31,.06,.5,.06,6.56-.56,12.04-1.45,16.46-2.67,.37-.11,.74-.17,1.11-.17,.81,0,1.56,.3,2.22,.89l1.89,1.72c.33,.3,.44,.66,.33,1.08-.11,.43-.37,.7-.78,.81-1.93,.52-3.95,.98-6.06,1.39-.15,0-.22,.09-.22,.28,.04,1.26,.15,2.82,.33,4.67,.04,.15,.13,.22,.28,.22h7.78c.52,0,.97,.19,1.36,.58s.58,.86,.58,1.42v1.45Zm-26.8,38.19c-.52,0-.97-.19-1.36-.58s-.58-.84-.58-1.36v-19.68c0-.56,.19-1.03,.58-1.42s.84-.58,1.36-.58h21.96c.56,0,1.03,.19,1.42,.58s.58,.86,.58,1.42v19.46c0,.56-.19,1.03-.58,1.42s-.86,.58-1.42,.58h-2.95c-.48,0-.89-.17-1.22-.5-.33-.33-.5-.74-.5-1.22,0-.15-.07-.22-.22-.22h-12.4c-.15,0-.22,.07-.22,.22,0,.52-.19,.96-.56,1.33-.37,.37-.82,.56-1.33,.56h-2.56Zm3.89-41.86c0,.15,.09,.22,.28,.22h6.28c.15,0,.22-.07,.22-.22-.11-.96-.24-2.2-.39-3.72,0-.15-.07-.22-.22-.22-1.93,.26-3.89,.48-5.89,.67-.19,0-.28,.09-.28,.28v3Zm13.4,23.74c0-.19-.07-.28-.22-.28h-12.4c-.15,0-.22,.09-.22,.28v2.72c0,.19,.07,.28,.22,.28h12.4c.15,0,.22-.09,.22-.28v-2.72Zm-12.84,10.62c0,.19,.07,.28,.22,.28h12.4c.15,0,.22-.09,.22-.28v-2.72c0-.15-.07-.22-.22-.22h-12.4c-.15,0-.22,.07-.22,.22v2.72Z"/>
    <path class="cls-1" d="M283.14,63.11c.52,0,.97,.19,1.36,.58s.58,.84,.58,1.36v2.45c0,.56-.19,1.03-.58,1.42s-.84,.58-1.36,.58h-14.18s-.06,0-.06,.03v.08c5.23,2.52,9.71,4.91,13.45,7.17,.41,.26,.61,.62,.61,1.08s-.19,.84-.56,1.14l-3.06,2.22c-.48,.33-1.02,.51-1.61,.53-.59,.02-1.13-.14-1.61-.47-3.63-2.52-7.62-4.91-11.95-7.17-.41-.22-.65-.56-.72-1.03-.07-.46,.07-.86,.44-1.2l2.45-2.22s.05-.07,.03-.11c-.02-.04-.05-.06-.08-.06h-16.34s-.07,0-.08,.03c-.02,.02,0,.05,.03,.08l3.5,2.33c.41,.26,.62,.63,.64,1.11,.02,.48-.18,.85-.58,1.11-4.11,2.97-8.82,5.52-14.12,7.67-.41,.19-.8,.28-1.17,.28-.7,0-1.39-.32-2.06-.95-.82-.82-1.61-1.58-2.39-2.28-.33-.26-.46-.6-.39-1.03,.07-.43,.3-.71,.67-.86,2.52-.96,5.06-2.12,7.62-3.47,2.56-1.35,4.67-2.66,6.34-3.92,.04,0,.05-.02,.03-.06-.02-.04-.05-.06-.08-.06h-13.84c-.52,0-.97-.19-1.36-.58s-.58-.86-.58-1.42v-2.45c0-.52,.19-.97,.58-1.36s.84-.58,1.36-.58h3.45c.15,0,.22-.09,.22-.28v-24.91c0-.56,.19-1.03,.58-1.42s.86-.58,1.42-.58h9.56c.15,0,.22-.07,.22-.22v-4.5c0-.56,.19-1.02,.58-1.39,.39-.37,.86-.56,1.42-.56h2.33c.56,0,1.03,.19,1.42,.56,.39,.37,.58,.83,.58,1.39v4.5c0,.15,.07,.22,.22,.22h4.95c.15,0,.22-.07,.22-.22v-4.5c0-.56,.19-1.02,.58-1.39,.39-.37,.86-.56,1.42-.56h2.45c.56,0,1.03,.19,1.42,.56,.39,.37,.58,.83,.58,1.39v4.5c0,.15,.07,.22,.22,.22h10.06c.56,0,1.03,.19,1.42,.58s.58,.86,.58,1.42v24.91c0,.19,.07,.28,.22,.28h2.95Zm-33.63-20.63c0-.19-.07-.28-.22-.28h-4.78c-.15,0-.22,.09-.22,.28v6.56c0,.15,.07,.22,.22,.22h4.78c.15,0,.22-.07,.22-.22v-6.56Zm-5,13.06c-.15,0-.22,.07-.22,.22v7.06c0,.19,.07,.28,.22,.28h4.78c.15,0,.22-.09,.22-.28v-7.06c0-.15-.07-.22-.22-.22h-4.78Zm16.73-13.06c0-.19-.07-.28-.22-.28h-4.95c-.15,0-.22,.09-.22,.28v6.56c0,.15,.07,.22,.22,.22h4.95c.15,0,.22-.07,.22-.22v-6.56Zm-.22,20.63c.15,0,.22-.09,.22-.28v-7.06c0-.15-.07-.22-.22-.22h-4.95c-.15,0-.22,.07-.22,.22v7.06c0,.19,.07,.28,.22,.28h4.95Zm12.12-20.63c0-.19-.07-.28-.22-.28h-5c-.15,0-.22,.09-.22,.28v6.56c0,.15,.07,.22,.22,.22h5c.15,0,.22-.07,.22-.22v-6.56Zm-5.23,13.06c-.15,0-.22,.07-.22,.22v7.06c0,.19,.07,.28,.22,.28h5c.15,0,.22-.09,.22-.28v-7.06c0-.15-.07-.22-.22-.22h-5Z"/>
    <path class="cls-1" d="M300.61,59.66v-4.67c0-.56,.19-1.02,.58-1.39,.39-.37,.86-.56,1.42-.56h.39c.52,0,.97,.19,1.36,.56,.39,.37,.58,.83,.58,1.39v4.89c0,6.75-.58,12.1-1.72,16.07-.11,.44-.39,.72-.83,.83-.44,.11-.85,.02-1.22-.28-.22-.15-.44-.31-.67-.5-.78-.59-1.17-1.32-1.17-2.17,0-.26,.04-.52,.11-.78,.78-3.26,1.17-7.73,1.17-13.4Zm1.22-9.56c-.56,0-1.03-.19-1.42-.56-.39-.37-.58-.83-.58-1.39v-2c0-.52,.19-.97,.58-1.36s.86-.58,1.42-.58h15.84c.56,0,1.02,.19,1.39,.58,.37,.39,.56,.84,.56,1.36v2c0,.56-.19,1.02-.56,1.39-.37,.37-.83,.56-1.39,.56h-4.61c-.15,0-.22,.09-.22,.28v30.19c0,.52-.19,.97-.58,1.36s-.86,.58-1.42,.58h-1.61c-.56,0-1.03-.19-1.42-.58s-.58-.84-.58-1.36v-30.19c0-.19-.07-.28-.22-.28h-5.17Zm14.73-17.12c.56,0,1.03,.19,1.42,.58s.58,.86,.58,1.42v1.83c0,.56-.19,1.03-.58,1.42s-.86,.58-1.42,.58h-13.4c-.56,0-1.02-.19-1.39-.58-.37-.39-.56-.86-.56-1.42v-1.83c0-.56,.19-1.03,.56-1.42,.37-.39,.83-.58,1.39-.58h13.4Zm.61,41.14c-.56,0-1.02-.19-1.39-.58-.37-.39-.56-.86-.56-1.42v-17.18c0-.56,.19-1.02,.56-1.39,.37-.37,.83-.56,1.39-.56h.33c.56,0,1.02,.19,1.39,.56,.37,.37,.56,.83,.56,1.39v17.18c0,.56-.19,1.03-.56,1.42-.37,.39-.83,.58-1.39,.58h-.33Zm27.07,2.17c-.07,.15-.04,.22,.11,.22h6.12c.52,0,.97,.19,1.36,.56,.39,.37,.58,.83,.58,1.39v1.06c0,.56-.19,1.03-.58,1.42s-.84,.58-1.36,.58h-28.69c-.56,0-1.03-.19-1.42-.58s-.58-.86-.58-1.42v-1.06c0-.56,.19-1.02,.58-1.39,.39-.37,.86-.56,1.42-.56h6.23c.15,0,.2-.09,.17-.28-.33-1.15-.74-2.28-1.22-3.39-.22-.44-.23-.9-.03-1.36,.2-.46,.55-.77,1.03-.92l1.56-.39s.06,0,.06-.03-.02-.03-.06-.03h-4c-.56,0-1.03-.19-1.42-.58s-.58-.86-.58-1.42v-6.84c0-.56,.19-1.03,.58-1.42s.86-.58,1.42-.58h21.57c.56,0,1.03,.19,1.42,.58s.58,.86,.58,1.42v6.84c0,.56-.19,1.03-.58,1.42s-.86,.58-1.42,.58h-3.72s-.06,0-.06,.03,.02,.03,.06,.03l1.67,.44c.48,.15,.82,.45,1.03,.92,.2,.46,.19,.92-.03,1.36-.74,1.41-1.33,2.54-1.78,3.39Zm5.39-24.02c.56,0,1.03,.19,1.42,.58s.58,.86,.58,1.42v1.17c0,.56-.19,1.02-.58,1.39-.39,.37-.86,.56-1.42,.56h-26.74c-.52,0-.97-.19-1.36-.56-.39-.37-.58-.83-.58-1.39v-1.17c0-.56,.19-1.03,.58-1.42s.84-.58,1.36-.58h26.74Zm-.89-19.24c.56,0,1.03,.19,1.42,.58s.58,.86,.58,1.42v13.4c0,.56-.19,1.03-.58,1.42s-.86,.58-1.42,.58h-24.96c-.56,0-1.03-.19-1.42-.58s-.58-.86-.58-1.42v-13.4c0-.56,.19-1.03,.58-1.42s.86-.58,1.42-.58h5.28c.15,0,.22-.07,.22-.22v-1.45c0-.56,.19-1.02,.58-1.39,.39-.37,.86-.56,1.42-.56h1.06c.56,0,1.03,.19,1.42,.56,.39,.37,.58,.83,.58,1.39v1.45c0,.15,.07,.22,.22,.22h2.89c.15,0,.22-.07,.22-.22v-1.45c0-.56,.19-1.02,.58-1.39,.39-.37,.86-.56,1.42-.56h1.11c.52,0,.97,.19,1.36,.56,.39,.37,.58,.83,.58,1.39v1.45c0,.15,.09,.22,.28,.22h5.73Zm-21.35,4.17c-.15,0-.22,.07-.22,.22v2.11c0,.15,.07,.22,.22,.22h2.67c.18,0,.28-.07,.28-.22v-2.11c0-.15-.09-.22-.28-.22h-2.67Zm0,6.45c-.15,0-.22,.07-.22,.22v2.11c0,.19,.07,.28,.22,.28h2.67c.18,0,.28-.09,.28-.28v-2.11c0-.15-.09-.22-.28-.22h-2.67Zm2,19.62c-.19,0-.28,.07-.28,.22v2.39c0,.15,.09,.22,.28,.22h13.62c.15,0,.22-.07,.22-.22v-2.39c0-.15-.07-.22-.22-.22h-13.62Zm11.34,7.06c.04-.15-.02-.22-.17-.22h-8.78c-.19,0-.22,.07-.11,.22,.78,1.3,1.41,2.76,1.89,4.39,.11,.33,.07,.68-.11,1.03-.19,.35-.46,.58-.83,.7v.06h7.06v-.06c-.3-.11-.52-.31-.67-.61-.15-.3-.15-.59,0-.89,.7-1.59,1.28-3.13,1.72-4.61Zm-6.45-30.8c0,.15,.07,.22,.22,.22h2.95c.15,0,.22-.07,.22-.22v-2.11c0-.15-.07-.22-.22-.22h-2.95c-.15,0-.22,.07-.22,.22v2.11Zm3.39,4.34c0-.15-.07-.22-.22-.22h-2.95c-.15,0-.22,.07-.22,.22v2.11c0,.19,.07,.28,.22,.28h2.95c.15,0,.22-.09,.22-.28v-2.11Zm7.17-4.11c.15,0,.22-.07,.22-.22v-2.11c0-.15-.07-.22-.22-.22h-2.95c-.15,0-.22,.07-.22,.22v2.11c0,.15,.07,.22,.22,.22h2.95Zm0,6.5c.15,0,.22-.09,.22-.28v-2.11c0-.15-.07-.22-.22-.22h-2.95c-.15,0-.22,.07-.22,.22v2.11c0,.19,.07,.28,.22,.28h2.95Z"/>
  </g>
  <polygon class="cls-1" points="388.08 44.66 392.67 53.05 401.06 57.64 392.67 62.23 388.08 70.62 383.49 62.23 375.1 57.64 383.49 53.05 388.08 44.66"/>
  <polygon class="cls-1" points="54.75 44.66 59.34 53.05 67.73 57.64 59.34 62.23 54.75 70.62 50.16 62.23 41.76 57.64 50.16 53.05 54.75 44.66"/>
</svg>