<?xml version="1.0" encoding="UTF-8"?>
<svg id="design" xmlns="http://www.w3.org/2000/svg" viewBox="0 0 514.23 192.52">
  <defs>
    <style>
      .cls-1 {
        fill: #ae6111;
      }
    </style>
  </defs>
  <path class="cls-1" d="M62.03,48.69v1.89h-10.68v27.59h-4.96v-27.59h-10.68v-1.89h26.32Z"/>
  <path class="cls-1" d="M83.29,78.88c-1.53,0-2.99-.19-4.38-.56-1.39-.37-2.69-.9-3.9-1.58-1.2-.68-2.3-1.49-3.29-2.44-.99-.95-1.83-2-2.52-3.16-.69-1.16-1.22-2.41-1.61-3.74-.38-1.33-.57-2.71-.57-4.13s.19-2.76.57-4.06c.38-1.29.92-2.51,1.61-3.64.69-1.13,1.53-2.16,2.52-3.09.99-.93,2.08-1.72,3.29-2.38,1.2-.66,2.5-1.17,3.9-1.53,1.39-.36,2.85-.55,4.38-.55,2.29,0,4.42.4,6.4,1.2,1.98.8,3.69,1.88,5.14,3.26,1.45,1.38,2.6,2.99,3.44,4.84.84,1.85,1.26,3.83,1.26,5.94,0,1.43-.19,2.81-.57,4.13-.38,1.33-.92,2.57-1.61,3.74-.69,1.16-1.52,2.22-2.5,3.16-.98.95-2.07,1.76-3.27,2.44-1.2.68-2.5,1.21-3.9,1.58-1.39.37-2.86.56-4.38.56ZM83.29,77.41c1.68,0,3.16-.35,4.46-1.06,1.29-.71,2.39-1.69,3.27-2.95.89-1.26,1.56-2.76,2.02-4.48.46-1.73.68-3.61.68-5.65s-.23-3.88-.68-5.57c-.46-1.68-1.13-3.14-2.02-4.36s-1.98-2.17-3.27-2.85c-1.29-.68-2.78-1.02-4.46-1.02s-3.24.34-4.54,1.02c-1.3.68-2.4,1.63-3.27,2.85-.88,1.22-1.54,2.67-1.98,4.36-.44,1.69-.66,3.54-.66,5.57s.22,3.93.66,5.65c.44,1.73,1.1,3.22,1.98,4.48.88,1.26,1.97,2.25,3.27,2.95,1.3.71,2.82,1.06,4.54,1.06Z"/>
  <path class="cls-1" d="M137.8,69.74c0,1.08-.1,2.14-.29,3.18-.19,1.04-.58,1.97-1.18,2.8-.6.83-1.45,1.5-2.55,2s-2.56.76-4.37.76c-1.03,0-1.95-.1-2.76-.29-.81-.19-1.56-.44-2.23-.75-.67-.31-1.28-.65-1.82-1.03-.54-.38-1.04-.76-1.51-1.15l1.57-2.09c.32.27.71.59,1.17.98.46.39.97.77,1.51,1.13.54.37,1.1.68,1.69.95.59.27,1.17.4,1.76.4,1.29,0,2.29-.34,3-1.03.71-.69,1.06-1.61,1.06-2.75v-24.16h4.96v21.04Z"/>
  <path class="cls-1" d="M148.25,48.69h4.96v29.48h-4.96v-29.48Z"/>
  <path class="cls-1" d="M163.67,48.69h4.96v13.05l15.49-13.05h3.24l-14.74,12.4,18.7,17.08h-6.3l-16.39-14.97v14.97h-4.96v-29.48Z"/>
  <path class="cls-1" d="M210.01,48.02l13.87,30.16h-5.03l-4.51-9.84h-12.63l-4.66,9.84h-2.49l14.22-30.16h1.22ZM202.58,66.42h10.86l-5.35-11.65-5.5,11.65Z"/>
  <path class="cls-1" d="M230.77,48.69h4.96v27.59h14.82v1.89h-19.77v-29.48Z"/>
  <path class="cls-1" d="M269.57,48.02l13.87,30.16h-5.03l-4.51-9.84h-12.63l-4.66,9.84h-2.49l14.22-30.16h1.22ZM262.15,66.42h10.86l-5.35-11.65-5.5,11.65Z"/>
  <path class="cls-1" d="M329.8,62.29c-.18,1.05-.41,1.98-.67,2.81-.27.83-.58,1.61-.95,2.35-.37.74-.79,1.46-1.27,2.15-.48.7-1.02,1.43-1.62,2.19,1.15,1.15,2.22,2.05,3.24,2.73,1.01.67,1.94,1.01,2.79,1.01,1.1,0,2.04-.22,2.84-.65.8-.43,1.44-1.2,1.92-2.29l.82.3c-.2.96-.51,1.81-.95,2.55-.43.74-.97,1.36-1.61,1.87-.64.51-1.36.89-2.17,1.16-.81.27-1.68.4-2.63.4-1.23,0-2.48-.35-3.76-1.05-1.28-.7-2.54-1.62-3.79-2.76-1.46,1.13-3.04,2.05-4.74,2.75-1.7.71-3.55,1.06-5.54,1.06-1.39,0-2.58-.16-3.56-.47-.98-.32-1.78-.76-2.4-1.32-.62-.56-1.07-1.24-1.36-2.02-.28-.78-.42-1.64-.42-2.59,0-1.36.25-2.57.76-3.61.51-1.05,1.17-1.98,2-2.8.83-.82,1.78-1.56,2.85-2.2,1.07-.65,2.17-1.25,3.3-1.82-.61-1.29-1.1-2.49-1.46-3.6-.36-1.1-.54-2.03-.54-2.78,0-.96.16-1.9.49-2.83.32-.92.81-1.74,1.44-2.45.64-.71,1.44-1.29,2.39-1.72.95-.43,2.07-.65,3.35-.65.95,0,1.84.14,2.68.42.84.28,1.57.68,2.19,1.21.62.52,1.11,1.16,1.47,1.92.36.76.54,1.61.54,2.58s-.23,1.83-.68,2.55c-.46.72-1.06,1.37-1.81,1.95-.75.58-1.59,1.11-2.53,1.58-.94.47-1.89.93-2.85,1.38.78,1.46,1.71,2.92,2.8,4.38,1.09,1.46,2.26,2.87,3.52,4.23,1.49-1.66,2.6-3.19,3.32-4.59.72-1.4,1.2-2.63,1.43-3.67l1.15.32ZM313.66,63.54c-.75.43-1.44.91-2.07,1.43-.63.52-1.18,1.08-1.64,1.67-.46.59-.83,1.21-1.08,1.86-.26.65-.39,1.32-.39,2.02,0,.81.13,1.57.39,2.27.26.7.63,1.3,1.11,1.82.48.51,1.07.92,1.76,1.21.69.29,1.47.44,2.33.44,1.18,0,2.3-.26,3.36-.77,1.06-.51,2.07-1.15,3.01-1.92-1.34-1.46-2.57-3.06-3.69-4.81-1.11-1.74-2.14-3.48-3.09-5.2ZM316.87,60.27c.76-.4,1.48-.81,2.14-1.23.66-.42,1.25-.88,1.74-1.38.5-.5.89-1.05,1.17-1.64.28-.6.42-1.26.42-1.99s-.09-1.35-.27-1.92c-.18-.56-.44-1.04-.76-1.43-.32-.39-.7-.69-1.12-.9-.42-.21-.88-.31-1.38-.31-.53,0-1.03.15-1.49.44-.46.29-.86.66-1.2,1.11-.33.45-.59.95-.78,1.51-.19.56-.29,1.1-.29,1.63,0,.9.16,1.88.49,2.95.32,1.07.77,2.13,1.33,3.18Z"/>
  <path class="cls-1" d="M380.12,48.69v1.89h-15.54v10.56h10.38v1.89h-10.38v13.25h15.54v1.89h-20.49v-29.48h20.49Z"/>
  <path class="cls-1" d="M388.68,48.69h4.96v27.59h14.82v1.89h-19.77v-29.48Z"/>
  <path class="cls-1" d="M415.65,48.69h4.96v27.59h14.82v1.89h-19.77v-29.48Z"/>
  <path class="cls-1" d="M442.62,48.69h4.96v29.48h-4.96v-29.48Z"/>
  <path class="cls-1" d="M478.52,48.69v1.89h-15.54v10.56h10.38v1.89h-10.38v13.25h15.54v1.89h-20.49v-29.48h20.49Z"/>
  <path class="cls-1" d="M139.71,114.32l8.77,22.41,7.74-20.22,8.02,20.32,8.57-22.51h2.44l-11.36,29.73h-1.49l-7.27-18.38-7,18.38h-1.69l-11.7-29.73h4.98Z"/>
  <path class="cls-1" d="M202.54,114.32v1.89h-15.54v10.56h10.38v1.89h-10.38v13.25h15.54v1.89h-20.49v-29.48h20.49Z"/>
  <path class="cls-1" d="M211.1,114.32h9.79c3.04,0,5.64.28,7.82.85,2.17.56,3.99,1.47,5.45,2.71,1.68,1.41,2.93,3.03,3.77,4.87.84,1.83,1.26,3.85,1.26,6.04,0,2.08-.38,4.03-1.13,5.85-.76,1.83-1.85,3.42-3.3,4.78-1.44,1.36-3.23,2.43-5.35,3.21-2.13.78-4.56,1.17-7.3,1.17h-11.01v-29.48ZM216.06,141.64h5.23c1.68,0,3.25-.27,4.72-.82,1.47-.55,2.75-1.36,3.84-2.44,1.09-1.08,1.95-2.41,2.58-4,.63-1.59.95-3.42.95-5.49,0-1.81-.3-3.47-.9-4.99-.6-1.52-1.43-2.83-2.49-3.92-1.06-1.1-2.33-1.95-3.81-2.55-1.48-.61-3.09-.91-4.83-.91h-5.28v25.13Z"/>
  <path class="cls-1" d="M248.38,114.32h9.79c3.04,0,5.64.28,7.82.85,2.17.56,3.99,1.47,5.45,2.71,1.68,1.41,2.93,3.03,3.77,4.87.84,1.83,1.26,3.85,1.26,6.04,0,2.08-.38,4.03-1.13,5.85-.76,1.83-1.85,3.42-3.3,4.78-1.44,1.36-3.23,2.43-5.35,3.21-2.13.78-4.56,1.17-7.3,1.17h-11.01v-29.48ZM253.33,141.64h5.23c1.68,0,3.25-.27,4.72-.82,1.47-.55,2.75-1.36,3.84-2.44,1.09-1.08,1.95-2.41,2.58-4,.63-1.59.95-3.42.95-5.49,0-1.81-.3-3.47-.9-4.99-.6-1.52-1.43-2.83-2.49-3.92-1.06-1.1-2.33-1.95-3.81-2.55-1.48-.61-3.09-.91-4.83-.91h-5.28v25.13Z"/>
  <path class="cls-1" d="M285.65,114.32h4.96v29.48h-4.96v-29.48Z"/>
  <path class="cls-1" d="M301.06,114.32h2.76l19.32,21.54h.2v-21.54h2.17v30.18h-1.15l-20.92-23.98h-.17v23.28h-2.22v-29.48Z"/>
  <path class="cls-1" d="M352.78,115.76c-1.78,0-3.42.32-4.92.95-1.5.63-2.8,1.54-3.88,2.71-1.09,1.18-1.93,2.6-2.54,4.27-.61,1.67-.91,3.53-.91,5.59s.33,3.94,1,5.6c.66,1.66,1.57,3.08,2.71,4.26,1.15,1.18,2.49,2.08,4.03,2.71,1.54.63,3.2.95,4.98.95,1.29,0,2.47-.18,3.51-.54,1.05-.36,1.98-.86,2.81-1.51v-10.33h-5.58v-1.77h10.53v12.97c-.86.47-1.73.88-2.61,1.23-.88.36-1.83.66-2.84.9-1.01.24-2.13.42-3.34.55-1.21.12-2.59.19-4.13.19-2.44,0-4.69-.4-6.76-1.21-2.07-.8-3.85-1.9-5.35-3.27-1.5-1.38-2.67-2.99-3.51-4.84-.84-1.85-1.26-3.81-1.26-5.89s.4-4.06,1.21-5.95c.8-1.89,1.94-3.56,3.4-4.99,1.46-1.44,3.2-2.58,5.23-3.42,2.03-.85,4.26-1.27,6.7-1.27,1.56,0,3,.21,4.33.63,1.33.42,2.54.98,3.62,1.68s2.05,1.5,2.9,2.42c.85.91,1.58,1.87,2.19,2.86l-2.14,1.44c-1.23-2.39-2.61-4.14-4.13-5.25-1.53-1.11-3.28-1.67-5.25-1.67Z"/>
  <path class="cls-1" d="M375.61,139.82c.33,0,.65.06.95.19.3.12.56.29.77.5.22.21.39.46.51.75.12.29.19.59.19.91,0,.33-.06.64-.19.92-.12.28-.3.53-.51.73-.22.21-.47.37-.77.5-.3.12-.61.19-.95.19s-.65-.06-.95-.19c-.3-.12-.56-.29-.77-.5-.22-.21-.39-.45-.51-.73-.12-.28-.19-.59-.19-.92s.06-.62.19-.91c.12-.29.29-.54.51-.75.22-.21.47-.37.77-.5.3-.12.61-.19.95-.19Z"/>
</svg>